<mxfile host="Electron" modified="2024-12-03T04:22:13.648Z" agent="Mozilla/5.0 (Windows NT 10.0; Win64; x64) AppleWebKit/537.36 (KHTML, like Gecko) draw.io/23.0.2 Chrome/120.0.6099.109 Electron/28.1.0 Safari/537.36" etag="Lub44RWS_yUfJVm2gl8X" version="23.0.2" type="device">
  <diagram id="C5RBs43oDa-KdzZeNtuy" name="Page-1">
    <mxGraphModel dx="1399" dy="-342" grid="1" gridSize="10" guides="1" tooltips="1" connect="1" arrows="1" fold="1" page="1" pageScale="1" pageWidth="827" pageHeight="1169" math="0" shadow="0">
      <root>
        <mxCell id="WIyWlLk6GJQsqaUBKTNV-0" />
        <mxCell id="WIyWlLk6GJQsqaUBKTNV-1" parent="WIyWlLk6GJQsqaUBKTNV-0" />
        <mxCell id="9VNOGcir4t3zfCMRs3BQ-56" value="Диаграмма деятельности:" style="text;html=1;align=center;verticalAlign=middle;resizable=0;points=[];autosize=1;strokeColor=none;fillColor=none;fontSize=25;" parent="WIyWlLk6GJQsqaUBKTNV-1" vertex="1">
          <mxGeometry x="130" y="1333" width="330" height="40" as="geometry" />
        </mxCell>
        <mxCell id="WFDRFSRvHRVxW06Eg9aG-0" value="Диаграмма последовательности:" style="text;html=1;align=center;verticalAlign=middle;resizable=0;points=[];autosize=1;strokeColor=none;fillColor=none;fontSize=25;" parent="WIyWlLk6GJQsqaUBKTNV-1" vertex="1">
          <mxGeometry x="1290" y="1300" width="410" height="40" as="geometry" />
        </mxCell>
        <mxCell id="Xd-OEKQsW6fIhWHLVpuV-12" value="Система найма новых сотрудников" style="swimlane;whiteSpace=wrap;html=1;" vertex="1" parent="WIyWlLk6GJQsqaUBKTNV-1">
          <mxGeometry x="-680" y="1580" width="1440" height="930" as="geometry" />
        </mxCell>
        <mxCell id="Xd-OEKQsW6fIhWHLVpuV-13" value="Руководитель отдела" style="swimlane;whiteSpace=wrap;html=1;" vertex="1" parent="Xd-OEKQsW6fIhWHLVpuV-12">
          <mxGeometry y="20" width="310" height="910" as="geometry" />
        </mxCell>
        <mxCell id="9VNOGcir4t3zfCMRs3BQ-61" value="" style="shape=ellipse;html=1;fillColor=strokeColor;fontSize=18;fontColor=#ffffff;" parent="Xd-OEKQsW6fIhWHLVpuV-13" vertex="1">
          <mxGeometry x="135" y="40" width="40" height="40" as="geometry" />
        </mxCell>
        <mxCell id="9VNOGcir4t3zfCMRs3BQ-62" value="создание заявки" style="shape=rect;rounded=1;html=1;whiteSpace=wrap;align=center;" parent="Xd-OEKQsW6fIhWHLVpuV-13" vertex="1">
          <mxGeometry x="105" y="134" width="100" height="40" as="geometry" />
        </mxCell>
        <mxCell id="9VNOGcir4t3zfCMRs3BQ-63" style="edgeStyle=orthogonalEdgeStyle;rounded=0;orthogonalLoop=1;jettySize=auto;html=1;" parent="Xd-OEKQsW6fIhWHLVpuV-13" source="9VNOGcir4t3zfCMRs3BQ-61" target="9VNOGcir4t3zfCMRs3BQ-62" edge="1">
          <mxGeometry relative="1" as="geometry" />
        </mxCell>
        <mxCell id="Xd-OEKQsW6fIhWHLVpuV-43" style="edgeStyle=orthogonalEdgeStyle;rounded=0;orthogonalLoop=1;jettySize=auto;html=1;entryX=0.5;entryY=0;entryDx=0;entryDy=0;" edge="1" parent="Xd-OEKQsW6fIhWHLVpuV-13" source="Xd-OEKQsW6fIhWHLVpuV-29" target="Xd-OEKQsW6fIhWHLVpuV-42">
          <mxGeometry relative="1" as="geometry" />
        </mxCell>
        <mxCell id="Xd-OEKQsW6fIhWHLVpuV-29" value="проводит тех. собес" style="shape=rect;rounded=1;html=1;whiteSpace=wrap;align=center;" vertex="1" parent="Xd-OEKQsW6fIhWHLVpuV-13">
          <mxGeometry x="110" y="220" width="100" height="40" as="geometry" />
        </mxCell>
        <mxCell id="Xd-OEKQsW6fIhWHLVpuV-41" value="отправка оффера" style="shape=rect;rounded=1;html=1;whiteSpace=wrap;align=center;" vertex="1" parent="Xd-OEKQsW6fIhWHLVpuV-13">
          <mxGeometry x="35" y="390" width="100" height="40" as="geometry" />
        </mxCell>
        <mxCell id="Xd-OEKQsW6fIhWHLVpuV-45" style="edgeStyle=orthogonalEdgeStyle;rounded=0;orthogonalLoop=1;jettySize=auto;html=1;" edge="1" parent="Xd-OEKQsW6fIhWHLVpuV-13" source="Xd-OEKQsW6fIhWHLVpuV-42" target="Xd-OEKQsW6fIhWHLVpuV-44">
          <mxGeometry relative="1" as="geometry" />
        </mxCell>
        <mxCell id="Xd-OEKQsW6fIhWHLVpuV-46" style="edgeStyle=orthogonalEdgeStyle;rounded=0;orthogonalLoop=1;jettySize=auto;html=1;" edge="1" parent="Xd-OEKQsW6fIhWHLVpuV-13" source="Xd-OEKQsW6fIhWHLVpuV-42" target="Xd-OEKQsW6fIhWHLVpuV-41">
          <mxGeometry relative="1" as="geometry">
            <Array as="points">
              <mxPoint x="160" y="370" />
              <mxPoint x="85" y="370" />
            </Array>
          </mxGeometry>
        </mxCell>
        <mxCell id="Xd-OEKQsW6fIhWHLVpuV-42" value="" style="rhombus;whiteSpace=wrap;html=1;" vertex="1" parent="Xd-OEKQsW6fIhWHLVpuV-13">
          <mxGeometry x="140" y="310" width="40" height="40" as="geometry" />
        </mxCell>
        <mxCell id="Xd-OEKQsW6fIhWHLVpuV-44" value="отправка отказа" style="shape=rect;rounded=1;html=1;whiteSpace=wrap;align=center;" vertex="1" parent="Xd-OEKQsW6fIhWHLVpuV-13">
          <mxGeometry x="180" y="390" width="100" height="40" as="geometry" />
        </mxCell>
        <mxCell id="Xd-OEKQsW6fIhWHLVpuV-48" value="прошел" style="text;html=1;align=center;verticalAlign=middle;resizable=0;points=[];autosize=1;strokeColor=none;fillColor=none;" vertex="1" parent="Xd-OEKQsW6fIhWHLVpuV-13">
          <mxGeometry x="65" y="340" width="70" height="30" as="geometry" />
        </mxCell>
        <mxCell id="Xd-OEKQsW6fIhWHLVpuV-14" value="HR-отдел" style="swimlane;whiteSpace=wrap;html=1;startSize=23;" vertex="1" parent="Xd-OEKQsW6fIhWHLVpuV-12">
          <mxGeometry x="310" y="20" width="430" height="910" as="geometry" />
        </mxCell>
        <mxCell id="Xd-OEKQsW6fIhWHLVpuV-16" style="edgeStyle=orthogonalEdgeStyle;rounded=0;orthogonalLoop=1;jettySize=auto;html=1;entryX=0.5;entryY=0;entryDx=0;entryDy=0;" edge="1" parent="Xd-OEKQsW6fIhWHLVpuV-14" source="9VNOGcir4t3zfCMRs3BQ-65" target="Xd-OEKQsW6fIhWHLVpuV-0">
          <mxGeometry relative="1" as="geometry" />
        </mxCell>
        <mxCell id="9VNOGcir4t3zfCMRs3BQ-65" value="проверка заявки" style="shape=rect;rounded=1;html=1;whiteSpace=wrap;align=center;" parent="Xd-OEKQsW6fIhWHLVpuV-14" vertex="1">
          <mxGeometry x="150" y="60" width="100" height="40" as="geometry" />
        </mxCell>
        <mxCell id="Xd-OEKQsW6fIhWHLVpuV-0" value="" style="rhombus;whiteSpace=wrap;html=1;" vertex="1" parent="Xd-OEKQsW6fIhWHLVpuV-14">
          <mxGeometry x="180" y="212" width="40" height="40" as="geometry" />
        </mxCell>
        <mxCell id="Xd-OEKQsW6fIhWHLVpuV-1" value="утверждение заявки" style="shape=rect;rounded=1;html=1;whiteSpace=wrap;align=center;" vertex="1" parent="Xd-OEKQsW6fIhWHLVpuV-14">
          <mxGeometry x="40" y="342" width="100" height="40" as="geometry" />
        </mxCell>
        <mxCell id="Xd-OEKQsW6fIhWHLVpuV-3" style="edgeStyle=orthogonalEdgeStyle;rounded=0;orthogonalLoop=1;jettySize=auto;html=1;" edge="1" parent="Xd-OEKQsW6fIhWHLVpuV-14" source="Xd-OEKQsW6fIhWHLVpuV-0" target="Xd-OEKQsW6fIhWHLVpuV-1">
          <mxGeometry relative="1" as="geometry">
            <Array as="points">
              <mxPoint x="90" y="232" />
              <mxPoint x="90" y="362" />
            </Array>
          </mxGeometry>
        </mxCell>
        <mxCell id="Xd-OEKQsW6fIhWHLVpuV-2" value="отправка уведомление руководителю о необходимости доработок" style="shape=rect;rounded=1;html=1;whiteSpace=wrap;align=center;" vertex="1" parent="Xd-OEKQsW6fIhWHLVpuV-14">
          <mxGeometry x="270" y="342" width="100" height="90" as="geometry" />
        </mxCell>
        <mxCell id="Xd-OEKQsW6fIhWHLVpuV-4" style="edgeStyle=orthogonalEdgeStyle;rounded=0;orthogonalLoop=1;jettySize=auto;html=1;" edge="1" parent="Xd-OEKQsW6fIhWHLVpuV-14" source="Xd-OEKQsW6fIhWHLVpuV-0" target="Xd-OEKQsW6fIhWHLVpuV-2">
          <mxGeometry relative="1" as="geometry" />
        </mxCell>
        <mxCell id="Xd-OEKQsW6fIhWHLVpuV-5" value="если заявка соот. требованиям." style="text;html=1;align=center;verticalAlign=middle;resizable=0;points=[];autosize=1;strokeColor=none;fillColor=none;" vertex="1" parent="Xd-OEKQsW6fIhWHLVpuV-14">
          <mxGeometry y="182" width="200" height="30" as="geometry" />
        </mxCell>
        <mxCell id="Xd-OEKQsW6fIhWHLVpuV-6" value="если заявка не соот. требованиям." style="text;html=1;align=center;verticalAlign=middle;resizable=0;points=[];autosize=1;strokeColor=none;fillColor=none;" vertex="1" parent="Xd-OEKQsW6fIhWHLVpuV-14">
          <mxGeometry x="210" y="190" width="220" height="30" as="geometry" />
        </mxCell>
        <mxCell id="9VNOGcir4t3zfCMRs3BQ-76" value="публикация вакансии" style="shape=rect;rounded=1;html=1;whiteSpace=wrap;align=center;" parent="Xd-OEKQsW6fIhWHLVpuV-14" vertex="1">
          <mxGeometry x="40" y="460" width="100" height="40" as="geometry" />
        </mxCell>
        <mxCell id="Xd-OEKQsW6fIhWHLVpuV-7" style="edgeStyle=orthogonalEdgeStyle;rounded=0;orthogonalLoop=1;jettySize=auto;html=1;entryX=0.5;entryY=0;entryDx=0;entryDy=0;" edge="1" parent="Xd-OEKQsW6fIhWHLVpuV-14" source="Xd-OEKQsW6fIhWHLVpuV-1" target="9VNOGcir4t3zfCMRs3BQ-76">
          <mxGeometry relative="1" as="geometry" />
        </mxCell>
        <mxCell id="Xd-OEKQsW6fIhWHLVpuV-20" style="edgeStyle=orthogonalEdgeStyle;rounded=0;orthogonalLoop=1;jettySize=auto;html=1;" edge="1" parent="Xd-OEKQsW6fIhWHLVpuV-14" source="Xd-OEKQsW6fIhWHLVpuV-17" target="Xd-OEKQsW6fIhWHLVpuV-19">
          <mxGeometry relative="1" as="geometry" />
        </mxCell>
        <mxCell id="Xd-OEKQsW6fIhWHLVpuV-17" value="проверка анкеты" style="shape=rect;rounded=1;html=1;whiteSpace=wrap;align=center;" vertex="1" parent="Xd-OEKQsW6fIhWHLVpuV-14">
          <mxGeometry x="170" y="520" width="100" height="40" as="geometry" />
        </mxCell>
        <mxCell id="Xd-OEKQsW6fIhWHLVpuV-23" style="edgeStyle=orthogonalEdgeStyle;rounded=0;orthogonalLoop=1;jettySize=auto;html=1;" edge="1" parent="Xd-OEKQsW6fIhWHLVpuV-14" source="Xd-OEKQsW6fIhWHLVpuV-19" target="Xd-OEKQsW6fIhWHLVpuV-21">
          <mxGeometry relative="1" as="geometry" />
        </mxCell>
        <mxCell id="Xd-OEKQsW6fIhWHLVpuV-24" style="edgeStyle=orthogonalEdgeStyle;rounded=0;orthogonalLoop=1;jettySize=auto;html=1;entryX=0.5;entryY=0;entryDx=0;entryDy=0;" edge="1" parent="Xd-OEKQsW6fIhWHLVpuV-14" source="Xd-OEKQsW6fIhWHLVpuV-19" target="Xd-OEKQsW6fIhWHLVpuV-22">
          <mxGeometry relative="1" as="geometry" />
        </mxCell>
        <mxCell id="Xd-OEKQsW6fIhWHLVpuV-19" value="" style="rhombus;whiteSpace=wrap;html=1;" vertex="1" parent="Xd-OEKQsW6fIhWHLVpuV-14">
          <mxGeometry x="200" y="590" width="40" height="40" as="geometry" />
        </mxCell>
        <mxCell id="Xd-OEKQsW6fIhWHLVpuV-21" value="удаление заявки" style="shape=rect;rounded=1;html=1;whiteSpace=wrap;align=center;" vertex="1" parent="Xd-OEKQsW6fIhWHLVpuV-14">
          <mxGeometry x="50" y="680" width="100" height="40" as="geometry" />
        </mxCell>
        <mxCell id="Xd-OEKQsW6fIhWHLVpuV-28" style="edgeStyle=orthogonalEdgeStyle;rounded=0;orthogonalLoop=1;jettySize=auto;html=1;" edge="1" parent="Xd-OEKQsW6fIhWHLVpuV-14" source="Xd-OEKQsW6fIhWHLVpuV-22" target="Xd-OEKQsW6fIhWHLVpuV-27">
          <mxGeometry relative="1" as="geometry" />
        </mxCell>
        <mxCell id="Xd-OEKQsW6fIhWHLVpuV-22" value="отправка приглашения на собес" style="shape=rect;rounded=1;html=1;whiteSpace=wrap;align=center;" vertex="1" parent="Xd-OEKQsW6fIhWHLVpuV-14">
          <mxGeometry x="280" y="680" width="100" height="40" as="geometry" />
        </mxCell>
        <mxCell id="Xd-OEKQsW6fIhWHLVpuV-25" value="отклонено" style="text;html=1;align=center;verticalAlign=middle;resizable=0;points=[];autosize=1;strokeColor=none;fillColor=none;" vertex="1" parent="Xd-OEKQsW6fIhWHLVpuV-14">
          <mxGeometry x="110" y="570" width="80" height="30" as="geometry" />
        </mxCell>
        <mxCell id="Xd-OEKQsW6fIhWHLVpuV-26" value="принято" style="text;html=1;align=center;verticalAlign=middle;resizable=0;points=[];autosize=1;strokeColor=none;fillColor=none;" vertex="1" parent="Xd-OEKQsW6fIhWHLVpuV-14">
          <mxGeometry x="255" y="570" width="70" height="30" as="geometry" />
        </mxCell>
        <mxCell id="Xd-OEKQsW6fIhWHLVpuV-35" style="edgeStyle=orthogonalEdgeStyle;rounded=0;orthogonalLoop=1;jettySize=auto;html=1;entryX=1;entryY=0.5;entryDx=0;entryDy=0;" edge="1" parent="Xd-OEKQsW6fIhWHLVpuV-14" source="Xd-OEKQsW6fIhWHLVpuV-27" target="Xd-OEKQsW6fIhWHLVpuV-31">
          <mxGeometry relative="1" as="geometry" />
        </mxCell>
        <mxCell id="Xd-OEKQsW6fIhWHLVpuV-27" value="проводит первичное интервью" style="shape=rect;rounded=1;html=1;whiteSpace=wrap;align=center;" vertex="1" parent="Xd-OEKQsW6fIhWHLVpuV-14">
          <mxGeometry x="280" y="750" width="100" height="40" as="geometry" />
        </mxCell>
        <mxCell id="Xd-OEKQsW6fIhWHLVpuV-31" value="" style="rhombus;whiteSpace=wrap;html=1;" vertex="1" parent="Xd-OEKQsW6fIhWHLVpuV-14">
          <mxGeometry x="140" y="750" width="40" height="40" as="geometry" />
        </mxCell>
        <mxCell id="Xd-OEKQsW6fIhWHLVpuV-36" value="оправка отказа" style="shape=rect;rounded=1;html=1;whiteSpace=wrap;align=center;" vertex="1" parent="Xd-OEKQsW6fIhWHLVpuV-14">
          <mxGeometry x="120" y="850" width="100" height="40" as="geometry" />
        </mxCell>
        <mxCell id="Xd-OEKQsW6fIhWHLVpuV-37" style="edgeStyle=orthogonalEdgeStyle;rounded=0;orthogonalLoop=1;jettySize=auto;html=1;entryX=0.417;entryY=-0.092;entryDx=0;entryDy=0;entryPerimeter=0;" edge="1" parent="Xd-OEKQsW6fIhWHLVpuV-14" source="Xd-OEKQsW6fIhWHLVpuV-31" target="Xd-OEKQsW6fIhWHLVpuV-36">
          <mxGeometry relative="1" as="geometry" />
        </mxCell>
        <mxCell id="Xd-OEKQsW6fIhWHLVpuV-39" value="прошел" style="text;html=1;align=center;verticalAlign=middle;resizable=0;points=[];autosize=1;strokeColor=none;fillColor=none;" vertex="1" parent="Xd-OEKQsW6fIhWHLVpuV-14">
          <mxGeometry x="80" y="738" width="70" height="30" as="geometry" />
        </mxCell>
        <mxCell id="Xd-OEKQsW6fIhWHLVpuV-40" value="не прошел" style="text;html=1;align=center;verticalAlign=middle;resizable=0;points=[];autosize=1;strokeColor=none;fillColor=none;" vertex="1" parent="Xd-OEKQsW6fIhWHLVpuV-14">
          <mxGeometry x="85" y="790" width="80" height="30" as="geometry" />
        </mxCell>
        <mxCell id="9VNOGcir4t3zfCMRs3BQ-66" style="edgeStyle=orthogonalEdgeStyle;rounded=0;orthogonalLoop=1;jettySize=auto;html=1;entryX=0.5;entryY=0;entryDx=0;entryDy=0;" parent="Xd-OEKQsW6fIhWHLVpuV-12" source="9VNOGcir4t3zfCMRs3BQ-62" target="9VNOGcir4t3zfCMRs3BQ-65" edge="1">
          <mxGeometry relative="1" as="geometry">
            <Array as="points">
              <mxPoint x="360" y="174" />
              <mxPoint x="360" y="60" />
              <mxPoint x="510" y="60" />
            </Array>
          </mxGeometry>
        </mxCell>
        <mxCell id="Xd-OEKQsW6fIhWHLVpuV-15" value="Кандидат" style="swimlane;whiteSpace=wrap;html=1;startSize=23;" vertex="1" parent="Xd-OEKQsW6fIhWHLVpuV-12">
          <mxGeometry x="740" y="20" width="350" height="910" as="geometry" />
        </mxCell>
        <mxCell id="9VNOGcir4t3zfCMRs3BQ-79" value="подача заявки на вакансию" style="shape=rect;rounded=1;html=1;whiteSpace=wrap;align=center;" parent="Xd-OEKQsW6fIhWHLVpuV-15" vertex="1">
          <mxGeometry x="125" y="50" width="100" height="40" as="geometry" />
        </mxCell>
        <mxCell id="Xd-OEKQsW6fIhWHLVpuV-49" value="подтверждение оффера" style="shape=rect;rounded=1;html=1;whiteSpace=wrap;align=center;" vertex="1" parent="Xd-OEKQsW6fIhWHLVpuV-15">
          <mxGeometry x="170" y="620" width="100" height="40" as="geometry" />
        </mxCell>
        <mxCell id="Xd-OEKQsW6fIhWHLVpuV-59" value="уведомление IT-отдела" style="shape=rect;rounded=1;html=1;whiteSpace=wrap;align=center;" vertex="1" parent="Xd-OEKQsW6fIhWHLVpuV-15">
          <mxGeometry x="170" y="780" width="100" height="40" as="geometry" />
        </mxCell>
        <mxCell id="9VNOGcir4t3zfCMRs3BQ-83" value="" style="shape=mxgraph.sysml.actFinal;html=1;verticalLabelPosition=bottom;labelBackgroundColor=#ffffff;verticalAlign=top;" parent="Xd-OEKQsW6fIhWHLVpuV-15" vertex="1">
          <mxGeometry x="200" y="860" width="40" height="40" as="geometry" />
        </mxCell>
        <mxCell id="Xd-OEKQsW6fIhWHLVpuV-60" style="edgeStyle=orthogonalEdgeStyle;rounded=0;orthogonalLoop=1;jettySize=auto;html=1;entryX=0.5;entryY=0;entryDx=0;entryDy=0;entryPerimeter=0;" edge="1" parent="Xd-OEKQsW6fIhWHLVpuV-15" source="Xd-OEKQsW6fIhWHLVpuV-59" target="9VNOGcir4t3zfCMRs3BQ-83">
          <mxGeometry relative="1" as="geometry" />
        </mxCell>
        <mxCell id="9VNOGcir4t3zfCMRs3BQ-80" style="edgeStyle=orthogonalEdgeStyle;rounded=0;orthogonalLoop=1;jettySize=auto;html=1;" parent="Xd-OEKQsW6fIhWHLVpuV-12" source="9VNOGcir4t3zfCMRs3BQ-76" target="9VNOGcir4t3zfCMRs3BQ-79" edge="1">
          <mxGeometry relative="1" as="geometry">
            <Array as="points">
              <mxPoint x="770" y="500" />
              <mxPoint x="770" y="90" />
            </Array>
          </mxGeometry>
        </mxCell>
        <mxCell id="Xd-OEKQsW6fIhWHLVpuV-18" style="edgeStyle=orthogonalEdgeStyle;rounded=0;orthogonalLoop=1;jettySize=auto;html=1;entryX=1;entryY=0.5;entryDx=0;entryDy=0;" edge="1" parent="Xd-OEKQsW6fIhWHLVpuV-12" source="9VNOGcir4t3zfCMRs3BQ-79" target="Xd-OEKQsW6fIhWHLVpuV-17">
          <mxGeometry relative="1" as="geometry">
            <Array as="points">
              <mxPoint x="870" y="560" />
            </Array>
          </mxGeometry>
        </mxCell>
        <mxCell id="Xd-OEKQsW6fIhWHLVpuV-38" style="edgeStyle=orthogonalEdgeStyle;rounded=0;orthogonalLoop=1;jettySize=auto;html=1;entryX=1;entryY=0.5;entryDx=0;entryDy=0;" edge="1" parent="Xd-OEKQsW6fIhWHLVpuV-12" source="Xd-OEKQsW6fIhWHLVpuV-31" target="Xd-OEKQsW6fIhWHLVpuV-29">
          <mxGeometry relative="1" as="geometry">
            <mxPoint x="227.33331298828125" y="450" as="targetPoint" />
            <Array as="points">
              <mxPoint x="290" y="790" />
              <mxPoint x="290" y="260" />
            </Array>
          </mxGeometry>
        </mxCell>
        <mxCell id="Xd-OEKQsW6fIhWHLVpuV-50" style="edgeStyle=orthogonalEdgeStyle;rounded=0;orthogonalLoop=1;jettySize=auto;html=1;" edge="1" parent="Xd-OEKQsW6fIhWHLVpuV-12" source="Xd-OEKQsW6fIhWHLVpuV-41">
          <mxGeometry relative="1" as="geometry">
            <mxPoint x="960" y="640" as="targetPoint" />
            <Array as="points">
              <mxPoint x="85" y="920" />
              <mxPoint x="890" y="920" />
              <mxPoint x="890" y="610" />
              <mxPoint x="960" y="610" />
            </Array>
          </mxGeometry>
        </mxCell>
        <mxCell id="Xd-OEKQsW6fIhWHLVpuV-51" value="Система" style="swimlane;whiteSpace=wrap;html=1;startSize=23;" vertex="1" parent="Xd-OEKQsW6fIhWHLVpuV-12">
          <mxGeometry x="1090" y="20" width="350" height="910" as="geometry" />
        </mxCell>
        <mxCell id="Xd-OEKQsW6fIhWHLVpuV-52" value="добавление нового сотрудника в БД" style="shape=rect;rounded=1;html=1;whiteSpace=wrap;align=center;" vertex="1" parent="Xd-OEKQsW6fIhWHLVpuV-51">
          <mxGeometry x="125" y="50" width="100" height="40" as="geometry" />
        </mxCell>
        <mxCell id="Xd-OEKQsW6fIhWHLVpuV-54" style="edgeStyle=orthogonalEdgeStyle;rounded=0;orthogonalLoop=1;jettySize=auto;html=1;entryX=0;entryY=0.5;entryDx=0;entryDy=0;" edge="1" parent="Xd-OEKQsW6fIhWHLVpuV-12" source="Xd-OEKQsW6fIhWHLVpuV-49" target="Xd-OEKQsW6fIhWHLVpuV-52">
          <mxGeometry relative="1" as="geometry" />
        </mxCell>
        <mxCell id="Xd-OEKQsW6fIhWHLVpuV-58" style="edgeStyle=orthogonalEdgeStyle;rounded=0;orthogonalLoop=1;jettySize=auto;html=1;entryX=1;entryY=0.5;entryDx=0;entryDy=0;" edge="1" parent="Xd-OEKQsW6fIhWHLVpuV-12" source="Xd-OEKQsW6fIhWHLVpuV-52" target="Xd-OEKQsW6fIhWHLVpuV-59">
          <mxGeometry relative="1" as="geometry">
            <mxPoint x="1244" y="820" as="targetPoint" />
            <Array as="points">
              <mxPoint x="1265" y="130" />
              <mxPoint x="1140" y="130" />
              <mxPoint x="1140" y="820" />
            </Array>
          </mxGeometry>
        </mxCell>
        <mxCell id="Xd-OEKQsW6fIhWHLVpuV-47" value="не прошел" style="text;html=1;align=center;verticalAlign=middle;resizable=0;points=[];autosize=1;strokeColor=none;fillColor=none;" vertex="1" parent="WIyWlLk6GJQsqaUBKTNV-1">
          <mxGeometry x="-500" y="1938" width="80" height="30" as="geometry" />
        </mxCell>
        <mxCell id="Xd-OEKQsW6fIhWHLVpuV-67" value="" style="shape=image;verticalLabelPosition=bottom;labelBackgroundColor=default;verticalAlign=top;aspect=fixed;imageAspect=0;image=data:image/png,iVBORw0KGgoAAAANSUhEUgAABFcAAAMqCAIAAADIJzk7AAAAKnRFWHRjb3B5bGVmdABHZW5lcmF0ZWQgYnkgaHR0cHM6Ly9wbGFudHVtbC5jb212zsofAAADCGlUWHRwbGFudHVtbAABAAAAeJyVVV1PE1EQfb+/YsITPECUoNE+GFTQBGkkIrwv7ZVsbO82u1sMb6VVwGjAN40xEOMfWAql1ZbtX7j3Hzkzd9su/YDQ9Cu9M2fOOTNzuxiEjh+WiwXh5ELPB/1Tt3VLN/SVqYoSHrk5t+SoEKb0b90ye6aKZx0dTYETwPpuEMriUNgpAkQcdokgX/RfMIe6bY50k3PWnN2iVOFQ0jd9gagtfWVrmApDxKYCuot4sfmsIwz5p1sM8jRfdNVI3VhfmIo5xvcDhOrFPvdU6LO4YCjjF8nE1wUybZgKR2cd5WxLX4i0EbNPEqkZ0N+RSBf5xWYPMDsCTI+Zcw2pXiXfv47wFhYB0linhKPrVBxDxkNhplMIgW0dwI3ERgLwMaiRpo+VfuDnR/KTemf20eVj0DFwgRjjOr1igE9TM3tUDZlhnPkkZCGQYxhY7+7AgvRSCmFfsvl4BrqOU3JmW07GURNr+hxZHJFK+rUmpMpP7oltfTVx8hKT+thnbDGNlbU64u/HqW4kAzm2td2EcMzdtEz63UiG3NrVxdKHVJYdSDCvNftPP8puRQ+SMG6x7e7yruPxuhAFgmA5HSzQB4kn4ODoDTrfU4vuVLH9bQ6/Se8Jx0W6iQ2GgYO6cbvYut19ZMMDkXaf54D1UG5qt3s+6XNmSCJoSNl0vFPsxDZ5eCNzIFKZaYdusJqmtIvHbaubbe4TuXY9cLKdBpvaHSGWvg6GDJjcpOYINq5rh5nGPKq0rdWh8R5CH51xItVEbfWJ63WCFwbVS/ykenX2NErVSS5O23i8gBumyqTH8EP1i9hH+tMRawW8izeyq7Aj/cD1FNyfm783vzD3eEuGzoPpDfVeeR8U5LxiyS1ICN2inBHTL9dWIfDKfk5C3g1C390qh5g8I1acHQfelBXFZeB1SaqVpVe9H2BZ7bi+p/j/Z2UzOwh4uDD7zA1hXfpIAzazYkm+c8q46Msq5+VdtZ2BjbcvZh+JVUdtl1FnBqTCGUJcfxfP1sV/TrAXwmRZ2/0AAIAASURBVHhe7N0JfA7X/j/wIEhiL2mSJhJbRKQlsRdVSy9qa7nXfm/LRauWq62frdYKtbe1FNWGqpQqLbppG5GkWoQqoQiCeMhijV1EZP7f/3Nuzh2zJU8m8Zwnz+f9mldf85yZOXPmzJnJfPosXCQAAAAAAABn4qIsAAAAAAAAKNaQggAAAAAAwLkgBQEAAAAAgHNBCgIAAAAAAOciUAo6derUkiVL58yZN3v2XJo++GDxiRMnlSsBAAAAAACYI0QKSk1NfffdmatWfXbs2HmL5TqbaP6jjyImT552/vwF5QYAAAAAAAAFZf8UdOjQoXffDT9z5jLPP/Lp9OlLEydO27fvgHIzAAAAAACAArFzCrK+CxSuDj+KiYLQuXPnlRsDAAAAAADYzs4paObMmcnJV9SxRzGdPn1pwoQpyo0BAAAAAABsZ88UdPLkyc8+i1RnHs1p+fI1hw8fU1YBAAAAAABgI3umoOXLlyclpakDj+Z07Nj5hQsXK6sAAAAAAACwkT1T0MKFCy9cuKEOPHrT9OmzlVUAAAAAAADYyJ4paMGCheqoYzBNm4YUBAAAAAAAZtkzBeG9IAAAAAAAePzsmYLwvSAAAAAAAHj87JmC8BtxAAAAAADw+NkzBUn494IAAAAAAOCxs3MKSk1NfffdcHXsUUwTJ047d+68cmMAAAAAAADb2TkFkUOHDlEQOnPmsjr8WKzvAlEE2rfvgHIzAAAAAACAArF/CpL++47QzFWrPjt27DzPPzT/0UcRkydPO3/+gnIDAAAAAACAghIiBTGnTp1asmTpnDnz/vnPV2bPnvvBB4tPnDipXAkAAAAAAMAcgVIQt3DhQmURAAAAAABAIUEKAgAAAAAA54IUBAAAAAAAzgUpCAAAAAAAnAtSEAAAAAAAOBekIAAAAAAAcC5IQQAAAAAA4FweawrauHHjwnzo1auXskgL1abcAQAAAAAAQF4eawrKp4V4LwgAAAAAAIoMUhAAAAAAADgXpCAAAAAAAHAuSEEAAAAAAOBckIIAAAAAAMC5IAUBAAAAAIBzQQoCAAAAAADnghQEAAAAAADOBSkIAAAAAACcC1IQAAAAAAA4F6QgAAAAAABwLkhBAAAAAADgXJCCAAAAAADAuSAFAQAAAACAc0EKAgAAAAAA54IUBAAAAAAAzgUpCAAAAAAAnAtSEAAAAAAAOBfhUtDdu3f79etH/1UuAAAAAAAAKAxipaCHDx9OnTr16NGj9F+aVy4GAAAAAAAwTawUtHDhwpMnT9IM/RefiwPIvx07YqZNmzV1avGcpk+fFRPzq/KYHdaNGzfmzFkwffp76iPFJOBEZ2ru3AV01pQn8lFRUTHqbTFhKoqJxuR7782/fj2PMeko6EDocHBLzP9EfTV79rxr164ru/JRsbG/Tp8+W725c07WB4k4RRcJlILWrl37+++/85c0TyWy5QCgbfPmbz77bKPFcr0YT+vWbdq4caPyyB3T/PmLjh61qI8Rk7ATna+FC99XnkiZTZu+LvbXICahJhqT8+YVk/9ZTAeCW6KtE/XYe+8tUHalzJYtWyIjN6k3dObp88+/UjxIiJKCfvrpp6+//lpRSCVUrigEAIX33punvtqL3/Tee3OUR+6YwsPnqI8Ok+DTrFlzlSdSxkmuQUxCTe+++55yIDomOhD10WHKc5o+fbayK2UWLFig3gTT7NmPXDVCpKBDhw4tX75cWWpF5bRUWQoAMk7yBEb3dOWROyakIEecjFPQ7Nlz1ZtgwlSkE1KQk0/TpiEF2TzNmzdf3kv2T0Hnz58PDw9XlsrQUlpHWQoAuZCCHAtSkCNOSEGYRJuQgpx8QgoqwCRWCrpx48Y777yTlZWlXCBDS2mdPL+ZCuC0kIIcC1KQI05IQZhEm5CCnHxCCirAJFAKyn+8yU9YAnBaSEGOBSnIESekIEyiTUhBTj4hBRVgEigF2fRRtzw/OAfgtJCCHAtSkCNOSEGYRJuQgpx8QgoqwCRKCirAzx4Y/IgCgDNDCnIsSEGOOCEFYRJtQgpy8gkpqACTECmowD+BrfmD2gBOLs8UdPr0pU2bfvzww48//3zzvn3H1Ss4xFTsU9Du3Ye//z5GPZ06la5e2dGn5cvXfPXVDzQTG/vH3LmL1SuINplMQefOZdCp3LPniHoRJkwFm4p9CnKqW2IBpgKnINaxBw6ckBcmJJyhwri4A+r1i9Nk/xRk8p9DVfzjqgBgnIIiIjZ4eXmXL18+LKxJvXr1XV1Ld+36Mj2TqdcUfCr2Kegf/+hfsmRJDxk3NzcXF5eYmH3qlR192ro16qmnfHv16uvvX2PNmi/VK4g2mUxBX3yxhU5l7dp11YswYSrYVOxTkFPdEgswFTgFUcdSN3bo0Fle2K/fv6jw+ec7qNcvTpOdU9DJkycXLjT7rx1TDVSPshTAWRmkoK+++qFUqVJDh47g//Ns377jL7/c+8yZK+qVBZ+cIQW1aNFKXvL11z8V4z/5e/ce/eyzjbt2HVQvEnAymYJ69Pj7s8+2potxy5af1UsxYSrA5AwpyKluibZOZlJQYGC90qXLHDx4ipWcOJFWvnz5oKBgpKAidOnSpalTpz58+FC5wEZUA9VDtSkXADglgxQUFtYkJKSB5js/48ZNWb58DZtPSrrYu/eA118fzZeuXbvphRc6BweHtGzZZvbsRVQyf/7S7t17Kaa3357E1qfH2fbtO4WEPNO168s//hgn3wuttnNnPC+ZPn0OlWzf/it7SX/V6I4cGtq4cePmr7026q+/zvE1FRNSEE1ffvmdvP//859xfE11NxqfMovWWUtOvjZixFszZ85nK3z/fUzfvv9k88eOnaf5deu+Zi/pzC5d+imvivL2oEGvaS5i05o1X77xxpt8BYOxJ5/kVcXE7Kf2nzlzmb2cOHH64sWr2Lxet0yZMmvhwo/Y/Dff/NSlSw862A4dOm/c+D3fBXVIs2bP1qtXn/78r1z5OS9XTGZSEJ2OsmXdPv98M+2if/9X5IvYQfGJ97Ylr2vHoA8NTo3xhhbVhW88hKiqJUs+mTFjLt1naODxrtYcjZa8BiRtTkGxfv2ne/Xq9+uvf8obrLkXxcS6Sz7Jj1pvhBjvNz9jT+9g5RvyiZ9f+VmIjt770kv/2L59l3qR+gTJJ6Qgi/7p0+t5S14j6uOP19HI6dHj72xDqifPCmnXP/30G5uns0lL+Y70TmWhDAAzKYjuRa1aPT916mxW8sEHK+lRoWfPPvIUpP4DwSbjO4zeVnodmP8/OnqVG59QxWTPFLRmzZq7d+8qSwuE6qHalKUATkkvBSUknClRogTdGtSLaKI74OjR/8fm33prIq1Zt2499nLevCWurqVHjRq7fv1Wutmxh1e6Ny1bFkETPUTS7ZLNf/nltxbr36Fy5cpNmjRjw4ZtVJWbm9vPP//O9+Lh4TFgwCD2kh4RKleuUqpUKf4hqGnT3qNH1S++2PLpp+ubNGlBz6PyRsonpCCL9dQ88URV1vn0h5Nu+qxcsxsNTplF/6zRk0S1ak+Gh///v6CffPJFhQoVaebkyXSqk/ZIf7HY5nRmeaqhadGi5b6+1TUXsWny5HB6UuEr6I09xSSvivUGf1eT/lrTQyeb1+uWjh27vPrqMJrZvHk7e1M0MvIb+q+rq+uWLb+wdShafPTRaiqnltA627btULSBTWZS0KxZC5980vvs2at0NZUvX/7EiTS+iB3Uhx+upJYPGfIG6202GV87Bn1ocGqMN1Rf+MZDiKry9PTq0uUlCng0kGhbehax6IxGi+GAfPfduTQC6VxQVX/724t0Ng8fPmu8F8VEq9GGrE6a/vnPf8uPWm+EGO83P2NP72DlG6rPLz8LlHLpcqPj4psYnCDFhBRkcPr0et5iOKLovufu7s6e8mlbqoHqybPCMmXKUlVsfuPG72k1viO9U1koA8BkCvrww4/r1avPSihJUmfKU5DeHwiL4R3GYCuDDsznHx29yg1OqHqyZwoCgKKgl4K2b99FN53Vq/+bNxQTv9X+/nsCPWz17j2A3WrPnLlMD1vydwwUE/35b9++E3955syVqlWrvfvu/9pAVdGdi83TXuhlpUqV2f8ipUdhekl/MzS/CnLo0GmDTzsgBdE0e/aigICabH7ixOn8YU4+qbtRccoseZ21n376jcbA4sWr2B8kWpk2p4n/v3CL4R9CxSI2aaYgxdhTT/l8EtXrFp6CWrZs06VLD17tiy92f+65dvwlmyileHl5r1jxmaKcTWZSUIMGYez/5lLjqT8/+GAlX0QZgA6KdezKlWsVz2oG145BHxqcGoMNjS989RBiVfn71+DPKMOH/0f9xSf1aFTXRgOMDpMOkL+kBo8ZM569zM9e2GoGR605QvLcb37GnnxSH6ze+WVnISZmPz29jR8/VV6J3glST06egoxPn17PWwxHFN0l/v73fmyeTrc8BRlUSM2gEjavmYLUp7JQBoDJFEQxo3z5Ctu3/0o7ohsLjV6egoz/QOhda8ZbGXSgJR9/dAwqNzih6gkpCKC40UtBP//8O9109D7kw2+1HTp0/uc//z1z5nx2q/3ll920Ff//N+pJ8QQTFbWH1qca3npr4ptvTqA/Qm3atA8ODuF7odtlr159p06dTTep6tUDfvwxTp6CDh5MGjny7ZYtn6tXrz41oESJEmvXblLv1IIUZJ3oT35QUDCblz/uG3ej+hHW+KzR9MorQ11dXfv3f4X+TL78cm9amX9gg010Zhs1akonl03t23eUpyC2iKqdP3/pkSPJFp0UpBh76imfT6J63UIpiGoeOHBw2bJu8+Yt4dXOnbv4iSeq8pdLlnxCR/r00w0HDBgkT3ryqcApiHU1XVbs5YABr8rPMv3Jd3UtzebVz2oG145BHxqcGoMNjS989RBiVck/4PfFF1to4NGjlfFoVNf2669/0q6po3hJ377/5F/d1tuLvEK2muaTGZs0R0ie+83P2DM+WL3zS5V37fryk096+/r6KYac3glST06egoxPn17PWwxHFAUSujN8+OFK2hF7aucpyKBC2imNqA0btm3dGjVr1kIXVQpSn8pCGQAmU5DF+osIgwcPpz8BnTt3o5c8BRn/gdC7wxhvZdCBbDL+o2NQucEJVU9IQQDFjV4KOn48pVSpUhMmTFMvsuTeaumJin2KgN9qv/tuJ91r5B+wVkyKJ5hvv42m9YcP/w89W/CJfZWI7YXukrROQEBNugk2btzcYv38AE9BDRs2ontoZOQ39BC2c2c83SVpNfVOLUhB1mnYsJGtW7dl8/LHfeNuVD/CGp81etp2d3efPn1O6dJlaDWKB/S3h/7snT17lddAZ5Zay7ft0uUleQpii95+e1KTJi08Pb0OHDihTkHqsaee8vkkqtctlIKaNm1BB0JDTv4ZicWLV7m5ufGX9LhDzevWrSeNUr2RX+AUNGTIG3QZUj+wqWbN2vQXmv8mxLRp7/n712Dz6mc1g2vHoA8NTo3BhsYXvnoIsaroEYq/3LLlZ6ohIeGM8WhU1/bTT7/Rhr/9doiXDBr0GuUK473IK2SrGaQgzRGS537zM/aMD1bv/FLlVCHVX6dO0IgRb/H12SLNE6SenDwFGZ8+vZ63GI4ousXRbZAu2Nq169IV5yJLQQYVUhKmJ3i6umlc0Ql1eTQFaZ7KQhkA5lMQHR3tha6UiIgNFlkKMv4DoXeHMd7KoAMt+fijY1C5wQlVT4Wcgs6ePZuYmCgvuXTp0v79+69cuSIvBICio5eCaKJHDV9fv6Ski/JC9pJuHPSHnO5K7P+R81vtkSPJJUuW5N/OVE+KJxi6TdP6Bu84sSeJ0NDG1ao9uWxZhEX2JEcPx3S3io39g61MM/QSKYhP6hREK/BvyvKHuTy7Uf0Ia3DWTp++VK9e/bFj37FYP3Zftqwb/Y2n579atepMmvQuX83goVO+iGqj0/3hhx8rUpDm2FNP+XwS1ewWi+wTcbRr+aPGG2+M4e8MyCeq89///t9fU/lUsBR05szlqlWr9e37T+ofPvn5+fNv53fu3I1/YkT9rGZw7Rj0ocGpMdjQ+MJXDyFWFU385dy5H1L78xyN6tqOHbtAyfDTT9fzkubNW/L/uau5F3ltfDWDo9YcIXnuN8+xl+fB6p1fqpyeOC3Whz+6xDZv3s430TtB6snJU5Dx6dPreUteI2rChGl0rztxIk3xiTiDCuWT4hNxeqeyUAaA+RREU82atatW9WQ/G8tTkMEfCIv+tWa8lUEH5uePjkHlxidUMRVyCnr11Veff/55/jI5OTkgIKB9+/aF9SsIAJAngxREf5XpdtC+fUf2S1N0p/viiy0hIQ1ohu4aFStWoqcB9gty8lvtyy/3DgiouWPHXrYJ/zPAJvXzUK9e/eiWzT9LQ/tav34rm+e3y02bfhw1aix7658/ydFfGlfX0u+9977F+mswbdq0p79qSEF8kv/JP3rUQk9vrq6u/MeI+MNcnt2oPmUW/bM2evT/sRFikX1R1WL9H2zu7u78J8v0/hDKF9HfNvqjRYdAZ1+RgvTGnmLK80nUoFssshQ0Y8bcSpUqs98U+uGHWNo7+3w51cbf/diz54ivrx//moFiKlgK+vjjdfSXW/FPFb/55oSnnvJNTr5GR0QnLjLyG1auflYzuHYM+tDg1BhvaHDhaw4hqqpUqVJspO3de5S2HTZsZJ6jUbM2ejyi4cH+GcfFi1fRJt9+G22wF/m2fDXNozYeIcb7NR57lrwuPYPz2yr3U08W62M3NZU254v0TpBicvIUZNE/fQY9bzEcUdu376K73Hff7bQ8+r0g4wrlkyIF6Z3KQhkAhZKC6MbCP5In/3UEvT8QFv1rzWAr4w7M5x8dvcoNTqh6KsIUdP78+Vq1arVp0+bOnTuPrAQARckgBdFEzzR0j6BHsbJl3ehO4enpxX6OhhXSEyFbTX6rPXbsQrduPekvyhNPVC1dugz/pDWb1E8wiYmpffoMpOeMypWreHh40H/nzPmALVLcLtkk/0Qc7Zd2Qa0qV67c1KmzaXOkID7J/+RPmvRuaGjjzz7byJfKH+aMu1F9yiw6Z419LIH/mZH/QbJYP1bUsGEj9hEFgz+Erawf9iD0Z4/+IE2f/v+PV5GC9MaeYuJVaaLjMu4WnoLo72vfvv+kndJh0n/793+F/cVNSDhTvnyFqlU9qfHU2u7de/EnXcVUsBRE107Llm0UhewdA2qn8nis6Fyw1YyvHYM+NDg1xhsaXPiaQ4iq6tfvX08/3ZDWpzpbtnyOPckZj0bN2g4ePEWDnyqh5z/2wZg896KY9I7aeIQY71d5bh7FgpDewdLzmXIDK3Z+W8kegikPN23agp7w+H71TpBiQgrSPH3GPW/RH1FJSReDgoLZOxIWWQrKs0L5pEhBeqeyUAZAoaQg+SRPQZp/INgivWtNbyvjDsz/Hx3Nyll7NE+o5lRUKSglJSUwMLBVq1a3bt2Sr7Bz586+MlOmTGHls2bN2rhxI5vPzMwcNGjQ//3f//Gtvv/++65du4aGhvbu3fvAgQO8nLZav349fxkbGztq1Cia+fTTT+V7Yd59912+JkAxZpyC2HTkSPIvv+z+449E9SK9iR4Q6cbE/jdbfiZ6hKJd7NlzRP7tkfxMR49aoqL2GNy22FTsU5DJKZ/dqJgKfNYccaIh/dNPv/Hf0mUTHfivv/65Y8de6kD1JnwqWAoymOjJoJXsUxxs+uuvc5qPVo9zyv+Fzx+G4uIOyL+eYSnoaIyPP0ajUf5L4hbDvRTWpLlf44lSPUtBFp2DfQznt9inoHxOitOXZ8/bOqLyrNBeU4FTUP6ngv2BUGxVuB2obpJNJ7RIUlB6enpQUFBYWNjNmzcVK3zyySfVqlXbYNW/f//mzZuz8g4dOkyePJnNz5gxo0SJEiEhIezl6tWry5cvP3fu3B07dkyfPp0yYkJCAt9qwoQJbF6y/gNEAQEBNLN//362i27dulEz2Hx0dDRfE6AYy08KKgYTUhAmO06FnoK++uqHjh27KArpedrb20e9spiT4n8JF9H0ePZi6zRz5nz5P72qnh7D+UUK0pzy7HlbR1SeFdpregwpqFCmou5Am05o4aegZ555hgJMhQoVnnrqqWvXrilWWL58ee3atdn8nDlz1CnozJkz5cqVGzRoEEtBDx488PT0XLJkSW4FEi2i+MS30kxB3NixY7t27SovASj2kIIcC1KQI06FnoKKwdS168vjxk1Rlxfu9Hj24ogTUlDBpmIzohwlBRX1ZNMJLfwU5OLi0rBhw5SUlODg4IEDBypWoNPw9NNPs3nNFNStW7fhw4cvXbqUpaAjR464/P/fwhs+ffr0adOmTZ06tWPHjg0aNOBbtWjRYkKuLl26IAUBIAU5FqQgR5yQgjCJNiEFOfmEFFSAqfBTkL+//+XLl2k+Pj6+VKlSW7Zska/w9ttvv/DCC2xenYK+++67atWqXb16lacgqoRS0Lhx4+bILF++nG/1/PPP8/J//OMfSEEASEGOBSnIESekIEyiTUhBTj4hBRVgKvwUJP+l7IkTJ3p5ecn/sSBayn/2YM6jKYgSS61atT755BN6yVMQJaKSJUtu3rw5t4JH4BNxAGpIQY4FKcgRJ6QgTKJNSEFOPiEFFWAq2hR0//79p59+uk+fPjR//fp1ij2urq6HDh1iSxUpqHLlyvQyJydHkqUg8q9//YvSEf9FhGPHjkVFRfGtkIIAFJCCHAtSkCNOSEGYRJuQgpx8QgoqwFS0KYj88ccflHy++uqrefPmNWvW7Pvvv+eLFCmoZMmStDJ7KU9Bt2/fHjx4MFXyxBNPlCtXjv67cuVKvhVSEIDCe+85xRPY/PlIQZjsNiEFYRJtQgpy8sk4BdFfTPUmmAo5BRWdmzdvHj58ODk5OTs7W7kMAGSWL1/5xx95/+MeDj39+efJVatWKY/cMVEKYv8oOCZHmeh8zZ49R3kiZT76qPhfg5iEmmhMFpsUNHPme7gl2jpRj02fPkvZlTL0F/PgwZPqDZ15OnDgxMcffyzvJXFTEADk0/37999+e3wxfgijO9f48RPpMJVH7ph+/fXXyMhN6sPEJOwUGbn51193KU+kTLG/BjGJNn3++Vexsb8qB6JjogOhw1EfIyaDae3ar3bujFN2pQzdlOjvZn7++WMnmej+PG7cBMWDBFIQQHGQlZW1fPmKuXPnF8tpxYqVdIDKY3Zkmzd/PW+e8jAxiTmFh8/euHGj8hSqFO9rEJNQE43JL7/8UjkEHdnmzZtxS8z/FB4+Kz8DgG5K9NdTvblzTpoPEiKmoN9//11ZBAAiwUUKmjAwwFYYMyAyjE/zRO5DEVPQwoULlUUAIBJcpKAJAwNshTEDIsP4NE/kPkQKAgCb4SIFTRgYYCuMGRAZxqd5IvchUhAA2AwXKWjCwABbYcyAyDA+zRO5D5GCAMBmuEhBEwYG2ApjBkSG8WmeyH0oYgoS+XtUACDhIgUdGBhgK4wZEBnGp3ki96GIKQgAAAAAAKDoIAUBAAAAAIBzQQoCAAAAAADnghQEAAAAAADORcQUJPL3qABAwkUKOjAwwFYYMyAyjE/zRO5DEVOQyL+pBwASLlLQgYEBtsKYAZFhfJonch8iBQGAzXCRgiYMDLAVxgyIDOPTPJH7ECkIAGyGixQ0YWCArTBmQGQYn+aJ3IdIQQBgM1ykoAkDA2yFMQMiw/g0T+Q+FDEFifw9KgCQcJGCDgwMsBXGDIgM49M8kftQxBSk5+HDh1u3bh0/fvyrr746ZsyYr7/+mkqUKwEAAAAAABhypBR069atmjVrjh07dtGiRe+88w7Nd+3aNScnR7keAAAAAACAPkdKQUSeeU6fPu3i4nL06FH2Mjk5OTY2ll7K3yC6ePHi+Ufdu3ePL7pz586VK1diYmJoW74JuX///sGDBw8dOpSVlSUvp5pPnjxJe6F65OUMq5C/TEtL4/uSdJqncPv2bXlT5bXls0nXrl2T18DQJhkZGVevXpVvmJKSQs3Ls3/4+vLDMdkYSVW5JoO20eHIy6k9rFyzYfJ9UZNu3LjB5ilUX758ma8m6Z8jvfNCNd+9e5evc+HCBUVhZmYmrU//ZS8BAAAAQBAOloLk6GG3VKlS560P3IMGDapZs2b79u1r1KjRpEkT/sTfsGFDPz+/kFxlypTZsmULXzRw4EBav3Xr1u7u7vPnz2fl+/fv9/f3p6W0fu3atQ8fPszKT5w4ERoaGhAQ0K5dO29v761bt7JyjjZZt24df0nb8n3pNU9h6dKlHh4erKlubm5r1qxh5flv0uTJk9nmdET8wBMTE6lhtCHPkAkJCaVLl6bndeP+0Twc841RV67JoG0jR46sUqUKKy9ZsuSuXbsk/YbJ90VnfMKECWx+wYIFnTp1YvOS4TnSOy9U84YNGyRrpKxTp87s2bPlhWTYsGEU1KOiov5bEQAAAACIQcQUZPw9qu++++7111/v06dPYGDgZ599xgpZFpKsb0f06tVr0qRJ7KXeozxbRC+vXbtG83FxcZQKTp8+nZ2dHRwcPH78eLbO8OHDGzVqlGPVtGnTIUOGsHcJaLXr16/n1vpfBvvSa57C4sWL27Zty+YbN27MnrYL1qTmzZvLG5OZmVmtWjX+OD5ixAjqQMmwzZqLCqUxkqpyTZoNYPNvvPEG7ZrNV6pUiVKQXsOkfKcgg3OkeV6k3MCTmppat27dmTNnygtpZt++fV5eXpTWimUKMr5IwWlhYICtMGZAZBif5onchyKmIOPf1KNH3jlz5owdO7ZWrVr/+te/2GM3Pe/u2LGDnlbDw8N79OjBn24NnqRp0axZs/gierpdtmxZYmKii4vLpUuXWCH70J3FYklKSqIZet7l66tRhfQovD+Xn58f35de8xTouPgi/rRdsCapg8e4ceN69+5NM3fu3KHkEB0dLeXVP+rDKazG8MqpQr0PjBm0bfDgwWPGjGHzLAXpNUzKdwoyOEea50Wy1vzhhx/Wq1dv6NChfGWWgmhYNmnSJCIiwtfXt1imIOOLFJwWBgbYCmMGRIbxaZ7Ifeh4KYi7cuVKhQoVNm3aRPPdu3cPCwubMWPGkiVLBgwYQI/dbB2DJ2la9Omnn/JF3bp1mzJlSmxsrKurKy+8d+8ePUzHx8fHxcXJyzVRhQ0aNOiUy8PDg+9Lr3kKo0aNeuWVV9g8f9ouWJPUwYOCQdmyZS9evLh69erAwED1+ySSqn/Uh1NYjeGVN2vWrGrVquqPF7J19NpG/cnfe2EpSK9hUr5TkME50jwvkrXmMmXKdO3alaIOe1ORFVIKWrFixbPPPkudjBQETgUDA2yFMQMiw/g0T+Q+dOAUJFmfjBctWkTP9yVLlrx58yYrnDp1aj5TEK3JFz3zzDMrV65k72mkpKSwwuPHj7OXycnJNKP4EQUFvX0ZNE+hadOm77//PpvnT9sFa5I6eJDOnTvPmzevRYsWFABYiV6b9RYVVmPklc+aNSs0NFS+lNFsAJ9n6VfKTUF6DZPyl4KMz5HmeZGsNVNAkqzVsvfZWOHSpUs9PT0PHjxIL5GCwKlgYICtMGZAZBif5onch46UglJTU1etWsV+oSs7O3vFihWurq4JCQnnzp2jR94jR45Q+alTp7y8vPKZgugJlf2uFxW6ubnRQ3NOTg495r7++us0Q7vo27fvc889x9Zv27Ztr1692M9/0eOy+tNfevsyaJ5cdHR0mTJl+LdT+NN2wZqkDh5k27Zt1apVK1u2LP9tNL026y0qrMbwyrOysoYOHcorkdNswL1792h4VKlShX/viKUgg4blJwUZnCO98yJZa2ZfAaLG+Pv7r127lhX6+PiwdCQhBYGTwcAAW2HMgMgwPs0TuQ9FTEF636O6ePEi+00w9ihP899++y1bNHbsWHd39+Dg4Dp16rz55pv5TEEjR44MCAigTTw8PCIiIlj5sWPHGjRo8OSTT1atWpUeeZOSkli5xWJp165d+fLl69atS0/hv/zyCyvnDPal1zyO8klJq0q5SpUqRZt8//33UoGapA4ekjU6+vn59e/fn5cYtFlvUaE0hiqnPqfDrFy5MsUV/ntuinXUDZg5c2arVq12797Ny1kKkvQbxvdFSpcuTSOHzVPupRT92muvsdU0z5HxeeEpiMTExNCxnD17lgqpDTykFdcUpHeRgpPDwABbYcyAyDA+zRO5D0VMQcbu3Llz4sQJSkSK8kuXLlE5PegryvWwh+zMzEx6eub/hgyXmpqalpamKJSs/1JNYmJinv/WjZpx8zZt2jRkyBBF4auvvsoziVQYTbp161bFihXj4uKUC2xnvjFFRK9hmrZv3z5w4ED+Un2O8nNeipP09PTIyEg6icoFAAAAAMWL46WgwqJ4q8G+oqOjw8PDFYUzZsyIjY1VFBZYVFQUPfGr34ZyZrt375Z/N0ztMZwX0VCfBAcH9+vXb8+ePcplAAAAAMWF86ag0aNHx8TEKEuLr549ew4ZMuTs2bPKBQCPoiBUo0YNHx+fkJCQBQsW4K0hAAAAKH6cNwUBgB72jlDt2rUpC/n5+VGExltDAAAAUJyImIJE/h4VgJNgQSgoKMjbirKQ/K0hXKSgCQMDbIUxAyLD+DRP5D4UMQWxpy4AEFCtWrV27twp8g9fgh1hYICtMGZAZBif5onchyKmIJH7C8BJ7N69OygoKCAggIWfmjVrhoaGLl++nL0XhIsUNGFggK0wZkBkGJ/midyHSEEAoMQiUHUrf3//f/3rX/Hx8fIVcJGCJgwMsBXGDIgM49M8kfsQKQgAHkERKCAgwMfHR/7mjwIuUtCEgQG2wpgBkWF8midyH4qYgkT+HhVA8cZ+FGHQoEGKN38UcJGCJgwMsBXGDIgM49M8kftQxBQEAHaRnp4eGRmp+eYPAAAAQHGCFAQAAAAAAM4FKQgAAAAAAJwLUhAAAAAAADgXEVOQyN+jAgAJFynowMAAW2HMgMgwPs0TuQ9FTEEi/6YeAEi4SEEHBgbYCmMGRIbxaZ7IfYgUBAA2w0UKmjAwwFYYMyAyjE/zRO5DpCAAsBkuUtCEgQG2wpgBkWF8midyHyIFAYDNcJGCJgwMsBXGDIgM49M8kftQxBQk8veoAEAyvEjXr18frhIXF6dcD4ojg4EBoAljBkSG8WmeyH0oYgoCAMfVqVOnkJCQITKenp7Tp09XrgcAAABgP0hBAFCYKAWNGTNGXtK8eXOegi5evHjnzp0rV67ExMQkJyfLV7t///7BgwcPHTqUlZXFC2n98+fPX7hw4ebNm7J1pezs7AMHDuzZs+fWrVu80KByWnT37l02f/v2baqQL6I1Y2Njjx49+vDhQ16oQJucl6G98EWazSZU28mTJ6lmWp9eXrt2TV4Dc+nSpatXr8q3SklJuXfvnpR74HKsnC2SNyAtLY0vMtMYtom8ozIzM6mc/iuvCgAAoHhACgKAwmScgho2bDhw4MAaNWq0bt3a3d19/vz5rHz//v3+/v60NCQkpHbt2ocPH+br+/n5UWG5cuVo/uzZs1SYmJgYGBhYr149qsTT03P79u3GlbNFGzZskKwxo06dOrNnz2blgwYNqlmzZvv27WmrJk2aKDIJt3TpUg8PjxArNze3NWvWsHK9Zp84cSI0NDQgIKBdu3be3t5bt26dPHky25waxo6IUAtpq5ycHLZVQkJC6dKlKYdIsgNnypQps2XLFrYaLVq3bh2bJ1QDW2SyMdSrrHLWUWTYsGEuLi5RUVG5uwIAACg+kIIAoDDlmYLoAf3atWs0HxcXRw/9p0+fzs7ODg4OHj9+PFtn+PDhjRo1YtmAP5Q/ePCgbdu206ZNo/IWLVpMnTqVrbxt2zYvLy/23ohm5Ww1Vk9qamrdunVnzpzJCsl563sjkvXdkl69ek2aNIkvklu8eDHtnc03btyYpSC9ZpOmTZsOGTKEvblEq12/fv2/FVl7g2eYzMzMatWq8ZgxYsSIPn36sHm9qKO3yHxjGN7h+/bto46tUqUKUhAAABRLIqYgkb9HBQCS4UWaZwqaNWsWX0SJYtmyZYmJiS4uLpcuXWKFFF3opcViYevPnj17//79W7duDQgI+OGHH86cOUNLKeQczFWpUqW9e/fqVc7madGHH35Yr169oUOH8hUIhYQdO3ZQyAkPD+/Rowc1Xr6UmzNnDl/EU5Bes5OSkmiGElfu1o9QBI9x48b17t2bZijI0YFER0ezcs2owxdRkNufy8/PjxYVSmOk3BREkalJkyYRERG+vr42pSCDgQGgCWMGRIbxaZ7IfShiChL5N/UAQDK8SPNMQZ9++ilf1K1btylTpsTGxrq6uvLCe/fu0YN7fHw8W59Qnc2aNQsLCzty5Ajln5IlS3Z61O7du/UqZ/O0qEyZMl27dqXHevZmEdO9e3eqdsaMGUuWLBkwYAA1lS+SGzVq1CuvvMLmeQrSaza1UF6uoAgeFFfKli178eLF1atXBwYG8k/HGaegBg0a8GP38PCgRYXSGCk3Ba1YseLZZ5+lxtiaggwGBoAmjBkQGcaneSL3IVIQANjM4CLtlFcK4h9mI88888zKlSvZ+xUpKSms8Pjx4/wleyhn5bNmzWrRokVycjItlf+8AadZOV9ESYZmBg4cyN57kawJhAIV/90F2lYvBTVt2vT9999n8zwF6TWbtVDx8wycOnh07tx53rx5dGgLFizghcYpSL2osBpDlS9dutTT0/PgwYP0EikIihrGDIgM49M8kfsQKQgAbGZwkeaZgujBmmUYenZ3c3OjJ/WcnByKFq+//jrNZGdn9+3b97nnnuPrsxSUlZU1dOjQli1b0nz79u0pydy+fVuyfqRt586dtJVe5Yp6rl+/7u/vv3btWpo/d+4cJYQjR47Q/KlTp7y8vDRTUHR0dJkyZfg3iHgKMmh227Zte/XqxX5sjVKW/ANp6uCxbdu2atWqlS1b9vLly7xQM+oYLCqsxlDlPj4+LDFKSEFQ9DBmQGQYn+aJ3IdIQQBgM4OLNM8UNHLkyICAgDp16nh4eERERLDyY8eONWjQ4Mknn6xatSo9zSclJfH1abVKlSpVrlyZHusTEhKokJ7ju3XrVr58+aCgICoPDQ1lv/KsVzlbxN9TiomJoa3Yz82NHTvW3d09ODiYNnnzzTfVKYgiSkmrSrlKlSpFm3z//feSfrMtFku7du2ohXXr1q1Spcovv/zCK1QHDwotfn5+/fv3lxdqRh3jRYXSGKqcauC/oIAUBEUNYwZEhvFpnsh9KGIKEvl7VAAgmbhI2RN8ZmYmPbLfuHFDsZTiTVpamqJQz61bt44fPy7/ko9x5XouXbp04sQJ9m6S2qZNm4YMGaIofPXVV3kmkfSbnZGRkZiYKP+3fTTRgVSsWDEuLk65oEBMNsakAg8McFoYMyAyjE/zRO5DEVMQABRXivcxCldRVB4dHR0eHq4onDFjRmxsrKKwYKKiogYOHKh+DwoAAACKFFIQADw+o0ePjomJUZYWkiKtvIj07NlzyJAh7ON5AAAA8NggBQEAAAAAgHNBCgIAAAAAAOciYgoS+XtUAEC87U3ZIBAD7t5gK4wZEBnGp3ki96GIKUjk39QDAMneFylSkLDsOzDAEWHMgMgwPs0TuQ+RggDAZva9SJGChGXfgQGOCGMGRIbxaZ7IfYgUBAA2s+9FihQkLPsODHBEGDMgMoxP80TuQ6QgALCZfS9SpCBh2XdggCPCmAGRYXyaJ3IfipiCRP4eFQBI9r5IkYKEZd+BAY4IYwZEhvFpnsh9KGIKAgAwgBQEAAAAJiEFAYCDQQoCAAAAk5CCAKDwZWRkREZGpqenKxcUBqQgAAAAMAkpCAAKU3x8/IgRI4KCgnbv3q1cVkiQggAAAMAkEVOQyN+jAgBJ6yLNyMhYtWpVy5Ytn3rqKV9f359++kmxQiFCChKWemAAGMOYAZFhfJonch+KmIJE/k09AJAevUjZmz+1atUKCwujCOTn51ekEUhCChIY7t5gK4wZEBnGp3ki9yFSEADYjC5S/uZPSEhI3bp1va0eQwSSkIIEhrs32ApjBkSG8WmeyH2IFAQANhs5ciSLPfaibBCIAXdvsBXGDIgM49M8kfsQKQgAbMbfC2ratGndunWrV6/OwgnNxMTEKNcGp4G7N9gKYwZEhvFpnsh9KGIKEvl7VAAgPXqRxsfHv/baazVq1GCfi0MQcma4e4OtMGZAZBif5onchyKmIABwOPytIR8fH19fXwQhAAAAEBlSEAAUJvbWUN26dYvu3wsCAAAAMAkpCAAKX0ZGRmRkZHp6unIBAAAAgACQggAAAAAAwLmImIJE/h4VAEi4SEEHBgbYCmMGRIbxaZ7IfShiChL5N/UAQMJFCjowMMBWGDMgMoxP80TuQ6QgALAZLlLQhIEBtsKYAZFhfJonch8iBQGAzXCRgiYMDLAVxgyIDOPTPJH7ECkIAGyGixQ0YWCArTBmQGQYn+aJ3IcipiCRv0cFABIuUtCBgQG2wpgBkWF8midyH4qYggAAAAAAAIqOUQo6fPjwSMf33nvvfQAATsBisSjvYgAAAABajFIQRQgXAAAHsXjxYuVdDAAAAEBL3imoW7du7zmmYcOGUftHjRq1GACKtZdffhkpCAAAAPIv7xREceKaY/r222+p/TExMcoDAwBzRPuy4wcffIAUJALRBgaID2MGRIbxaZ7IfYgUBAA2E+2HL5GCBCHawADxYcyAyDA+zRO5Dx9fCgoLC6tevfq6deto/sSJE4cOHTp9+rRypUJlawp68ODBulypqalUkp2d/UBFuRkUvfT0dH5qMjMzlYvhsRPtpoYUJAjRBgaID2MGRIbxaZ7Iffj4UpCnpyfVtnLlSprv2LEjzQ8dOlS5UqGyNQXdunWL1nd3dw8KCtq1axeVlCpVykVl//79yi2hiMXHx9NJoVND/X/58mXlYnjsRLupIQUJQrSBAeLDmAGRYXyaJ3IfFnIKoifUffv2/fDDD1u3bv3zzz/li3gKOnHixPPPP0/zAwYM+Ouvv44fPy5frRAVLAW1atWKl7AUNGLEiLFWFStWVKQgvbeJcnJyUlJSqEL5mtnZ2ZrzDx8+5Kulp6efOXPmzp07vIRRvCtF9bNyRVUPctugVw+nV6Gk1XiOqr1w4YKk2pzVwAr5ytlWkqqX+PE+yG08bSsv12s8GzZIQSIQ7aaGFCQI0QYGiA9jBkSG8WmeyH1YyCkoLCyMvWHCUKKg52m2iKegevXqydd54oknHq2j0LDfiGPv6uSHXgrij90BAQEushSUkZEhPxBy6tQpKv/888+rVavGSjp06ECxgWqg+aCgIFpKqc8ldy/UNpp/6aWXWIUsZZESJUr07t07KyuLlZNKlSr9dx9WUVFRVCiv9q233qJ5imrG9XCaFUpajWflmzZt8vX1ZeUdO3YsV67c/za2ohUGDhxIMzt27KD1Kca4WA+TNVLu73//u/Ro4ymp8nKDxiMFiUO0LzsiBQlCtIEB4sOYAZFhfJonch8Wcgr6z3/+s2zZsi1btqxZs6ZGjRq0+eTJk9kinoLmzp1bq1YtmqfIRE/tU6dOfbSOwvHGG2/QLt58803lUemzNQVdvXqVXnp5ea1bt65mzZou1hSUkJBAW1Fg+O677yZMmECFL774Yj5T0JIlSw4cOHDs2LF+/fpROfUhKycVKlRwdXWlHbVo0cLl0RQUGBjI8t706dPzrIfTrFCz8VT+119/lS5dmvLJ6tWrf/75ZzrFVPmRI0dY6P3xxx9p/saNG/Hx8fSyb9++tAmdZZqPiIhgjfTx8aF9vfPOOy55pSCDxiMFgR6kIAAAALBJIaeg8+fPf/zxx5MmTRo1alTDhg1p865du7JFj/N7QQWIQJLtKSg9PZ1e1q9fn+YbN27sYk1BCxcupJmJEydK1o+ElS1btkyZMmlpafyJXy8F5eTkLFiwoG3btlSht7c3lY8fP57tiBZRS6pWrUrzlDFcHk1BTJs2bfjKevVwehVqNv7BgweLFi2i8rfeektRDx2FS+47YEyzZs1oE2pYo0aNypcvT12ql3ZYuYeHR4cOHWhlVm7ceKQg0IMUBAAAADYpzBR08uRJPz8/2oQerykCsdhDD8ps6WNLQQWLQJLtKejPP/+kl/RoLumnoDJW+UlBa9eupfl27dp98803rOfHjBnDdpSYmEgvqUslrRRUokSJJk2a0AzVYFwPp1ehZuNtSkGRkZFUwk7Bv//9b0n/PR9WTqOCYs/w4cNZuXHjkYJAD1IQAAAA2KQwU9CKFStcrBGIHvrpZe/evV10UlCXLl1ofvDgwfLNC0WBI5BkYwo6fPhwaGgovZw5c6YkS0GHDh1SfKisc+fO7Inf29t7zZo11J8u1o+x0Tz7hFhYWFh0dDT7CFm/fv0oXDVv3twlNwBQnSxstG7dmjZp1qwZzY8bNy41NZUHjLt371KkcXd3p73r1cMZVKjZeNrkyJEj/BNxv/zyy7Jly1hV6hR0//59Ly8vFyv2SVDjFKQoN248UhDoQQoCAAAAmxRmCmLvA7i6us6YMWPSpEk046KTgtj/+69SpUqfPn3Cw8MfqcUEMxFIsjEFRUREUKp5++232df3eQqieYoWFAVdrNq1a2exWNgTv4GXXnopJSWFohHNV65cmb0/wwIA1aZc2yoqKkoeJJKSkmjD2rVrJyYmatbDGVSo2Xi21Zdffunj48PKO3bsyArVKYhMmzbNJbdVkk7a0SvX6wQGKUgcon3ZESlIEKINDBAfxgyIDOPTPJH7sDBTED2edu/enT0oN2zY0OC9oISEhBYtWpQtW5ZK2rdv/0gtBWUyAkm5KahixYrU5r179yoX2yInJ+fChQs3b95ULtDykpVk/RDa+fPn5T+cLeWGFnkJreMi+1U3Nc16uDwrNGh8Wloa/9U4PV988QXVVuAfRtRs/J9//kknhf18HFKQCAp8fosIUpAgRBsYID6MGRAZxqd5IvdhYaYg5tixYwcOHFCWFjHzEYhkZWUtyHX27Fnl4iLzhZWyNBcFgMmTJ8tLbty4QSVJSUnywvwr9ArlQkNDS5UqVaNGDc0QVWAWi4Wfmrt37yoXw2Mn2k0NKUgQog0MEB/GDIgM49M8kfuw8FPQ41coEQgKxZdffvnVV1/RSVEugOJFtJsaUpAgRBsYID6MGRAZxqd5Ivdh3ilo2LBh3wqM/VM5iEAAj5NoNzWkIEGINjBAfBgzIDKMT/NE7sO8U5D4EIEAHjPRvuyIFCQI0QYGiA9jBkSG8WmeyH1olILYbzqPGjUqRmC7du1SthsAnAxSEAAAANjEKAXhwQIAHAJuVgAAAGATpCAAcHi4WQEAAIBNkIIAwOHhZgUAAAA2ETEFifw9KgCQxLtI7XWzAgXRBgaID2MGRIbxaZ7IfShiChL5N/UAQBLvIrXXzQoURBsYID6MGRAZxqd5IvdhsUpB69evj42N5S8PHDgQHh6+Z88e2SpGsrOzaX38i58AeSrwRVpE7HWzAgXRBgaID2MGRIbxaZ7IfVisUlCnTp0mT57M5nNycho3bkztX7BgwaNr6bp37x6tf+rUKeUCAHhUgS/SImKvmxUoiDYwQHwYMyAyjE/zRO7DYpuCvvrqq6pVqwYGBvIUdPHixTt37vCV09LSKPaw+XPnzv3xxx+0lKWghISEkydP8jXJ/fv3Dx48eOjQoaysLF7IKrxy5UpMTExycrK8PDU1lb98+PDh+fPn5W8x0cqxsbFHjx6lRbzQoHm06O7du2w+MzOTaqP/8jXJ9evXz1tdvnxZXs5ptl+BGkNHTQ2jeuglNZjVKcc216zNoJF5dohmhYr2SPpNMti1XJ6rZWRkXL16VV6SkpLCz4K6PZJ1E3lj6ED4IvVBUQNonQsXLty8eZOvxsqNGyY/v7Qm1cAXUfOoXD6QHo8CX6RFxF43K1AQbWCA+DBmQGQYn+aJ3IcipqACf4+Kp6Ds7OygoKBFixY1btyYp6CGDRuuW7eOr1y7du0tW7bQzObNm8uVK9e6desXX3yRjvdvf/sbzVPJsmXL2Jr79+/39/enzUNCQmirw4cP8woHDhxYo0YNWt/d3X3+/Pm8vESJEidOnGAvqX6q9tVXX2UvBw0aVLNmzfbt29OGTZo04Y/des1jizZs2MDmhw0bRrVFRUWxl3v27KE1fX19qW3e3t7UA6xcTq/9ctTa0NDQgICAdu3aUT1bt26lngyxokPz8/Nj84mJiXq1GTTSuEM0K1S3hwr1mmSwa7k8V6P+pwbk5OSwlxSGS5cuTRFF0mkPGTlyZJUqVVhLSpYsyf8NX82Dopes2TS6aP7s2bNsZYOGqc8v5S4aOXRtshW6d+/es2dPNv84FfgiLSL2ulmBgmgDA8SHMQMiw/g0T+Q+FDEFFRhPQZ988kn16tUzMzPzTEEPHjygp1X2DEqPnnS8a9asofnY2Njy5ctfu3aNAlVwcPD48ePZVsOHD2/UqBF7UKYKqRL2nkZcXBw9MZ8+fZqVN23adPTo0WyT559/vlmzZvyh/3zuOwkPHz7s1avXpEmT2EvN5vFFrIX79u3z8vKix27+lEyZbcSIEWyejlSdggzaz9FLavCQIUPYWwq0yfXr1/nS5s2b84YZ1GbQSIMO0ayQmmHQHunRJkmGu5bLczUaMNWqVeOF1LF9+vSRDPvnjTfeoDaz+UqVKrEUpHlQVAlvAI26tm3bTps2ja1g0DDN8xsfH085ilamnE+JiHIRW8GZOdzNCgAAAOyrGKage/fu+fn5ffrpp1SiSEEzZ87cn4vWoZjx119/lSxZkp5KJdX3gry9vX/88cfExEQqvHTpEiuknEMvLRYLq3DWrFmsXLLui719ROUfffSRr6/vrVu3Dh8+TC/Hjh3LUxA9De/YsYN6NTw8vEePHjy35JmC6BG8SZMmERERVDN/Su7SpUv//v3ZB7E0U5BB+7mkpCQqlH9oTU4eOQxqM2ikQYdoVkhZwqA9kk4K0ty1XH5WGzduXO/evWnmzp07lGqio6Mlw/4ZPHjwmDFj2DxPQZoHRb1EDZg9ezaNva1btwYEBPzwww9sBYOG6Z3f999/n1ajLESJiJU4OYe7WQEAAIB9FcMURA+L9erVy87OllQpqEGDBp1yeXh4UMyIiYmpWLEiW0GRgoKDgz/77LPY2FhXV1dWwtdhj55UIctaTLdu3aZMmcLK6Rl9xIgR9Og/bNiwTz75RJ6CunfvHhYWNmPGjCVLlgwYMIAe6Fl5niloxYoVzz77LIUo+VMyPXA///zz1EJ6BHdzc1OnIIP2c3FxcfJ1FOSRw6A2g0YadIhmhStXrjRoj6STgjR3LZef1SixlC1b9uLFi6tXrw4MDGRvcxn0D51NitZsnqcgzYOiXmpoReeoWbNmNAaOHDnCVjBomN75vXDhQpkyZVq3bs1egsPdrAAAAMC+ilsKGj16dNWqVTdv3sxK8vxE3LFjx0qUKMG+jK5IQdWqVfvpp5/Y+wApKSms8Pjx4/wlVTh16tTc+qRnnnmGHt9ZOe2IaqbHaD8/v7t37/KHfnrILlmyJP9yPG2ezxS0dOlST0/PgwcP0kvF4/s777zTvn17enrWfC/IoP1ccnIyFcp/4EFOHjkMajNopEGHaFZIgcGgPZJWCtLbtVw+V+vcufO8efNatGjBR45B/9Bp2rRpE5vnKUjzoOglSzuscNasWbQLNm/cMPX5pYRP0YgidPXq1SlY8jWdmcPdrAAAAMC+RExBBf4eFT0jVqhQoWnTprwkzxRED5S1atVavny5ZP1ZOTreRYsW0Twtqly58o0bN3Ksv7j9+uuv0wyt3Ldv3+eee45XSA+s7Ae7aH03NzeeB9iOJk+evGrVKprhD/3nzp2jXbA3AShueXl55TMF+fj4jBo1ir2UPyX/9ttvlPrYd400U5BB++Xatm3bq1cv9ktlFNLkn/6SRw6D2gwaadAhehUatEfSSkF6u5bL52rbtm2jAFy2bFn5D+6p20OZeeHChVWqVOHfEeIpSO+geArKysoaOnRoy5Yt2YYGDdM8v1OmTHn66aepMbS0XLlyhw4dYis/TgW+SIuIvW5WoCDawADxYcyAyDA+zRO5D0VMQXn+pl5GRkZkZGR6erqinJ4RqcE7duzgJXmmIJrZuXMnPb8GBgYOGDCANqdnVpr38PDYuHEjW/PYsWMNGjR48skn6XmUKkxKSuIVjhw5MiAgoE6dOrR+REQEL5fvSJI99LN5d3f34OBg2urNN9+UpyCqpFKukiVL0kv2VE2LaO/8aZs/Jd+6dYsi3Pr161m5ZgqS9NsvZ7FY2rVrV758+bp169KT/S+//MIXKSKHXm16jWSLDDpEs0KD9kiqJhnsWi6fq1Fu8fPz69+/v7xQ3Z6ZM2e2atVq9+7dfB2egiSdg+KnmAI25aKEhAS2sl7DNM8vDW+K+lQ/K5w9e3ZQUBCtyV4+NnlepI+ZvW5WoCDawADxYcyAyDA+zRO5Dx0sBcXHx1PwoAghf/o07969e+xfhnGxfiKO8tXt27cV66SmpqalpclL2MN9ZmYmPZLeuHFDvsjYpUuXTpw4wb65ZOCll16KiYlRlhaUuv1qFC8TExPl/2yRnvzUZhPNCvPfnkJEiaJixYpxcXHKBba3R/OgigeDi9Qu7HWzAgXRBgaID2MGRIbxaZ7IfegYKYiePletWtWmTZunnnrKz8+Pfaqq0Cm+F5Qn9VschWvs2LF//PGHshSKUlRU1MCBA/kbdKBHfZHal71uVqAg2sAA8WHMgMgwPs0TuQ9FT0HszZ/AwMAuXbqEhYX5+PgUXXuysrK6du2q+YPImkaPHl2I79WACHr27DlkyBD+75mCHtFuava6WYGCaAMDxIcxAyLD+DRP5D4UMQX9/vvv/M2f5s2b9+jRo06dOt7e3kUagQAg/0T7sqO9blagINrAAPFhzIDIMD7NE7kPRUxBO3furFu3LsWesLAwbwAQj/KitTd73awAAADAQYmYgiTrF4E+/PDDZ555xt/fnz941ahR47ffflOuCgBOz443KwAAAHBEgqYgLj4+vk+fPtWrV3/qqacQhABAkwg3KwAAAHAgoqcghr815OPj4+fnhyAEAHLi3KwAAADAIYiYggy+R8XeGqpTp07h/ntBAGATg4vULux1swIF0QYGiA9jBkSG8WmeyH0oYgrK8zf1MjIyIiMj09PTlQsA4LHI8yJ9zOx1swIF0QYGiA9jBkSG8WmeyH3okCkIAOxLtIvUXjcrUBBtYID4MGZAZBif5onch0hBAGAz0S5Se92sQEG0gQHiw5gBkWF8midyHyIFAYDNRLtI7XWzAgXRBgaID2MGRIbxaZ7IfZh3CiIzZsygl/TfxzP/+++/a5ZjHvOYF2R+yJAhmuX2mu/cubMLUpAARP4WLIgJYwZEhvFpnsh96KIskMH/XgUAh4CbFQAAANjEthT04MGDdblSU1OpJDs7+4HK/6oA8aSnp/OTmJmZqVwM4IDUNysAAAAAA7aloFu3blGJu7t7UFDQrl27qKRUqVIuKvv37/9fLSCY+Ph4On10EulMXb58WbkYwAGpb1YAAAAABgqSglq1asVLWAoaMWLEWKuKFSvKU5Dee0Q5OTkpKSlUGy+RrCtnZ2drzj98+JCvlp6efubMmTt37vASSfWWFNXPyhX1PJC1QbMejm9IVT14tAGEGn/79m15iV4DJJ2DZagNFy5ckFSbc3zNbCs2r1iHte2BfoM1j/T5559HCoJiQ32zAgAAADBQOCmIP0wHBATwFJSRkcHeGuJOnTpF5Z9//nm1atVYSYcOHVgMoBroZVBQEM2vX7/eJXcvu3btovmXXnqJ1c9SFilRokTv3r2zsrJYeaVKlf67D6uoqChFnW+99RbNU04zroeRbxgTE0Pzf//739miyMhIT09PtmGfPn14ttFsgKRzsGTTpk2+vr6svGPHjuXKlfvfxlbPPfcc/XfHjh20MmUYl9wOYW2To7YZNFjvSJGCwAzRvuyovlmBXYg2MEB8GDMgMoxP80TuwyJMQVevXqV5Ly+vdevW1axZ08WaghISEmgTCgDffffdhAkTqPDFF1+UHg0e48eP53tRpKAlS5YcOHDg2LFj/fr1o/I1a9aw8goVKri6utKOWrRo4fJoCgoMDBw2bBjNTJ8+na1sUA+jFyoOHz5Me3n66adp2wULFlA5hSu2iWYD9A72r7/+Kl26NOWT1atX//zzz8uWLaOWHDlyJCwsjNb58ccfaX7nzp0037dvX1p/7ty5NB8REcHb5uPjQ/t65513WNv0GizpHylSEJgh2g9fqm9WYBeiDQwQH8YMiAzj0zyR+7AIU1B6ejrN169fn+YbN27sYk1B1Bc0M3HiRMn6Ka+yZcuWKVPmwYMH+UlBOTk5lD3atm1LdXp7e1M5rcnKqRlVq1aleYoNLo+mIKZNmzashQb1cGxDDw+PDh06NGrUyCU3VCxatIjmQ0JCaC89e/ak+Xr16rEKNRugd7CsHp6gODpkl9x3zEizZs1ofWoMtaF8+fLsfSfNwKPXYIMjRQoCM0S7qalvVmAXog0MEB/GDIgM49M8kfuwCFPQn3/+SfP0tC3pp6AyVvlMQWvXrqX5du3affPNNyNHjqT5MWPGUHliYiLNN2zYUNJKQSVKlGjSpAnN0OaskXr1cGxDT09PihDDhw93yQ0VrPGtW7eekGvmzJmSfgP0DjafKSgyMpJevvHGG/Tff//736zQIAWpG2xwpEhBYIZoNzX1zQrsQrSBAeLDmAGRYXyaJ3IfFlUKOnz4cGhoKM2znMBT0KFDhxQfEuvcubOU+3Dv7e29Zs2aLl26uFg/yUbz7ENfYWFh0dHR7INh/fr1o3zVvHlz9kxPdbLwQOGE1m/WrBnNjxs3LjU1lQeGu3fvUkRxd3envUu5HzBT1MOPiDdG/QEz9om4evXq/f777wkJCatXr6bUYdAAvYM9cuQI/0TcL7/8smzZMrZfRQq6f/++l5eXixX/VKVm2zQLJcMjRQoCM0S7qalvVmAXog0MEB/GDIgM49M8kfuwqFJQREQERZq3336bfR2fpyCap6hQtWpV67P9/3+bwmKxSFpf+ld46aWXUlJSKBrRfOXKldlbLvRMT7UpV7WKioqSZ4OkpCTaqnbt2tevX9eshx8Rb4w6VJAvvviCJ5MKFSrMmTPHoAGSzsGSL7/80sfHh5V37NiRFSpSEJk2bZpLbksYzbZpFkrW37LTO1KkIDBDtC87qm9WYBeiDQwQH8YMiAzj0zyR+7AgKahixYr0vL53717ZurbJycm5cOHCzZs3lQt0vGQlWT9Xdv78efnPQLMQ8r9VJYlWcJH9SpsmdT02SUtLo/azX6bOswEGB8vqUZbKUOiiqszEaPWR/vnnn3T62G/HIQVB8aC+WQEAAAAYsC0FZWVlLch19uzZ/61axL6wUpZa0TP95MmT5SU3btygkqSkJHlh0Sm6BoSGhpYqVapGjRqaCarALBYLP4l3795VLgZwQOqbFQAAAIAB21IQPE5ffvnlV199de3aNeUCAHgUblYAAABgE6QgAHB4uFkBAACATURMQSJ/jwoAJPEuUnvdrEBBtIEB4sOYAZFhfJonch+KmILM/BgAADwGol2k9rpZgYJoAwPEhzEDIsP4NE/kPkQKAgCbiXaR2utmBQqiDQwQH8YMiAzj0zyR+xApCABsJtpFaq+bFSiINjBAfBgzIDKMT/NE7kOkIACwmWgXqb1uVqAg2sAA8WHMgMgwPs0TuQ9FTEEif48K5O7fv68sAucg2kVqr5sVKIg2MEB8GDMgMoxP80TuQxFTUIGtX78+XCUuLk65HpiwZcuWF154wcvLq3Tp0qNGjVIuBrAHh7tZAQAAgH0VqxTUqVOnkJCQITKenp7Tp09XrgcFtWzZMm9v7w0bNly8ePHhw4fKxQB24nA3KwAAALCv4paCxowZIy9p3rw5T0H04H7nzp0rV67ExMQkJyfLV8vOzj5w4MCePXtu3bolL799+/Z5GdqcL8rIyJAv4p8No5mDBw8eOnQoKyuLlVDl8hUuX77M93Ljxo309HQ2z9ZUN4M1m79MS0u7d+8eK7979y4rzMzMpF3Qf/lqmlXJ0ea0yYULF27evKkol++O5OTk0JpUIVVVrly5/fv3H7CS786gb+llbGzs0aNHeWq6du2avOsY1l3qvWvSOy+azaAzdfXq1f9tLEkpKSnUh6wHOGqA3po0c+nSJb4XKvnjjz8SEhL4KVbTa6FkS4cYtAcUHO5mBQAAAPblRCmoYcOGAwcOrFGjRuvWrd3d3efPn8/KExMTAwMD69WrR+Wenp7bt2/nmy9dutTDwyPEys3Nbc2aNXzRyJEjq1SpwhaVLFly165dVEgJwd/fn3ZEhbVr1z58+LBkTRGDBw/u3Lkze2imRlLH0szZs2erV6++YcMGVqFeM6i2devWsXlC1W7ZsoWV822HDRtGZyoqKoq91KtKjjb38/OjdlKwoXlqDC+X706ypgiqnJ7L6Rip32rVqlW/fv3Q0FDaPD4+nm+l2beDBg2qWbNm+/btaVGTJk3YM/3kyZNZv9GarA2E2szqUexdk9550WwGVUidRmeBrUPppXTp0hSBeA8wf/31l96aknUgffLJJzSzd+9eX19fOnzqhDp16tBWbGUFvRba1CEG7QEFh7tZAQAAgH2JmIIK/D2qPFMQPVNeu3aN5uPi4uiB8vTp0/SI2aJFi6lTp7J1tm3b5uXlxf/PPR1727Zt2Xzjxo3lKeiNN94YPnw4m69UqRIlhOzs7ODg4PHjx7NCWtqoUSP2CEuLevXq1bdv34cPH7IUlJ6eTkHl448/ZisbNCPPFLRv3z5amSIZS0EGVcnxzR88eEDHOG3aNF6ul4Kofpp57bXXWPnEiRPpEGhztpW6b2metmIr04FTD0yaNOm/lVrR2VHsS713TXrnRbMZmZmZ1apV4xFxxIgRffr0YSsr9qW3ppSbgugoKAS+8847rJBOcdOmTdm8gl4LbeoQg/bYXYEv0iJir5sVKIg2MEB8GDMgMoxP80TuQxFTUIF/Uy/PFDRr1iy+iJ5Nly1bdubMGTpGemI+mIsizd69e9k6c+bMoTr5+vIUNHjwYL4vloISExOpqkuXLrFCev6mlxaLhb2kJ9qgoKDXX3+dKqQmUWNGjx7NFhGDZtCaM2fO3J/Lz89PnoLoYbpJkyYRERG+vr7scdmgKjnafPbs2VTh1q1bAwICfvjhB17OdkeHwz7zxlMQ1UkzJ0+eZGtevXqVXrL3uzT7VrJGsh07dtAQCg8P79GjB+9MRjMFKfauSe+86DVj3LhxvXv3phlKg9Qb0dHRbGV14tJcU7I29e2336Z+pkNmKUvKPcWpqal8c06vhbZ2iF577K7AF2kRsdfNChREGxggPowZEBnGp3ki96FzpaBPP/2UL+rWrduUKVPoyb5kyZKdHrV79262zqhRo1555RU2r0hB3bt3p+d1Ns9SUGxsrKurK1/h3r171Hv8M2O0QtWqVZs1a1bGivZC2YN/J8egGdTsBg0a8EIPDw95ClqxYsWzzz5Lz9Y8BRlUJdfQihZRk8LCwo4cOcLL2e6onBpMGYmnoAMHDtDM7du3eSVubm4///wz20rdt5K1l6jyGTNmLFmyZMCAAXQ6+DqS1kO/eu/ypZzeedFrBsWVsmXLXrx4cfXq1YGBgewNOs0UpLmmZG1qaGhoq1at6JD5yuwUU7fwEk6vhbZ2iF577K7AF2kRsdfNChREGxggPowZEBnGp3ki96FzpSD+OTHyzDPPrFy5Mjk5mY7xwoULvFyuadOm77//PptXpKDatWtv2rSJzbMUlJSURFWlpKSwwuPHj/OXd+/epUdYesC9du1azZo1+/XrR4X9+/d//fXX2coGzVA8rMs/Ebd06VJPT8+DBw/SS56CDKqSYyGKzc+aNatFixa8nO+OyunRn6eg69ev08zRo0fZ0rS0NP5Ss2/pCZ7yGE96tEKeD/3qvcuXcnrnRbMZbL5z587z5s2jw1ywYAFfWZ2CJK01pdxPxJ08eZIOmX8zh51izS/qaLawAB0i6bTH7gp8kRYRe92sQEG0gQHiw5gBkWF8midyHzpXCqKowOIBBQk3NzcWUdq3b9+7d2/2FkdOTs7OnTuzs7NpPjo6ukyZMvyLHPxZ9t69e9TCKlWqUCpgi1gKom1pHQo2NEM19O3b97nnnmMrUKt69OjB5jvl/jrClStXvL29+bc+9JphkIJ8fHz4v9jDU5CkX5UcT0FZWVlDhw5t2bIlL2e7Y+V0CDwFSdbGU3ij2qjaYcOG0crsh840+/bcuXO0IXuX6dSpU15eXnk+9Kv3Ll/K6J0XSacZbNG2bduqVatWtmzZy5cv85XVkUPSWlPKTUF01BTM5KeYf/lHTq+FBegQSac9dlfgi7SI2OtmBQqiDQwQH8YMiAzj0zyR+1DEFJTn96jouTwyMlL+G9NMnilo5MiRAQEBderU8fDwiIiIYOWpqandunUrX758UFBQ5cqV6TGXHsHp0bOkVaVcpUqVcnd3//7772fOnNmqVSv5Z8xYCqKZY8eONWjQ4Mknn6xatSo9+yYlJUnWz8LRU2xaWhpbmacg8s033/DPxWk2Q1I9rMtTEO2IJzF5CtKrSo42p06gltMKFDYSEhI0yw8fPixPQcnJyeyzarRr9rtqfCvNvh07dix1WnBwMJW/+eabeT70q/cuXypZI4HeeWGbazZDsv5AhZ+fH0U4XqKXgtRrSrkpiGbokOnA2Slu2rTpmTNn5KtJebXQ1g6RdNpjd3lepI+ZvW5WoCDawADxYcyAyDA+zRO5D0VMQQbi4+PpMbdevXrqL7rkiT31ZmZmUla5ceOGYumtW7eOHz/Ov/i+adOmIUOGPLqK9Oqrr7IEYoxCCM88tlI0w4xCrEqB8id/j4Ux6NtLly6dOHFC/WZUwRifF4NmUG9UrFgxLi5OXqgpP2teuHBB7xQbt1CyvUPy0x4Q8GYFAAAAInOMFJSRkbFq1ao2bdo89dRTfn5+q1evVq6RD3r/719TdHR0eHi4onDGjBmxsbGKQpBs7FszjM+LXjOioqIGDhyoeONFU/7X1GPcQluZb4+TEOdmBQAAAA5B9BTE3vwJDAz829/+Vr9+fR8fH4pDypXyZ/To0TExMcpSKAyC9K1eM3r27DlkyBD+L8MayP+aj4do7RGWCDcrAAAAcCCCpiD+5k+TJk0o//j7+3t7e5uJQABQjNnxZgUAAACOSMQUtGzZsrp161LsqV+/vjcAiEe0Lzva62YFCqINDBAfxgyIDOPTPJH7UMQUtHDhwoyMjOXLlzds2LBGjRr8wSsgIID9FBsA2JdoP3xpr5sVKIg2MEB8GDMgMoxP80TuQ0FTEJ+Pj48fOHCgv79/9erVEYQABCHaTc1eNytQEG1ggPgwZkBkGJ/midyHoqcghr815OPj4+vriyAEYF/qi9S+7HWzAgXRBgaID2MGRIbxaZ7IfegYKYhjbw0FBgYW4N8LAoDCYnCR2oW9blagINrAAPFhzIDIMD7NE7kPRUxBeX6PKiMjIzIyMj09XbkAAB6LPC/Sx8xeNytQEG1ggPgwZkBkGJ/midyHIqYgAACb4GYFAAAANsk7Bb388ssfAAAIjG5TSEEAAACQf3mnIAAAh4AUBAAAAPlklIIsFstiAAAHQbcs5V0MAAAAQItRCrIXkb9HBQASLlLQgYEBtsKYAZFhfJonch+KmIJE/k09AJBwkYIODAywFcYMiAzj0zyR+xApCABshosUNGFggK0wZkBkGJ/midyHSEEAYDNcpKAJAwNshTEDIsP4NE/kPkQKAgCb4SIFTRgYYCuMGRAZxqd5IvehiClI5O9RAYCEixR0YGCArTBmQGQYn+aJ3IcipiAAAAAAAICigxQEAAAAAADOBSkIAAAAAACcC1IQAAAAAAA4FxFTkMjfowIACRcp6MDAAFthzIDIMD7NE7kPRUxBIv+mnvO4f/++sgggFy5S0ISBAbbCmAGRYXyaJ3IfOlgKWr9+fbhKXFyccj0okC1btrzwwgteXl6lS5ceNWqUcjFALoOLFJwZBgbYCmMGRIbxaZ7IfehgKahTp04hISFDZDw9PadPn65cD2y3bNkyb2/vDRs2XLx48eHDh8rFADIGFyk4MwwMsBXGDIgM49M8kfvQ8VLQmDFj5CXNmzeXp6D79+8fPHjw0KFDWVlZ/1tJkm7fvn1e5s6dO1R47do1eSFDG1IMoJkLFy7cvHlTXgnJzs4+cODAnj17bt26xQtpfarwypUrMTExycnJfE2qhH+u7PLly3yTGzdupKens3lJp22Mwe74y7S0tHv37rHyu3fvssLMzEyqiv7LV9OsiqPCcuXK7d+//4CVfEPNo2M0e1uveWyRZgsLsAu9E0Sbx8bGHj16VB7k9Jqk1x7u+vXr7KTQ6ZOXg8FFCs4MAwNshTEDIsP4NE/kPhQxBRl8j8o4BdFDvL+/f8OGDUNCQmrXrn348GG+2tKlSz08PEKs3Nzc1qxZQ4WTJ09mJe7u7n5+fmw+MTGRamAvKRjQ/NmzZ1kltCgwMLBevXqtW7f29PTcvn07K6d1Bg4cWKNGDSqnqubPn0+FOTk5gwcP7ty5M3t8p5Z/8MEHNEO1Va9efcOGDWxbSadtkuHu1q1bxzenI92yZQsr59UOGzbMxcUlKiqKvdSritu1axe1vFatWvXr1w8NDaXDj4+PZ4s0j07S72295rFFmi0swC40T9CgQYNq1qzZvn17qqpJkyZXr17l62s2Sa89hOIirebr60t78fb2ptPHNwfJ8CIFZ4aBAbbCmAGRYXyaJ3IfipiCDBikoOzs7ODg4PHjx7Py4cOHN2rUiKIIe7l48eK2bduy+caNG/OkwVAl8qdk/nD84MED2mratGmSNdW0aNFi6tSpbJ1t27Z5eXmxdxhofXpivnbtGs3HxcWVLl369OnTkrVJvXr16tu378OHD1kKSk9P/3/s3X1YFNe9B3CDSgCtShEBQQEBgZAgKiJGbdQ20Zuot7E1vrUxVq0v6NXWpzbGaHhAr01M0kS91+gNsYk0Npc2ahObJr7BNZeIPAbxDVRQ5EWQKKAoIAJzf91zOR1nd4adHdY9LN/PH3lmz5yZOXP4DTnfZ9mV0siOHTv4tSSVsWlfTntNf+LECers6enJ1vQap+KoJ2WAX/7yl+zlyy+/TOOk25dU7k5jttWGx3ZZHKENlzD/AZGSkhK2QRNOM79mzRr2Um1IauMhTz/99NKlS9n25s2bkYIAAAAAnInzpKD8/Hxax1dWVrJ2WkbTy+LiYvZy06ZNfCFrTQrauHFjdnb2vn37AgMDDxw4QI2XL1+mE9IaPadV7969jx8/zvpv2LCBH07n37ZtG9tuaGgIDw9ftGgRXZ3GST2XL1/OezIWx6Z9uaSkpOxWAQEB8jU9BYDY2NiUlBR/f3+2ptc4FUd7qc/FixfZy5s3b9JL9t6LxbvTmG214bFdFkdowyXMf0CSKe8dOnSIUmVycvLUqVP5rKoNSW085Nlnn501axb7g0akIAAAAAAn4zwpKD09vVu3bry9vr6eFs38z7qWLVv24osvsm1rUhCha8XFxQ0dOvTMmTOSKSe4uLhMfFBmZibr//777/PDJ0+e/Oqrr7LtY8eOeXl50XlcTegQWrUrPs1icWzal4uOjuaNHh4e8jX99u3bR40aRXmAr+k1TsWdPHmSpuvOnTu8xc3N7csvv5RU7k5jttWGx3ZZHKENlzD/AZEpU6bQy8TExC1btsyePZt+rKxdbUhq45FMofqpp56iAVBipKmYiBQEAAAA4EScJwUVFBTQKrmsrIy15+XlyV+OGDHi7bffZtvWpCD+cZENGzbEx8dLpo/d0wlLS0t5N4768783I0888cR7771HG3V1dWFhYXTmqqqq4ODgmTNnUuOsWbMWLVrEO0sqY9O+nNrfd23dutXb2zsnJ4de8jW9xqm4mpoa6nPu3Dn2sry8nL+0eHcas602PLbL4ghtuIT5D6iwsJDCHk+YdEJ5CrI4JLXxMK+88sqECRMoHeG9IAAAAAAnI2IK0vgclUYKotUqRQgKGLTR1NQ0Y8aMsWPHsj6HDx92dXXlHxqxPgU1NjYuWLDgySefZO20Jp4+fTp7w4SucuTIEboQ608LaBYzaHnt5ubGFus01KlTp7JjJ7Z+O8KNGzd8fX35altjbBqXU1vT+/n58X/nR76mVzuVHI2QEhq1U4eFCxfS2djXrFm8O43ZVhse22VxhDZcwvwHdPXqVYpJ7H2hS5cu+fj4WJOCLI6HfP31115eXuznghRkTuMhhc4MhQF6oWZAZKhP40SeQxFTkMZ36mmkIHL+/Pno6Oh+/frR+pUW0AUFBZLpywBcTHq36tq1q7u7++effy4/iSIFeXh4UM8+ffrQyjs3N5e1X7t2bfLkyT179gwPD6ddMTEx7PvfqH9CQkJgYGBoaCgdmJKSIpn+Fq5v377l5eXsWJ6CyKeffsr+Lk57bBqXU1vT073X1NSwdvmaXu1UckVFRXFxcTR1dJKoqKizZ8+ydot3J6nMNutvcXhsl8UR2nAJiz+gVatW0exFRkbSeVauXGlNCrI4ntra2kGDBn388cesvfOkoIqKitTU1OrqauUOMxoPKXRmKAzQCzUDIkN9GifyHHawFGQNWvHz7EHS0tLmz58v2/8Pc+fO5UtzvWiJnJeXx77QjGGL7IaGBlq137p1S9a3DdaMzfxyNrPmVLQO5n+ExmjfnWK2bdOOl6isrLxw4YL5O11gpczMTIqRFEr5Z+osMviQgrNCYYBeqBkQGerTOJHn0AlTkMLhw4eTk5MVjYmJienp6YpGmynearDeQxibcTbfnfUewiXAehSEBg4c2L9//9GjR+/cudPiW0Pt+5CC00BhgF6oGRAZ6tM4kefQ+VPQQ7B8+fKjR48qW53FQ7i7h3AJ0IWCUHBwcEBAQFxcXEhIiPlbQx3uIYWHA4UBeqFmQGSoT+NEnkMRU5DIn6MC6CRYEPI1iY6OfuKJJ+RvDeEhBYtQGKAXagZEhvo0TuQ5FDEFsYUXAAjF39+f/hsSEnLkyBHlQwsAAADQoYiYggDA4TIzM6OioiZNmsRT0MCBA+fNm3f16lVlVwAAAICOBikIAJRYBBo1ahTLP3FxcX/4wx+UnQAAAAA6LKQgAHgARaBBgwb5+fnhzR8AAABwViKmIJE/RwXg3Ni/FzRlyhTtN3/wkIJFKAzQCzUDIkN9GifyHIqYgkT+Tj0AJ1ZRUZGammrxHwhSwEMKFqEwQC/UDIgM9WmcyHOIFAQAuuEhBYtQGKAXagZEhvo0TuQ5RAoCAN3wkIJFKAzQCzUDIkN9GifyHCIFAYBueEjBIhQG6IWaAZGhPo0TeQ5FTEEif44KACQ8pKAChQF6oWZAZKhP40SeQxFTEAAAAAAAgP0gBQEAAAAAQOeCFAQAAAAAAJ0LUhAAAAAAAHQuIqYgkT9HBQASHlJQgcIAvVAzIDLUp3Eiz6GIKUjk79QDAEn9IW1ubt63b9/q1avnzp27YsWKv/zlL9Si7ATOS60wANSgZkBkqE/jRJ5DpCAA0E3tIa2trQ0ODl61atVbb731yiuv0PZzzz3X0tKi7AdOSq0wANSgZkBkqE/jRJ5DpCAA0E3jIZVnnsLCwi5dupw7d469LCoqSk9Pp5fyN4iuX79e8qD6+nq+6+7duzdu3Dh69Cgdyw8h9+7dy8nJOXXqVGNjo7ydznzx4kW6Cp1H3s6wE/KX5eXl/FqSyvDk1IaqMc6mpqaTJ09+8803lA/l7Xfu3JGfRz4qi7emdmmmurpavovOwNrN76iqqkrek6EL0Rlu3rzJT0jKysrkl7CSRmEAWISaAZGhPo0TeQ6RggBANysfUlrKd+3atcQUSF566aXg4OAJEyYEBQXFxsbyNfeQIUMCAgKiWrm6uu7du5fvmjNnDvUfM2aMu7v7G2+8wdqzs7MHDhxIe6l/SEjI6dOnWfuFCxdiYmICAwPHjx/v6+u7b98+1s7RIbt37+Yv6Vh+LbXhyakNVW2c+fn5YWFhERER1O7t7f3FF1/wU23dutXDw4Odx83NbdeuXaxd7dbULs0kJCR4enqyXS4uLseOHZNU7mjt2rWsG42Tn5DGSdNCl+MJNjc3t3v37hS9+CWsZGVhAHCoGRAZ6tM4kedQxBQk8ueoAEBq6yH97LPPFi1a9MILL1AG+MMf/sAaWRaSTG/XTJs2bc2aNeylRjKhXfSyqqqKtjMyMmhdXlhY2NTUFBkZuXr1atZn8eLFw4YNazEZMWLE/Pnz2fse1K2mpqb1rP9P41pqw5NTO9ziOGk88fHx69atY53379/v4+PD3/N59913x40bx7aHDx/OUpDarUnql2aWLFlCndl27969WQrSvqORI0fKT9jQ0NC3b9+DBw+yl0uXLqUfH99rPe3CADCHmgGRoT6NE3kORUxBANCh0Sp806ZNq1atGjRo0M9//nMWS2g1f+jQIVr9JycnT506deLEiayzxvqedm3YsIHvorSwbdu2/Pz8Ll26VFZWskb2R3fFxcUFBQW0ce3aNd7fHJ0wKSkpu1VAQAC/ltrw5NSGanGcly9fpvFQKMppRfnk+PHjrA/ND78ET0FqtyapX5qZN2/eihUr2DZPQdp3pEhB5De/+c306dNpg6IaneTw4cPyvQAAAE4GKQgA7OXGjRvf+9730tLSaHvKlClDhw5NTEzcsmXL7NmzaRXO+mis72nX+++/z3dNnjz51VdfTU9P79atG2+sr6+nqJCVlUV5Q95uEZ0wOjp6YisPDw9+LbXhyakN1eI4aTwuLi78WkxmZibrs2zZshdffJFt8xSkdmuS+qUZGjylO7bNU5D2HZmnIApdjz766PXr1z/44IOwsDB8pwUAADg3pCAAsCNar7/11lu0wqZIcPv2bda4bt06K1MQ/4sy8sQTT7z33nvsPZ+ysjLWmJeXx14WFRXRhuLLCRTUrqUxPDm1wy2Ok42ntLSUt8uNGDHi7bffZts8BandmqR+af6SRU2pNQW1eUfmKYhMmjTp9ddfj4+P37x5s2IXAACAk0EKAoB2c+3atZ07d7JPvzQ1NW3fvr1bt265ublXr16lBf2ZM2eo/dKlSz4+PlamIH9/fxYkqNHNzY0iQUtLC8WGRYsW0QZdYsaMGWPHjmX9x40bN23atLq6OtqmAGD+13Fq19IYnpza4RbHSdsTJkyYPn36nTt3JNPfpx05coQGTNuHDx92dXXln9vhKUjj1tQuXV9f/+abb3p6evIPQbEU1OYdWUxB+/fv79u376OPPvrdd98pdgEAADgZEVOQyJ+jAgBJ/SG9fv06+5oytpim7b/+9a9s16pVq9zd3SMjI0NDQ1euXGllCkpISAgMDKRDPDw8UlJSWPv58+ejo6P79evn5eVFsaGgoIC1FxcXjx8/vmfPnoMHD6Zg8NVXX7F2TuNaasOTUztcbZwUwyZPnkzjCQ8P79OnT0xMTGNjIyUNF5Perbp27UqX/vzzzyX1W1O7dFJS0ujRo/kf2kmyv4jTviOLKYiiV0BAwKxZsxTt1lMrDAA1qBkQGerTOJHnUMQUJPJ36gGA1NZDevfu3QsXLph/z3JlZSW1s/dDrMGW/g0NDZQNbt26pdhLGaO8vFzRKJn+8Zz8/Hz5v8BjJb3D47THWVtbm5eXx75BjqSlpc2fP//BLtLcuXPlf+Gmdmt66b0jGmqvXr0yMjIU7RUVFampqTSxinZz2oUBYA41AyJDfRon8hwiBQGAbg/nIVW8ASIsXeM8fPhwcnKyojExMTE9PV3R+JAdPHhwzpw5Ft8EI5mZmRERET/60Y8+/fRT5T6Zh1MY4ExQMyAy1KdxIs8hUhAA6PZwHtLly5cfPXpU2SqejjJObc8///z8+fOvXLmi3NGKglBQUJCfn9+gQYPols3f65MeVmGAM0HNgMhQn8aJPIdIQQCgGx7SzomCUGRkZEhIiK+vL8WhsWPHKt4aQmGAXqgZEBnq0ziR51DEFCTy56gAQMJD2omxIBQREeHbSv7WEAoD9ELNgMhQn8aJPIcipiAAEBxfAQNER0fTf8PCwo4cOaIsFAAAAFEhBQEAgLX27t3bv39/ij3BwcHPPfdcXFzcD37wg507d1rzDXIAAADiQAoCAACrsAgUHR09adKksLCwhISErKwsZScAAICOACkIAADa9re//W3AgAGUgvDmDwAAOAERU5DIn6MCAAkPaefDvhShzTd/UBigF2oGRIb6NE7kORQxBYn8nXoAIOEh7WQqKipSU1OtefMHhQF6oWZAZKhP40SeQ6QgANANDylYhMIAvVAzIDLUp3EizyFSEADohocULEJhgF6oGRAZ6tM4kecQKQgAdMNDChahMEAv1AyIDPVpnMhzKGIKEvlzVAAg4SEFFSgM0As1AyJDfRon8hyKmIIAAAAAAADsBykIAAAAAAA6F6QgAAAAAADoXJCCAAAAAACgc9FKQadPn05whJ/+9KfKJgP+/d///fcA0K5WrlypbAJAYYB+qBn7KS4uVi7sQCeRP9nfUYg8h1opiCJEFwAAAADoaN59913lwg50EvlbnjsKkeew7RQ0efLkf++YFi5cSONftmzZuwDQrp5//nllEwAKA/RDzdjDj3/8Y6SgdiHyCr6jEHkO205BFCeqOqa//vWvNP6jR48qbwwAjBH5lxo4EAoD9ELN2MPvf/97pKB2gfo0TuQ5fHgpaOjQoQMGDNi9ezdtX7hw4dSpU4WFhcpO7UpvCrp///7uVteuXaOWpqam+2aUh4GmiooKPqsNDQ3K3dAxifxLDRwIhQF6oWbsASmovaA+jRN5Dh9eCvL29qazvffee7T9zDPP0PaCBQuUndqV3hRUW1tL/d3d3cPDw48dO0YtXbt2/cef1j4oOztbeSSoy8rKovmkWaWp++6775S7oWMS+cOO4EAoDNALNWMPSEHtBfVpnMhz2M4piJa5J06cOHDgwL59+7799lv5Lp6CLly48NRTT9H27Nmzz549m5eXJ+/WjmxLQaNHj+YtLAUtXbp0lUmvXr0UKUjtbaKKiorLly/fvXuXvTR/T6mlpYV3Lisru3PnDttubm7me+m/fJu103/5UVLraeUvCX9JYygtLWXbD15ceR75ABjqw0+l2JYfq3EgGzzvzH7iSEEAAAD2hhQEYI12TkFDhw5lb5gwlChoocx28RQUEREh7/P973//wXO0m/ZKQXztHhgY2EWWgqqrq+U3Qi5dukTtLCyRRx55ZPr06Y2NjT169HiwY5e0tDTqmZqayqaFer7wwgs0gNzcXGoJCgqiEJWcnEy76HcZBUU/Pz9/f//8/PzWof3DnDlzqMOhQ4dom/p3aR08nZw6sws988wzNP5/XtjkJz/5CTuD+QCokfUPDw+nbbp0l9bTHjt2jLb/9V//1ZoDadrlF0IKAgAAeDiQggCs0c4p6N/+7d+2bdu2d+/eXbt20VKeDl+7di3bxVPQ7373u0GDBtE2RaZVq1atW7fuwXO0G/Ydcexv26yhNwXdvHmTXvr4+OzevTs4OLhLawrasmXLyZMnz58/P3PmTGqkqaDtM2fOsIj4t7/9jbZv3bp1+vTpbt26Pf7449R58+bNtOtXv/oVHU6dKfMMGDBg7ty5XUx/N9ivXz+6dGFhYeu4/l9WVhZ1mDFjBm3TrNJ2SkrK2bNnu3fvTknsgw8++PLLL+nHwcIJnZPG+corr3RpDSdqA2gzBVlzIFIQAACAQyAFAVijnVNQSUnJjh071qxZs2zZsiFDhtDhzz33HNv1kD8XtGTJErrEypUrlXelTm8KqqiooJePPfYYbQ8fPryLKQW1tLRQMBg3bhy1+/r6UuPq1atZfzoz68NevvXWW/QyKiqKYszzzz9P2xEREWxXWlpalwf9/e9/Z7sU4uLiXF1daYTDhg3r2bMn3QI7LYsljFo4URtAmylI+0APD48f/vCHNB5+IQkpCAAA4GFBCgKwRnumoIsXLwYEBNAhXl5eFIFY7KEFNNv7MFOQDRFI0p+Cvv32W3pJ63tJloI+/PBD2hg/fvynn37KJnDFihWsvyIFvfnmm/RyzJgxv22VlJQkmf7QLjg4uE+fPuxyoaGhPXr0iIyMVHwCh0lNTaU+7H5/8YtfSK3ZxpoUpDaANlOQ9oH0g6YcuHjxYn4hCSnI6Yj8YUdwIBQG6IWasQekoPaC+jRO5DlszxS0ffv2LqYIVF5eTi+nT5/OFtBsrzwFPfvss7Q9b948+eHtxbYIJOlMQadPn46JiaGXLADwFMT+Mm3mzJmUkUaOHNlFPQWxvyuLiIig+sjNzf3ggw8oPLS0tEydOvWRRx7Zv38//1zQH//4R9r42c9+xg6Uu3fvno+PTxcTVmdnzpzhfxH31Vdf8b+IM09BFgcgtYYZX1/fXbt20U+ftsPCwmib/TUd/4s4tQPNLyQhBTkdkb/4EhwIhQF6oWbsASmovaA+jRN5DtszBbH3JWh9nJiYuGbNGtroopKC2BsFnp6eL7zwAq31HziLMTZHIElnCkpJSaGc8Otf/7qxsVGSpaCysjLKDLTdp0+fGTNmdFFPQYTiDc8w3/ve9zZt2vT66693af0jOp6CaJvd144dO/ix3Pr167u0Zg/mT3/6k5+fHzst/3YEi+HEfABSa5hRw74dQeNAixdCCnIyIv9SAwdCYYBeqBl7QApqL6hP40Sew/ZMQbTGnTJlClsZDxkyROO9oNzc3Pj4+EcffZRaJkyY8MBZDDASgaTWFNSrVy8a8/Hjx5W7rdbU1FRSUqL4NmoN5eXlpaWl8i+51oW9U2ReZOy0ikaLbB6ANQd+++23NJ/se/OQgpyGeb0BSCgM0A81Yw9IQe0F9WmcyHPYnimIOX/+/MmTJ5Wt9mcwApHGxsbNra5cuaLcLaSYmJiuXbsGBQXdvn1buU8MxcXFfFbr6uqUu6FjEvmXGjgQCgP0Qs3YA1JQe0F9GifyHLZ/CnII4xGog/rTn/703//93zQDyh0A9iTyhx3BgVAYoBdqxh6QgtoL6tM4kefQGVJQp41AAAAAAApIQQDWaDsFLVy48K8CY/80KiIQAAAAgIQUBGCdtlOQ+BCBAAAAABikIABraKUg9m/FLFu27KjAjh07phw3AAAAQGeFFARgDa0U5KinSOTPUQGAhIcUVKAwQC/UjD04av3mfFCfxok8hyKmIJG/Uw8AJDykoAKFAXqhZuzBUes354P6NE7kOUQKAgDd8JCCRSgM0As1Yw+OWr85H9SncSLPIVIQAOiGhxQsQmGAXqgZe3DU+s35oD6NE3kOkYIAQDfbHtK0tLRPPvlE3rJr164DBw7IW0S2fPnyY8eO1dfXT5s2rbS0VLkbbC0M6MxQM/bgqPWb80F9GifyHIqYgkT+HBUASLY+pB999FHPnj1v3brFXpaUlHTr1u2LL754sJe4cnNzhw8fHhQUtHbtWuU+MLGtMKAzQ83Yg6PWb84H9WmcyHMoYgoCAKfU0NDQr1+/d955h7185ZVXwsLCWlpa2Mvm5uaLFy+mp6dTOmIt169fL3lQfX0929XU1HTy5MlvvvmmtraWtbD+d+/eZdtVVVU8blGf7777zrwPKS8v5+dU7CI0NrooXYvtraurY+10I9RO/5V3ZjTGXF1dLW+/d+8eay8qKqK7PnfuHM0Aa6HBy3syjY2NbK/5vVNLieyEdLN8F01CRUUF2waATgLrNwBrIAUBwMOzdu1alnwoQnh7e/NfLxcuXIiJiQkMDBw/fryvr+++ffuocciQIQEBAVGtXF1d9+7dS+35+fl0koiIiDFjxtBJ+LtJ1H/37t1se86cOb/97W/Z9ubNmydOnGjeh4SEhLBzmu+STLmFfgeWmFIZ7d2zZw9rX7hwIbUfPHhQ3plRG7Nk+neoPT09WbuLiwv7t85eeuml4ODgCRMmBAUFxcbG3rx5UzLNEuvm7u7Oz0Z3LancO83nvHnzJk2axJIS3Sz99qaNK1euDBgwgA8bADoJrN8ArIEUBAAPT0nrX8Ht2rWL/3UcLeJHjBgxf/589mZIU1NTTU2NZBZLWGKhzvHx8evWrWON+/fv9/HxYe/hPJwUdOLECboi5Rm1FKR2/iVLlixevJht9+7dm6UgdnLJ9FbYtGnT1qxZw14yI0eOlJ9N495p0ujwGTNm0HlYCqqoqKC8tGPHDn44AHQSWL8BWAMpCAAeqp/+9KfPPffcsGHDEhISWEtBQQH9qrl27dqDHS0nisuXL1PnjIyMnFaUKI4fP67or5GCkpKSslsFBATIUxDblZ+fz/7azTwFUcaIjY1NSUnx9/fXm4LmzZu3YsUKts1TEAWbQ4cO0a/Z5OTkqVOn8nEyihSkce+S6e/0wsPDFy1aRCd57bXXaCTLly/nxwJA54H1G4A1RExBIn+OCgAkYw9peno6/WJ55JFH8vLyWAst67t16/Zgr3+wmCios4uLy8QHZWZmKvprpKDo6Gh+oIeHhzwFsV1xcXFeXl779u0zT0Hbt28fNWoURRcbUtCUKVMoZbFtnoKocejQoYmJiVu2bJk9ezbFHn6sZJaCNO6d0Alp2DR4VxPaFRgYePv2bX74Q2CkMKBzQs3Yg6PWb84H9WmcyHMoYgoS+Tv1AEAy/JCGhoY+/fTT/GVRURH9qqH/yrr8g8VEwTpb/KJqK1OQ+TnNd23YsCEmJkaRgrZu3ert7Z2Tk0MvbUhBtJ2Wlsa2WQoqLCykVMODyrp167RTkMa919XVhYWFUeeqqqrg4OCZM2dS46xZsxYtWqTsak8GCwM6IdSMPThq/eZ8UJ/GiTyHSEEAoJvNDynlivT0dFdX188++0zePm7cuGnTprEvYaNUwP46Ti1RTJgwYfr06Xfu3JFMf1F25MgR9jVu7ZWCGhsbFyxYMHbsWEUK8vPzW7ZsGeusKwXV19fTjHl6erLPO0mtKejq1at0/jNnzlDLpUuXfHx8tFOQpH7vK1asmDp1KuszsfXbEW7cuOHr62txnHZic2FAp4WasQdHrd+cD+rTOJHnECkIAHSz+SEdM2ZMr169KGMo2ouLi8ePH9+zZ8/BgwdTWvjqq68klURBG5SRJk+eTJ3Dw8P79OkTExPDvhuN+nt4ePQ26d69+6OPPsq23dzcrExB7HA6J0Wg06dPK1JQv379eIzRlYKSkpJGjx7N/3RNkv1F3KpVq9zd3SMjI0NDQ1euXNlmCrJ473Sqvn37lpeXsz48BZFPP/30Yf5dnM2FAZ0WasYeHLV+cz6oT+NEnkOkIADQrc2HlPJDamqq3n+pho7Kz89X/KM9ampra/Py8qqqqpQ7OprKysoLFy6wt3SsJOy9t1kYAAqoGXtw1PrN+aA+jRN5DkVMQSJ/jgoAJM2HNCsr6+c///ngwYPlb31AJ6FRGAAWoWbswVHrN+eD+jRO5DkUMQUBQIdTXV39n//5nzExMX5+fgEBAV9//bWyBwAAPBRYvwFYAykIAAxhb/4MHDhwwIABvr6+gYGBiEAAAA6E9RuANZCCAMAW/M2f4OBg31aIQAAADof1G4A1kIIAQLcjR44MHjyYYo88AgEoCwUAHAHrNwBriJiCRP4cFQBIpoe0urp6586dY8eOjYmJGTlyJFsE9+/f/89//rOyN3Qa+O0NeqFm7MFR6zfng/o0TuQ5FDEFifydegAgPfiQZmVlJSQkhIaGjhkzJjg4GEGoM8Nvb9ALNWMPjlq/OR/Up3EizyFSEADoZv6Q8reGKAX5+/sjCHVO5oUBoA01Yw+OWr85H9SncSLPIVIQAOim8ZCyt4YiIiLw7wV1QhqFAWARasYeHLV+cz6oT+NEnkOkIADQrc2HtLq6OjU1taKiQrkDnFqbhQGggJqxB0et35wP6tM4kedQxBQk8ueoAEDCQwoqUBigF2rGHhy1fnM+qE/jRJ5DEVMQAAAAANgG6zcAayAFAQAAADgPrN8ArIEUBAAAAOA8sH4DsAZSEAAAAIDzwPoNwBoipiCRP0cFABIeUlCBwgC9UDP24Kj1m/NBfRon8hyKmIJE/k49AJDwkIIKFAbohZqxB0et35wP6tM4kecQKQhsce/ePWUTdCZ4SMEiFAbohZqxB0et35wP6tM4kefQqVLQxx9/nGwmIyND2Q9ssnfv3h/96Ec+Pj7du3dftmyZcjd0JjY/pODcUBigF2rGHhy1fnM+qE/jRJ5Dp0pBEydOjIqKmi/j7e392muvKfuBftu2bfP19d2zZ8/169ebm5uVu6GTsfkhBeeGwgC9UDP24Kj1m/NBfRon8hyKmIJs/hwVpaAVK1bIW0aOHClPQffu3cvJyTl16lRjY+M/O0nSnTt3SmTu3r1LjVVVVfJGhg6kGEAbpaWlt2/flp+ENDU1nTx58ptvvqmtreWN1J9OeOPGjaNHjxYVFfGedBL+d2XfffcdP+TWrVsVFRVsW1IZG6NxOf6yvLy8vr6etdfV1bHGhoYGOhX9l3ezeCqOGnv06JGdnX3SRH6gxbtjLM622vDYLosjtOESaj8gOjw9Pf3cuXPyIKc2JLXxcDU1NeyHQj8+eXtnYPNDCs4NhQF6oWbswVHrN+eD+jRO5DkUMQXZTDsF0SJ+4MCBQ4YMiYqKCgkJOX36NO+2detWDw+PKBM3N7ddu3ZR49q1a1mLu7t7QEAA287Pz6czsJcUDGj7ypUr7CS0KywsLCIiYsyYMd7e3l988QVrpz5z5swJCgqidjrVG2+8QY0tLS3z5s2bNGkSW77TyGm2aYPONmDAgD179rBjJZWxSZqX2717Nz+c7nTv3r2snZ924cKF9JM9ePAge6l2Ku7YsWM08kGDBj322GMxMTF0+1lZWWyXxbuT1GdbbXhsl8UR2nAJiz+gl156KTg4eMKECXSq2NjYmzdv8v4Wh6Q2HkJxkbr5+/vTVXx9fenHxw8HAABwrA63fgNwiM6SgpqamiIjI1evXs3aFy9ePGzYMIoi7CXd47hx49j28OHDedJg6CTyVTJfHN+/f5+OWr9+vWRKNfHx8evWrWN99u/f7+Pjw95hoP60Yq6qqqLtjIyM7t27FxYWSqYhTZs2bcaMGc3NzSwFVVRUUBrZsWMHv5akMjbty2mv6U+cOEGdPT092Zpe41Qc9aRK+OUvf8levvzyyzROun1J5e40ZltteGyXxRHacAnzHxApKSlhGzThNPNr1qxhL9WGpDYe8vTTTy9dupRtb968GSkIAADE0eHWbwAO0VlSUH5+Pt1LZWUla6dlNL0sLi5mLzdt2sQXstakoI0bN2ZnZ+/bty8wMPDAgQPUePnyZTohrdFzWvXu3fv48eOs/4YNG/jhdP5t27ax7YaGhvDw8EWLFtHVaZzUc/ny5bwnY3Fs2pdLSkrKbhUQECBf01MAiI2NTUlJ8ff3Z2t6jVNxtJf6XLx4kb28efMmvWTvvVi8O43ZVhse22VxhDZcwvwHJJny3qFDh6iek5OTp06dymdVbUhq4yHPPvvsrFmz2B80IgUBAIBQOtz6DcAhOksKSk9P79atG2+vr6+nW+N/1rVs2bIXX3yRbVuTgghdKy4ubujQoWfOnJFMOcHFxWXigzIzM1n/999/nx8+efLkV199lW0fO3bMy8uLzuNqQofQql3xaRaLY9O+XHR0NG/08PCQr+m3b98+atQoygN8Ta9xKu7kyZM0XXfu3OEtbm5u1iQD/QAAfp5JREFUX375paRydxqzrTY8tsviCG24hPkPiEyZMoVeJiYmbtmyZfbs2fRjZe1qQ1Ibj2QK1U899RQNgBIjTcVEpCAAABBGh1u/ATiEiCnI5s9RTVRPQQUFBXQvZWVlrD0vL0/+csSIEW+//TbbtiYF8Y+LbNiwIT4+XjJ97J5OWFpayrtx1J//vRl54okn3nvvPdqoq6sLCwujM1dVVQUHB8+cOZMaZ82atWjRIt5ZUhmb9uXU/r5r69at3t7eOTk59JKv6TVOxdXU1FCfc+fOsZfl5eX8pcW705htteGxXRZHaMMlzH9AhYWFFPZ4wqQTylOQxSGpjYd55ZVXJkyYQOmoc74XZPNDCs4NhQF6oWbswVHrN+eD+jRO5DkUMQXZ/J16GimIVqsUIShg0EZTU9OMGTPGjh3L+hw+fNjV1ZV/aMT6FNTY2LhgwYInn3yStdOaePr06ewNE7rKkSNH6EKsPy2gWcyg5bWbmxtbrNNQp06dyo6d2PrtCDdu3PD19eWrbY2xaVxObU3v5+fH/50f+Zpe7VRyNEJKaNROHRYuXEhnY1+zZvHuNGZbbXhsl8UR2nAJ8x/Q1atXqZjZ+0KXLl3y8fGxJgVZHA/5+uuvvby82M+lc6Ygmx9ScG4oDNALNWMPjlq/OR/Up3Eiz2FnSUHk/Pnz0dHR/fr1o/UrLaALCgok05cBuJj0btW1a1d3d/fPP/9cfhJFCvLw8KCeffr0oZV3bm4ua7927drkyZN79uwZHh5Ou2JiYtj3v1H/hISEwMDA0NBQOjAlJUUy/S1c3759y8vL2bE8BZFPP/2U/V2c9tg0Lqe2pqd7r6mpYe3yNb3aqeSKiori4uJo6ugkUVFRZ8+eZe0W705SmW3W3+Lw2C6LI7ThEhZ/QKtWraLZi4yMpPOsXLnSmhRkcTy1tbWDBg36+OOPWTtSEACHwgC9UDP24Kj1m/NBfRon8hx2yBRUXV2dmpoq/0d1rEcrfp49SFpa2vz582X7/2Hu3Ll8aa4XLZHz8vLYF5oxbJHd0NBAq/Zbt27J+rbBmrGZX85m1pyK5pz/ERqjfXeK2bZNO16isrLywoUL5u90gV5tPqTQOaEwQC/UjD04av3mfFCfxok8hx0sBWVlZS1evHjw4MGKj+/b7PDhw8nJyYrGxMTE9PR0RaPNFG81WO8hjM04m+/Oeg/hEqCXxkMKnRkKA/RCzdiDo9Zvzgf1aZzIcyhiCjL/HFV1dfXOnTtHjhzp5+fXv3//r776StFBZMuXLz969Kiy1Vk8hLt7CJcAvcwfUgAJhQH6oWbswVHrN+eD+jRO5DkUMQXJsTd/goKCIiMjfX19AwICOlYEAgAAAHiYRFi/AYhP0BTE3/yJiIigCORrgggEAAAAoM2B6zeADkTEFHTkyJHBgwdT7PH392f5BwCEonxoAQBAGI5avwF0LCKmIKn1vaDRo0c/8cQTjz/+OFt49e/f/9NPP1V2BQAAAIBWDly/AXQgIqYg+eeosrKyEhISBg0aNGLECH9/fwQhABGI/GFHcCAUBuiFmrEHR63fnA/q0ziR51DEFGT+nXr8rSFKQZSFEIQAHMv8IQWQUBigH2rGHhy1fnM+qE/jRJ7DjpGCOPbWUHh4eHv9e0EAYAONhxQ6MxQG6IWasQdHrd+cD+rTOJHnsIOlIKa6ujo1NbWiokK5AwAeijYfUuicUBigF2rGHhy1fnM+qE/jRJ7DDpmCAMCx8JCCRSgM0As1Yw+OWr85H9SncSLPoYgpSOTPUQGAhIcUVKAwQC/UjD04av3mfFCfxok8hyKmIAAAAACwDdZvANZACgIAAABwHli/AVgDKQgAAADAeWD9BmANpCAAAAAA54H1G4A1RExBIn+OCgAkPKSgAoUBeqFm7MFR6zfng/o0TuQ5FDEFifydegAg4SF9uO7du6dsEhUKA/RCzdiDo9Zvzgf1aZzIc4gUBAC6qT2kaWlpn3zyibxl165dBw4ckLeANfbu3fujH/3Ix8ene/fuy5YtU+4WlVphAKhBzdiDo9Zvzgf1aZzIc4gUBAC6qT2kH330Uc+ePW/dusVelpSUdOvW7YsvvniwF7Rh27Ztvr6+e/bsuX79enNzs3K3wNQKA0ANasYeHLV+cz6oT+NEnkOkIADQTe0hbWho6Nev3zvvvMNevvLKK2FhYS0tLbRNC3oKRaWlpbdv35Yf0tTUdPLkyW+++aa2tlbefufOnRKZu3fv8l337t3Lyck5depUY2Mjb6TzX7t2jb+k8EBHVVVV8Zbq6mr5CfmfmVkcAJ1NfsXy8vL6+nq+q66ujm3T/dKp6L/spcVTmbM4fo6O7dGjR3Z29kkTfnKpdVQ3btw4evRoUVGR7CDL51S7C41bsOESJbIfq7ww6PD09PRz587Jg5xtQ1LbBU5A7ZcJGOGo9ZvzQX0aJ/IcipiCRP4cFQBImg/p2rVrWfKhpaq3tzf/BTJkyJCAgICoqCha4tP2lStXqDE/P586R0REjBkzhjrL3zXaunWrh4dHlImbm9uuXbtYO8WDgQMH0hmoPSQk5PTp06ydWh555JELFy6wl3/+85/p19fcuXPZS5KQkODp6clO6OLicuzYMUl9AHS23bt382PpQnv37uW79uzZw7YXLlxIVzl48KCkfioFtfFzNDB3d/dBgwY99thjMTExNGlZWVlsFx01Z86coKAgugT1eeONN1i72jnV7kLtFtguvZeQ/1hp2ln7Sy+9FBwcPGHCBDpVbGzszZs3eX8bhqS2C5yAxi8TsJmj1m/OB/VpnMhzKGIKAoCOq6T1r+Aot8j/Oo6vZe/fvz9u3Lj169dTUoqPj1+3bh3rsH//fh8fH/5GAf3moW5se/jw4SwFNTU1RUZGrl69mrUvXrx42LBh7L0mOv+IESOWL1/Odj311FNxcXHyFLRkyRLqz7Z79+5NYUNjAGqLdbaL3ciJEyeoPyUrWpRrnEpOY/wcnY1+8f7yl79kL19++WUKVzRpkunSNBL2BldGRkb37t0LCws1zql2FxZvgfWx4RKKHyvrQ2XANpqbm6dNm7ZmzRr20rYhqe0CAIuwfgOwBlIQALSzn/70p8899xwtlBMSEngjrWU3btyYnZ29b9++wMDAAwcOXL58mX7D0FI7pxWFk+PHj7P+mzZtmjhxItvmKSg/P58OqaysZO20QKeXxcXF7Pz/8R//4e/vX1tbe/r0aXq5atUqeQqaN2/eihUr2DZLQRoDoMOTkpKyWwUEBChSEC3uY2NjU1JS6Iq0KNc4lZzG+Dk6CTVevHiRvbx58ya9ZO+90KU3bNjAe9K0bNu2TeOcandh8RbY4TZcQvFjZX0oIx06dIj+95GcnDx16lT+o7RtSGq7AMAirN8ArIEUBADtLD09nX51PPLII3l5ebxxiAmthuPi4oYOHXrmzBla7ru4uEx8UGZmJuu/bNmyF198kW3zFERn7tatW+sppfr6eroQ+4OxIaY3GZYuXUpZaOHChf/1X/+lSEFTpkyh9TfbZilIYwB0tujoaN7o4eGhSEHbt28fNWoUrfXZolzjVHIa4+dOnjxJjXfu3OEtbm5uX375pWS69Pvvv8/bJ0+e/Oqrr2qcU+0uLN4CO9yGSyh+rKwPzTa9TExM3LJly+zZs0eOHMnabRuS2i4AsAjrNwBrIAUBQPsLDQ19+umn5S1sLcu2N2zYEB8fX1RURL9hSktL5d24ESNGvP3222ybp6CCggI6pKysjLVTyuIvWQo6f/58WFhYQEBAXV2dIgWFhISkpaWxbZaCNAbAzsZfKv4ibuvWrd7e3jk5OfSSLco1TiWnMX6upqaGGs+dO8delpeX85d0af5Hd+SJJ5547733NM6pdhcWb4H1seESih+rZHqziDIh/xoMOqE8BdkwJLVdAGAR1m8A1hAxBYn8OSoAkDQf0urq6vT0dFdX188++0zezpfLjY2NCxYsePLJJ2l7woQJ06dPZ+97tLS0HDlypKmpibYPHz5MZ+CfLeEpiPrQ9qJFi2iDes6YMWPs2LH8/Gx5vXbt2p07d9IGT0H19fVvvvmmp6cnBQzWmaUgSX0Aaot1tsvPz4//Gz58Ua52KjmN8ctNnDhx1qxZ1IG6LVy4kK7IvmaNNuhyLGvReNzc3CiKaJxT7S7UboHt0nsJ+Y+VUhNtX716lf7fwd4XunTpko+PjzUpSGNIarvACWj8MgGbOWr95nxQn8aJPIcipiCRv1MPACTNh3TMmDG9evWiBbGindayHh4eFD/69OlDa+jc3FxqvHbt2uTJk3v27BkeHk7tMTExtJjev3+/i0nvVl27dnV3d//888/pkPPnz0dHR/fr18/Ly4uW5gUFBfz88uW1JEtBSUlJo0ePlv99Gk9BFgcgmZ1NkYLo6jxQ8UW52qkU1MYvV1RUFBcXRx2oW1RU1NmzZ1k7XTohISEwMDA0NJQmMyUlhbWrnVPtLtRuge3Sewn5j5XmnLXTBv3IIiMj6TwrV660JgVpDEltFzgBjV8mYDNHrd+cD+rTOJHnECkIAHRr34e0trY2Ly+P/9s+aWlp8+fPf7CLRHmG5xDJFDnKy8tl+w1RDMAIK09lzfgrKioUfyzHIkRDQwNlEv7le5w152yTwUvIC6OysvLChQvmb4hBZ0DVm5qaWl1drdxhpn1/mQDjqPWb80F9GifyHCIFAYBudn1IDx8+nJycrGhMTExMT09XNHY25u93tTuDl7BrYUDHkpmZGRER8Ytf/ELx/R8KqBl7cNT6zfmgPo0TeQ6RggBANzykDrF8+fKjR48qW9uVwUugMECOgtDAgQP9/PyGDx/+3nvvWXxrCDVjD45avzkf1KdxIs+hiClI5M9RAYCEhxRUoDBAgYJQaGgoBaHg4ODAwEDzt4ZQM/bgqPWb80F9GifyHIqYggAAAMA58CDk6+vbv3//kJAQjbeGoF1g/QZgDaQgANDNFwDAGIpDR44cUf5ygfaA9RuANZCCAAAAwF4yMzMHDx4cEBDAwk9gYGB0dPSWLVvwXpD9YP0GYA2kIAAAALALFoH8TQYMGDBz5kztr4yDdoH1G4A1RExBIn+OCgAkPKSgAoUBchSBAgMD/fz8NN78Qc3Yg6PWb84H9WmcyHMoYgoS+Tv1AEDCQwoqUBjAsX8vaPbs2dpv/qBm7MFR6zfng/o0TuQ5RAoCAN3wkIJFKAxgKioqUlNTLb75o4CasQdHrd+cD+rTOJHnECkIAHTDQwoWoTBAL9SMPThq/eZ8UJ/GiTyHSEEAoBseUrAIhQF6oWbswVHrN+eD+jRO5DkUMQWJ/DkqAJDwkIIKFAbohZqxB0et35wP6tM4keew7RREEhMT6SX9F9vYxja2sY1tbGMb2yJvIwUBWKOLskEGTxEAAABAx4L1G4A19KWg+/fv72517do1amlqarpv5p+nAJ0qKir4DDc0NCh3AwAAAGgyX78BgDl9Kai2tpZa3N3dw8PDjx07Ri1du3btYiY7O/ufZwE9srKyaG5phmkav/vuO+VuAAAAAE3m6zcAMGdLCho9ejRvYSlo6dKlq0x69eolT0Fq7xFVVFRcvnz57t27vEX+ntL//M//0H9bWlrYrrKysjt37vCezc3NfC/9l2+zdvov78nQXjoDjZy3mL9/xc5D7awDa+T9H+gqazc/8/3Wk7ATKgajuBGNzk899RRSEIhM5A87ggOhMEAv1Iw9mK/fwDaoT+NEnsP2SUF8vR4YGMhTUHV1NXtriLt06RK1s6REHnnkkenTpzc2NlJjjx49HuzbJS0tLTU11dvbm/V84YUXWN7Izc2lxqCgIMpRycnJtJfGmZeX5+fn5+/vn5+fz8dGPvroo759+7IT/vCHPywtLbV4rQ8++ID+Gx4eTnt/9atf0TYlOnYGtbswPzNNQpfWkxw9epS2f/KTn7CTmN+IRmcJKQiEJ/IXX4IDoTBAL9SMPZiv38A2qE/jRJ5DO6agmzdv0raPj8/u3buDg4O7tOaHLVu2nDx58vz58zNnzqTGXbt2USO9PHPmzNChQ6llwYIFtJ2ZmdmtW7fHH3+cOm/evJnaKZ+wq1BnyjwDBgyYO3cu69+vXz+6dGFhIevAUF6i4VE0+uyzz377299Sz3/5l39RXOtvf/sbbVOgou2wsLCFCxfSxmuvvcZPYvEuLJ5ZLdicPn3a/EbUOjNIQSA4kX+pgQOhMEAv1Iw9mK/fwDaoT+NEnkM7pqCKigrafuyxx2h7+PDhLD+0tLRQEhg3bhy1+/r6UuPq1av52ejM1PLyyy/T9ltvvUXbUVFRM2bMeP7552k7IiKC90xLS+vyoL///e98L0Pzzs/W1NT06KOPurq68j9pY9diwYxlEuYHP/iB/CQW78LimcvLy6nRw8Pjhz/84bBhw7q0BhuLN8KuaN6ZQQoCwYn8Sw0cCIUBeqFm7MF8/Qa2QX0aJ/Ic2jEFffvtt7RNC3pJlh8+/PBD2hg/fvynn36akJBA2ytWrOBnk6cgljTGjBnz21ZJSUmsW3V1dXBwcJ8+fdjlQkNDe/ToERkZKf/UDT8DzyquJhop6JFHHomNjaUNGiQ/icW7sHhmloK8vb0p5i1evLhLa7CxeCPsiuadGaQgEJzIv9TAgVAYoBdqxh7M129gG9SncSLPob1S0OnTp2NiYmibRReeH373u9/RxsyZMyldjBw5soulFPTJJ59IrX9IFhER8b//+7+5ubkffPABBQbJ9F0CU6dOpcSyf/9+/rmgP/7xj7Txs5/9jJ+KnDp1SvF3a5MmTeJ7zVNQeHh4XV3dkCFD3N3d6VjJNAaLd2HxzGp/5GbxRtQ6M0hBIDiRP+wIDoTCAL1QM/Zgvn4D26A+jRN5Du2VglJSUnx9fX/961+zLz/g+aGsrCwsLIy2+/TpM2PGjC6WUhBLJoSyjY+PTxeT733ve5s2baLG119/vUvr39HxFETbS5Ysoe0dO3bws5Fdu3Z5eXmxM4wfP764uJjvspiCaLugoIDGFhISUlNTo3YXFs+sEWzMb0Sjs4QUBAAAALYyX78BgDlbUlCvXr0oQhw/flzWV4empqaSkhLzr7RWU15eXlpayr/GWq+WlhY6/Pbt28odhuk9szU38u2339Lcsq/RQwoCAAAAvczXbwBgTl8Kamxs3NzqypUr/+wK7aS4uJjPcF1dnXI3AAAAgCbz9RsAmNOXggAAAABAZFi/AVhDxBQk8ueoAEDCQwoqUBigF2rGHhy1fnM+qE/jRJ5DEVOQyN+pBwASHlJQgcIAvVAz9uCo9ZvzQX0aJ/IcIgUBgG54SMEiFAbohZqxB0et35wP6tM4kecQKQgAdMNDChahMEAv1Iw9OGr95nxQn8aJPIdIQQCgGx5SsAiFAXqhZuzBUes354P6NE7kORQxBYn8OSoAkPCQggoUBuiFmrEHR63fnA/q0ziR51DEFAQATuz+/fupqamLFi2aN28e/ZKprq5W9gAAAAOwfgOwBlIQADw8NTU1cXFxYWFhGzdufOedd37wgx/4+fmdO3dO2Q8AAGyF9RuANZCCAODhmT9/PkWg27dvs5ctLS3PP//8448/ThtVVVUlZhobG6nb9evX6+rq2CF37twpLS3lJywqKkpPT6cc1dzczFqqq6uPHz9OjeXl5bybAp2QTk7n4SMxd+/evZycnFOnTrExMOxAufr6er6XLi3fRWdg7eaD1LhZ0tTUdPLkyW+++aa2tpa1AABYD+s3AGsgBQHAQ0IBxtXV9YMPPpA35ufn0+8ZCglr166NMnF3dw8ICGDbtJf6DBkyZM+ePbRRVlYWGhq6ceNGduxLL70UHBw8YcKEoKCg2NjYmzdvUuPAgQNHjBgRHx/v5ub2xhtvyC71T3RCdokePXrQ9pUrVxQdsrOz6Ty0i/qEhIScPn2atfMDGbqdvXv38qMSEhI8PT3ZLhcXl2PHjkkqg9S4WfovBcWIiIgxY8Z4e3t/8cUX/PwAANbA+g3AGiKmIJE/RwUAkq0P6YkTJ+hXypkzZxTtvXr1ot82/OXIkSN3794t2///KejatWuDBw9OSkri7SUlJWyjubl52rRpa9askUxvpLDGv/zlL/379+ed5Xisun///rhx49avXy/fS2eIjIxcvXo1e7l48eJhw4a1tLSwA+Vjo4AkT0FLliyhzmy7d+/eLAVZHCSnuFm6CuW3devWsZf79+/38fG5e/cu7yA42woDOjPUjD04av3mfFCfxok8hyKmIJG/Uw8AJFsf0oyMDPqVUlxcrGgfMGAAf3tHMgsGkil7vPPOOxEREQsWLJC3U2Y4dOgQ/Y5KTk6eOnXqxIkTWXt2dvZnn3323HPPLV++XN6foxPSFanbvn37AgMDDxw4IN/L3p6qrKxkLwsLC/mwtVPQvHnzVqxYwbZ5ClIbJKO42cuXL9O1aKJyWtF5jh8/LjtCaLYVBnRmqBl7cNT6zfmgPo0TeQ6RggBAN9se0osXL9KvFJYNuMbGxq5du/7hD3/gLRZTkKurK6Uaf3//qqoq3j5lypShQ4cmJiZu2bJl9uzZdCBrX7NmzTPPPDNo0CD2ho+5ISYUSOLi4ugMiren0tPTu3Xrxl/W19fTsLOysqS2UhCNh79VxVOQ2iAZxc1S/nFxcZn4oMzMTNkRQrOtMKAzQ83Yg6PWb84H9WmcyHOIFAQAutn8kFIyWbJkibzlww8/pMjB/2xMMgsGkil7LFu2jDbmzJkzffp01lhYWEiBgX+9wbp16xQB4+zZs927d7f4Tdz8L+LIhg0b4uPj5XsLCgroV19ZWRl7mZeXx19qpyB6mZaWxrZZCmpzkIqbLSoqomvJv/6hY7G5MKDTQs3Yg6PWb84H9WmcyHOIFAQAutn8kFJIcHV1/eijj9jHbL755htfX99Vq1bJ+1hMQSy01NTUDBw4kIITbV+9erVL66eMLl265OPjQwfW19fz71X78ssvKQXxL5eT4ydsbGxcsGDBk08+Kd9LYxs+fPiiRYtoo6mpacaMGWPHjuUHWkxBdF2aE09PTxoh28VSkMVB8sMlSzc7YcIESnp37tyRTCM5cuQI/6ST+GwuDOi0UDP24Kj1m/NBfRon8hyKmIJE/hwVAEjGHtKPP/44ICCAAoOfn1/Pnj3Xr1/Pvz+aMQ8G8rdujh492qdPH/atbhSf3N3dIyMjQ0NDV65cSQdevnz5+9///uOPPx4REeHl5bVr1y7Zaf6JTujh4UFBhU5FCSc3N1fR4fz589HR0f369aOTUCIqKChg7WopKCkpafTo0fI/XeN/EWc+SN5HsnSz165dmzx5Ms1MeHg4DS8mJkb+Vd2CM1IY0DmhZuzBUes354P6NE7kORQxBQFAR1ddXZ2amlpRUaHcYdLS0kJxJT8/n/+LOjarrKy8cOGC/N0SygwXL14sLCw0Hh4okGj8o0PWMx9km2pra/Py8uQfggIAsBLWbwDWQAoCgPaUlZW1ePHiwYMHd6DP9AMAOBOs3wCsgRQEAO2gurp6586d8fHxfn5+/v7+Bw8eVPYAAICHAus3AGsgBQGAIezNn+Dg4KioKF9f34CAAEQgAAAHwvoNwBoipiCRP0cFAJLpIeVv/kRGRlIE8jVBBOrk8Nsb9ELN2IOj1m/OB/VpnMhzKGIKEvk79QCAJCQkDB48mCUfAA6/vUEv1Iw9OGr95nxQn8aJPIdIQQCgGz2keC8IzOG3N+iFmrEHR63fnA/q0ziR5xApCAB0kz+k+FwQcPjtDXqhZuzBUes354P6NE7kOUQKAgDdzB9SfEccSJYKA0AbasYeHLV+cz6oT+NEnkMRU5DIn6MCAEnzIcW/F9SZaRQGgEWoGXtw1PrN+aA+jRN5DkVMQQDQ0VVXV6emplZUVCh3AACAnWH9BmANpCAAAAAA54H1G4A1kIIAAAAAnAfWbwDWQAoCAAAAcB5YvwFYQ8QUJPLnqABAwkMKKlAYoBdqxh4ctX5zPqhP40SeQxFTkMjfqQcAEh5SUIHCAL1QM/bgqPWb80F9GifyHCIFAYBueEjBIhQG6IWasQdHrd+cD+rTOJHnECkIAHTDQwoWoTBAL9SMPThq/eZ8UJ/GiTyHSEEAoBseUrAIhQF6oWbswVHrN+eD+jRO5DkUMQWJ/DkqAJDwkIIKFAbohZqxB0et35wP6tM4kedQxBRks48//jjZTEZGhrIfAAAAgJPqcOs3AIdwqhQ0ceLEqKio+TLe3t6vvfaash8AAACAk+pw6zcAh3C2FLRixQp5y8iRI+Up6N69ezk5OadOnWpsbOSN169fLykpKS0tvX37NmupqqoqMcMPUTvJ3bt3b9y4cfTo0aKiInl7XV0d225oaKDz0H8l9Uuw8/DD1aiNQXHC+vp6tqu6ulreTofzo2i06enp586da25uZi0Wx1ZZWXnz5k1+FCkrK+PnBwAAAEF0uPUbgEN0ohSUnZ09cODAIUOGREVFhYSEnD59mrVTS0BAADX26NGDtq9cubJ27dooE3d3d7aL5Ofna59kzpw5QUFBY8aMoaPeeOMN3r5nzx62vXDhQprPgwcP0rbaJaj/7t27WX81GmPgpyKurq579+5luxISEjw9PVm7i4vLsWPHWPtLL70UHBw8YcIEGnlsbCzLORbHRndE12ppaWEH5ubmdu/enXIXewkAAACC6HDrNwCHEDEF2fw5Ko0U1NTUFBkZuXr1ata+ePHiYcOGsTU9Dyr3798fN27c+vXr5YfLM4n2SSgkVFVV0XZGRgYlhMLCQtbOTn7ixAkfHx+KIiwFcYpLtJmCtMcgP5bGw1PQkiVLqCfb7t27N09BJSUlbKO5uXnatGlr1qxhLxn52BoaGvr27csHv3Tp0hdeeOGfXaGTsfkhBeeGwgC9UDP24Kj1m/NBfRon8hyKmIJs/k49jRSUn59P91JZWcnaKaLQy+LiYskUHjZu3Jidnb1v377AwMADBw7ID5fnCu2TbNiwgfccPnz4tm3bWDulIMoYsbGxKSkp/v7+baagpKQkGgxdi/3tnIL2GNRS0Lx58/jMyFMQxadDhw7Rjzg5OXnq1Kk0gaydUYztN7/5zfTp02nj7t27dJLDhw//syt0MjY/pODcUBigF2rGHhy1fnM+qE/jRJ7DzpKC0tPTu3Xrxtvr6+vp1rKysiRTeCB0bFxc3NChQ8+cOcO7KWKA9knef/99vmvy5Mmvvvoqa6cUtH379lGjRlHksCYFRUdHs8F4eXlRMJP1/QftMailoClTplC4YtvyFETtdMuJiYlbtmyZPXs2DYa1M4qxUeJ69NFHr1+//sEHH4SFhfG/joNOyOaHFJwbCgP0Qs3Yg6PWb84H9WmcyHPYWVJQQUEB3UtZWRlrz8vL4y/5H62RDRs2xMfH///BZjFA+yTr1q3jPZ944on33nuPtW/dutXb2zsnJ4deWpOC+EsaTExMDN/FaI9BLQXRdlpaGtvmKYhSjYuLC/9OCBq/dgoikyZNev3112mKNm/eLG+HzsbmhxScGwoD9ELN2IOj1m/OB/VpnMhz2FlSUEtLy/DhwxctWkQbTU1NM2bMGDt2LOvDU1BjY+OCBQuefPJJ+eHyGKB9Eko4paWltE3Zw83NjScTPz+/ZcuWsW7WpyA2GH5+TnsM5imovr6e5tPT07Ompoa18xR09epV+vmy974uXbrk4+PTZgrav39/3759H3300e+++07eDp2NzQ8pODcUBuiFmrEHR63fnA/q0ziR51DEFNTm56iqq6tTU1MrKioU7RopiJw/fz46Orpfv35eXl4UJAoKClg7hQcPDw/KBn369KFEkZubKz9cEQM0TpKQkBAYGBgaGkpnS0lJ4e3UmScQa1KQfDD8+9/kNMZgnoKSkpJGjx6dmZnJ2+V/Ebdq1Sp3d/fIyEga9sqVK9tMQZS7AgICZs2aJW+ETqjNhxQ6JxQG6IWasQdHrd+cD+rTOJHnUMQUpCErK4vCRnh4uHxZr8u1a9fKy8uVrTqZn4QlkIaGBooot27dku+yE/Mx2KaysvLChQsUb5Q7LKmtre3Vq1dGRoZyBwAAAIhBwPUbgIA6Rgqqrq7euXPn2LFj+/fv7+/v/8knnyh7OJrifRindPDgwTlz5ijeLwIAAAChiLN+AxCZ6CmIvfkTEhLy5JNPBgYGUgoSMAKR5cuXHz16VNnqXJ5//vn58+dfuXJFuQMAAACEIcL6DUB8gqYg/ubPkCFDYmNjfU2EjUAAAAAAgnDg+g2gAxExBW3btm3w4MEUewIDA1n+AQChiPxhR3AgFAbohZqxB0et35wP6tM4kedQxBT05ptvsveCYmNjw8LCAgIC2MJrwIABR44cUfYGgIdO5C++BAdCYYBeqBl7cNT6zfmgPo0TeQ4FTUF8Oysra+HChewbqBGEAAQh8i81cCAUBuiFmrEHR63fnA/q0ziR51D0FMTwt4b8/Pz8/f0RhAAcy/whBZBQGKAfasYeHLV+cz6oT+NEnsOOkYI49tZQWFiYzf9eEAAYp/GQQmeGwgC9UDP24Kj1m/NBfRon8hyKmILa/BxVdXV1ampqRUWFcgcAPBRtPqTQOaEwQC/UjD04av3mfFCfxok8hyKmIAAAAACwDdZvANZoOwX9+Mc//j0AAAAAdAS0ckMKAmhT2ykIAAAAADoWpCAAbVopqLi4+F0AAAAA6GhoFadc2AGAjFYKchSRP0cFABIeUlCBwgC9UDMgMtSncSLPoYgpSOTv1AMACQ8pqEBhgF6oGRAZ6tM4kecQKQgAdMNDChahMEAv1AyIDPVpnMhziBQEALrhIQWLUBigF2oGRIb6NE7kOUQKAgDd8JCCRSgM0As1AyJDfRon8hyKmIJE/hwVAEh4SEEFCgP0Qs2AyFCfxok8hyKmIAAAAAAAAPtBCgIAAAAAgM4FKQgAAAAAADoXpCAAAAAAAOhcRExBIn+OCgAkPKSgAoUBeqFmQGSoT+NEnkMRU5DI36kHABIeUlCBwgC9UDMgMtSncSLPIVIQAOiGhxQsQmGAXho18/HHHyebycjIUPYDsBuN+gQriTyHSEEAoBseUrAIhQF6adTMxIkTo6Ki5st4e3u/9tpryn4AdqNRn2AlkecQKQgAdMNDChahMEAvjZqhFLRixQp5y8iRI3kKunfvXk5OzqlTpxobG+V97ty5UyJz9+5d1n79+nV5Oz/K/DxVVVXynm32l1pPXlpaevv2bXljXV0d26ZR0V6+q6ioKD09/dy5c83NzbxRgXZdvHiRutGZWYviFkh9fT3fxa/V0NBAu+i/audR9JePrc2BVVdXHz9+nPqUl5fL29UOVPtxSJYOaWlpoT5NTU3s5c2bN2/dusX7O4RGfYKVRJ5DEVOQyJ+jAgAJDymoQGGAXho1o5GCsrOzBw4cOGTIkKioqJCQkNOnT/M+W7du9fDwiDJxc3PbtWsXa6fOAQEBrJ2cPXtW7Txr165lfdzd3fkh+fn5av3lJ+/RowdtX7lyhTXu2bOHNsrKykJDQzdu3Mg6v/TSS8HBwRMmTAgKCoqNjaW1PmuXu3DhQkxMTGBg4Pjx4319ffft2yeZ3YKrq+vevXtZf34tsnDhwi5duhw8eFDtPPL+8rFZMzC6/REjRsTHx9PcvvHGG6xR40C1H4fFQ2pra2nkbPbIT37yE4e/9adRn2AlkedQxBQEAAAAnZxaCmpqaoqMjFy9ejVrXLx48bBhw1paWtjLd999d9y4cWx7+PDh8hS0e/duts1on0cyXU5+iEZ/Hiru379PV1+/fj1vvHbt2uDBg5OSkvh5+Hsyzc3N06ZNW7NmDd/F0DkpacyfP5+9SULXrampkcxugWKYeQo6ceKEj4+Pp6cnpSC18/D+irG1OTDJdBK28Ze//KV///5sW+NAtR+HxUPu3r1LKaiwsJDtEiEFgXNDCgIAAADhqKWg/Px8WitXVlayRlo008vi4mL2ctOmTXQg29ZOQdrnkcxSkEZ/OvnGjRuzs7P37dsXGBh44MAB1vjOO+9EREQsWLCAn0QyhZxDhw5RPEhOTp46dSofLVdQUEBnpoiiaG8zBVGiiI2NTUlJ8ff3pxSkdh7W33xsbQ6Modv87LPPnnvuueXLl7MWjQPVfhxqh/Tr12/Hjh1sGykI7A0pCAAAAISjloLS09O7devGG+vr62mtn5WVxV4uW7bsxRdfZNvaKUj7PJJZCtLoP8SEBhwXFzd06NAzZ86wRldXV0oLlEmqqqr4gVOmTKE+iYmJW7ZsmT17Nl2F72IyMjLkF+LaTEHbt28fNWoUBQyWgtTOI6mMrc2BMWvWrHnmmWcGDRrE/wZP40C1H4faIRQjAwICevfu7eXlRSNECgK7QgoCAAAA4ailIPYWR1lZGWvMy8uTvxwxYsTbb7/NtrVTkPZ5JLMUpNGfhRDWvmHDhvj4eNZIGYA25syZM336dLa3sLDQxcWFf4nCunXrzMNGUVERnZn+q2jXTkFbt2719vbOycmhlywFqZ1HsjQ2awYmd/bs2e7du1dXV2sfaPHHoX2IZPq7u/v370+bNg0pCOxKxBQk8ueoAEDCQwoqUBigl0bNqKWglpYWWk8vWrSINmi5PGPGjLFjx7IOhw8fdnV15Z850U5BGudhFClIoz9PQY2NjQsWLHjyySfljTU1NQMHDvzwww9p++rVq5RM2JtFly5d8vHxsRg2xo0bRxmAfY0bpQX2V23aKcjPz48FG6k1BUkq52H9FWOzZmD19fW1tbVs+8svv6QURGfWOFDtx6FxiJwIfxGnUZ9gJZHnUMQUJPJ36gGAhIcUVKAwQC+NmlFLQbRx/vz56Ojofv36eXl50dq6oKCAGvfv3+9i0rtV165d3d3dP//8c8ksQjAWz8MpUpCk3p9O7uHhQVfs06cPRaPc3FzWyN8gOnr0KO1i3362atUqGlVkZGRoaOjKlSstBoDi4uLx48f37Nlz8ODBnp6eX331lWR2C4oURKPiX37AU5DF87D+5mNrc2CXL1/+/ve///jjj0dERNAM8IRp8UDtH4fFQxTsl4IqKipSU1Orq6uVO8xo1CdYSeQ5RAoCAN3wkIJFKAzQy0jNXLt2Tf6v1qSlpc2fP1+2/x/mzp3Lo4IaxXnapLe/ucrKygsXLvDvW1NDy/T8/Hz5v7FjG+vP0+bAGhsbL168WFhYqPhnmswPbPPHYX7Iw5SZmUlZLiEhQf5JMHNG6hMYkecQKQgAdMNDChahMECvdqyZw4cPJycnKxoTExPT09MVjfAQiP/j+PrrrwcMGNC/f//Ro0fv3LnT4ltD7VifnZbIc4gUBAC64SEFi1AYoBdqBhyIglBgYKC/v//w4cMHDRpk/tYQ6tM4kedQxBQk8ueoAEDCQwoqUBigF2oGHIsFIV+Txx577PHHH5e/NYT6NE7kORQxBQEAAEBnwFafAOLo378//Tc0NPTIkSPKegXnghQEAAAAAJ0R+5qEkJAQHoHCw8MTExMtfkwInAxSEAAAAAB0OiwCBQUFsfzz7LPPZmRkKDuB80IKAgAAAIDOhSIQ5R8/Pz+8+dNpiZiCRP4cFQBIeEhBBQoD9ELNgEOwd4GmTp2q/eYP6tM4kedQxBQk8nfqAYCEhxRUoDBAL9QMPHwVFRWpqanWvPmD+jRO5DlECgIA3fCQgkUoDNALNQMiQ30aJ/IcIgUBgG54SMEiFAbohZoBkaE+jRN5DpGCAEA3PKRgEQoD9ELNgMhQn8aJPIcipiCRP0cFABIeUlCBwgC9UDMgMtSncSLPoYgpCAAAAAAAwH6QggAAAAAAoHNBCgIAAAAAgM4FKQgAAAAAADoXEVOQyJ+jAgAJDymoQGGAXqgZEBnq0ziR51DEFCTyd+oBgISHFFSgMEAvm2vm448/TjaTkZGh7AdggM31CZzIc4gUBAC64SEFi1AYoJfNNTNx4sSoqKj5Mt7e3q+99pqyH4ABNtcncCLPIVIQAOiGhxQsQmGAXjbXDKWgFStWyFtGjhzJU9C9e/dycnJOnTrV2Ngo73Pnzp0Smbt371JjVVWVvJFhB16/fp22S0tLb9++LT8PaWpqOnny5DfffFNbW8sbqT+d88aNG0ePHi0qKuI96SQ0JPbyu+++44fcunWroqKCbUsqw2M0LsdflpeX19fXs/a6ujrW2NDQQKei//JuFk8lZ/GuFdciLS0t1I3OxjvIB0/YYCT1H0d1dbW8P5sitZtiLA5e7RDteSA1NTXs0vRDkbdzNtcncCLPIVIQAOiGhxQsQmGAXjbXjEYKys7OHjhw4JAhQ6KiokJCQk6fPs37bN261cPDI8rEzc1t165d1Lh27VrW4u7uHhAQwLbz8/NpF52EtfTo0YO2r1y5ws5De8PCwiIiIsaMGePt7f3FF1+wduozZ86coKAgaqezvfHGG5IpLcybN2/SpEksA9DIf//739MGnW3AgAF79uxhx0oqw5M0L7d7925+ON3s3r17WTs/7cKFC7t06XLw4EH2Uu1UchbvWnEtyZRh6MwUIRRHMa6urmwwGj+OhIQET09P1t/FxeXYsWPsPBZvSlIfvNohGvNAOYq6+fv706V9fX3ph8IPl7O5PoETeQ5FTEEif44KACQ8pKAChQF62VwzaimoqakpMjJy9erVrHHx4sXDhg2jHMJevvvuu+PGjWPbw4cP5zGDoTMoFvp8GX3//n06cP369ZIp1cTHx69bt4712b9/v4+PD3svgvrT2rqqqoq2MzIyunfvXlhYKJnewZg2bdqMGTOam5tZCqqoqKAF/Y4dO/i1JJXhaV9Oe/V/4sQJ6kxJg63+NU4lZ/GurUlB5oPR/nEsWbKEWth27969tVOQxuDVDlGbB/L0008vXbqUbW/evFktBdlcn8CJPIcipiAAAAAADWopKD8/n5bmlZWVrJFCCL0sLi5mLzdt2sTXu1amoI0bN2ZnZ+/bty8wMPDAgQPUePnyZTonhZycVrSCP378OOu/YcMGfjhdYtu2bWy7oaEhPDx80aJFNAAaJ/Vcvnw578lYHJ725ZKSkrJbBQQEyFf/lLhiY2NTUlL8/f3Z6l/jVHIW75pfi2aY/V2ZNSlI+8cxb948/kOUpyCLN6UxeLVD1OaBPPvss7NmzWJ/g6eRgsC5IQUBAABAB6OWgtLT07t168Yb6+vraemclZXFXi5btuzFF19k21amIELXiouLGzp06JkzZyTTmzwuLi4TH5SZmcn6v//++/zwyZMnv/rqq2yblvheXl50HlcTOoQChuLjRhaHp3256Oho3ujh4SFf/W/fvn3UqFEtLS189a9xKjmLd82vRY10IxSQrElB2j+OKVOmUHph2/IUZPGmNAb/f+3dC1wVZd4HcFMkQEtNUW6CIiDkDe/kPdqiVbJy10zd0l711ULf3GXX8oKiQpaX8paaad5IM2zVtLVSAbNUMhcvCaiAeFREU0Hxgoie9788+ew4c+bhDAflgfP7fp6PnznPmXlmzjPPnPP8PBf0NtHrB3PJh+t69uxJx0b7dXJyCkMKsktIQQAAAFDJhOmkoIyMDJpnnz17llWmpaUpb3bs2PHDDz9ky1amIP7FkpiYmJCQEFrIzs6mNs+cOaNck6H1+Ue2SKtWrZYsWUILN27c8Pf3p8YvX77ctGnTV199lSoHDhw4cuRIvrJZ5/DEu9MGD1a/YMECV1fXlJQUusln/4KmlCw+auW+qDI4ONiaFCQ+HbROfHw8Wy71E3GCg9fbRK8fmAkTJoSGhlI6wntBdgspCAAAACoZvRREk1rKD5QuaKG4uHjAgAHdu3dnK+zcudPR0ZHP2g2loKKiouHDh3fp0oXV0+y5f//+165dM5d8XyUhIYH9VBqtT1NtNlOnibiTkxOb8dOh9u3bl20bdu/XES5evOjm5sbn5YLDE+xOb/bv7u4+evRoVq+c/es1pWTxUfN9sUrqVWtSkN7puHnz5uzZs+vVq5efn8/WLzUFmfUPXm8TQT/8+OOP9evXZwePFGS3ZExBMn+PCgDMuEhBBwYGGFXqmKGpdlxcnPLnpBm9FEQLqamprVu3btiwIU1zaQqekZFhLvkyffUSde6pUaOGs7Pz1q1blS1oU5CLiwutXLduXZq+Hzp0iNXn5OSEh4fXrl27efPmdFdwcDD7/TdaPyIiwsfHx8/PjzZcvny5ueSzcA0aNDh37hzblqcg8s9//pN9Lk58eILd6c3+6eHzgKGc/es1pWTxUasqDx8+bE0KMuucjmnTpnXt2lX5Ybw6VqQgvYPX20SvHwoKCnx9fdeuXcvqBSmo1PEJpZK5D2VMQTL/ph4AmHGRgg4MDDBKMGaSk5MpUQQFBWm/uGINmjHz4EHi4+OHDRumuP8/hgwZwmfYZUCT6bS0NPaLcAybjhcWFtLU/8qVK4p1S2HN4Wl3V2bl2JSVVKfDFg/z4AXjE6wkcx8iBQGAYbhIwSIMDDBKO2by8vKWLl3ao0cPDw+Pxo0bb968WbVC2ezcuXP69Omqyujo6KSkJFWlLVRvSljv4RweGKUdn2CUzH2IFAQAhuEiBYswMMAo5Zhhb/74+/uHhYW1bNmSUtCGDRsU61YCY8aMSUxMVNdCpYXnNNvJ3IdIQQBgGC5SsAgDA4yiMcPf/OnYsWNYye9Hu7m5VcYIBFUPntNsJ3MfypiCZP4eFQCYcZGCDgwMMGrhwoX+/v4Ue1q2bOkGIBk8p9lO5j6UMQUBAACAncjLy5s0aVJAQIC7uzubejZu3Jhulu1HEQAArIQUBAAAABUvISEhLCzMw8ODgpCXlxeCEAA8UEhBAAAAIAv+1hBlIR8fHwQhAHhAkIIAAABAOgkJCX/84x+bN2+OIAQAD4KMKUjm71EBgBkXKejAwACjSh0zeXl5cXFxubm56jsAHrxSxyeUSuY+lDEFyfybegBgxkUKOjAwwCiMGZAZxqftZO5DpCAAMAwXKViEgQFGYcyAzDA+bSdzHyIFAYBhuEjBIgwMMApjBmSG8Wk7mfsQKQgADMNFChZhYIBRGDMgM4xP28nchzKmIJm/RwUAZlykoAMDA4zCmAGZYXzaTuY+lDEFAQAAAAAAPDhIQQAAAAAAYF+QggAAAAAAwL4gBQEAAAAAgH2RMQXJ/D0qADCX9SK9c+fOpk2bxo0bN2TIkLfffvurr76iGvVKUJmVbWCAPcOYAZlhfNpO5j6UMQXJ/Jt6AGAu60VaUFDQtGnTyMjIOXPmTJgwgZb79Olz9+5d9XpQaZVtYIA9w5gBmWF82k7mPkQKAgDDynyRKjNPZmZmtWrVjh49ym5mZ2cnJSXRTeUbROfPnz99+vSZM2euXr3KK5ni4uIDBw7s3buXwhWvpPWvX79+8eLFxMREalBVz5YvX7585coVtkzb/vbbb3w1QZv85rlz527evMnqb9y4wSoLCwvpOOlfvprFppTYQ1NizTK3bt1KSUk5ePBgUVERr7x27ZpyfX5Uqqb4JtpG6LEr1yx1fbPOKVA+djoqupctR0dHC/oEQKvMTyYADwHGp+1k7kOkIAAwrFwuUppt16hRgybKtDx06NCmTZuGhoY2adKkQ4cOly5dYuu0adPGy8urRYsWtWrVouWTJ0+y+vT0dH9//8DAwG7durm6um7bto2vP3jwYGqE6p2dnWfOnMnr16xZw5ZphXfeeYctz5o1KywsjC0L2uTbkmbNmm3cuJHVr1u3jlWOGDGCEt327dvZTb2mlPhDYxwdHVmzZP/+/d7e3rQC1dPuDh8+zOoXLFjg4uLC1ndyclqxYoXFpn799Ve9RiZOnMjWoc7hm9DR6q2vbFx5CvhjP3v2rJ+fX2xsLFvZw8NDr08ALCqXJxOABwTj03Yy9yFSEAAYZstFumXLlpEjR77yyiuUE1auXMkqWRYyl3x3qF+/fuPHj2c3+Wz79u3bvXr1mjx5srnkDaWQkJCoqCi2zubNmxs1asTeGKH1aQZ/+fJlWt61a1fNmjUzMzNZvTgFidsUp6Cff/6ZVq5Xrx6b8QuaUtJrtri4OCgoaNy4cax+1KhR7dq1Y++hzZs3jzqB1bdv316ZgpRNmYWNMJ07d1ZuIljf4ilglTk5OQEBAdOmTePt8BSk6hMAPbY8mQA8aBiftpO5D2VMQTJ/jwoAzLZdpLt3754xY0ZkZKSvr+9rr73GPv9GE+4dO3bQLH/69Ol9+/bl78/QbDs2Nnb//v2bNm3y8fH55ptvqDIrK6tatWoUclLuqVOnzr59+9j6MTExfF8UFRYuXMjqxSlI3CZN9Pff4+XlpUxBdPwdOnRYvny5p6cnm/ELmlLSS0Hp6em0+YULF1g9+9ygyWSiZeo33jPiFCRohFGlIMH6Fk8BVc6dOzcwMHD48OG8EeLn52exTwD02PJkAvCgYXzaTuY+lDEFAYA9uHjx4mOPPRYfH0/LL7zwQtu2baOjo+fPnz9o0CCao7N12pSgqX+nTp1ohSNHjphL3uSpXr162P327NnD1l+2bBnfRXh4+KRJk1i9OAWJ22zdujWvdHFxUaagxYsXP/XUU5Ti+Ixf0JSSXgpKSkpycHDg9Tdv3qRAkpycTMujR49+/fXXWb04BQkaYVQpSLC+xVNANY6Ojn369KFHzd55Y/T6BAAAQDZIQQBQYWjqP2fOnMzMTIoN/Mv3UVFRyhTEv2cSExMTEhJiLvkdBZqj82/kK9H6/KNopFWrVkuWLGH14hQkbtNiXKH6BQsWuLq6pqSk0E0+4xc0paTXbEZGBm1+9uxZVp+WlsZvduzY8cMPP2T14hQkaIRRpSDB+hZPAVVSJDOXdGb//v1/b0W/TwAAAGSDFAQAD0lOTs7SpUvZN2SKi4sXL17s4OBw6NChU6dO0Zybvclw4sSJRo0aaVNQUVHR8OHDu3TpwupDQ0Np8n3t2jVzyafpEhISqEG2Ps28WQKhUOHk5MSn8uIUJG7TYlyhend3dxYGzPfP+PWaUtJrltanhDNy5EhaoK0GDBjQvXt3qt+5c6ejoyP/ApU4Bek1wqlSkGB9i6eAV+bn53t7e69atYqvrNcnAAAAUkEKAoCH5Pz58y1atKhevXqDBg0effRRWv7666/ZXZGRkc7OzkFBQX5+fmPHjlWmIBcXlzp16tStW5fm5RSZWD0FqvDw8Nq1azdv3pzuCg4OZj/uTOtHRET4+PhQO7Th8uXLVe2QmjVr0t7ZMsUknoIEbVqMK1TfsGFDigGsXjnj12tKSa9Zkpqa2rp1a2q8fv36FE4yMjI2b95cvQQ7bFKjRg3qsa1bt2qb0mtEea8qBZn117d4CngKIomJiXQX/+04vT4BAACQiowpSObvUQGA2YqLNC8vLy4uLjc3V32H2Xz9+vVjx45RIlLVX7hwgeq175kIFBQUpKWlqb6XQpP7wsJCmtPzPwpkiLbNMrOxKYpS586dY8vx8fHDhg27/37zkCFDeHDSo2zEGkbXVyl1YACoYMyAzDA+bSdzH8qYgmT+TT0AMAsv0oSEhOeff97f31/7ewAPgcV3RaqAnTt3Tp8+XVUZHR2dlJSkqqxYgoEBYBHGDMgM49N2MvchUhAAGKa9SPPy8iZNmhQQEODm5ubt7V0hEYiMGTMmMTFRXQsPi3ZgAIhhzIDMMD5tJ3MfIgUBgGHKizQhISEsLMzDw4Pyj7u7u5+fX0VFIKhwePYGozBmQGYYn7aTuQ+RggDAMLpI+Zs/lHzcSlAQQgSyc3j2BqMwZkBmGJ+2k7kPZUxBMn+PCgDIwoUL2Yffunfv7uXlxVIQAIBReMUHmWF82k7mPpQxBQGA/PLy8pYuXdqjR48uXboMHjw4ODiYzWn4n/UEAAAAkBZSEADYJDk5OSIiIiAgoF+/ft27d3d3d0cQAgAAAMkhBQFAOeBvDXl6ejZu3HjlypXqNQAAAACkgRQEAOWJvTUUFBSEn0kAAAAAacmYgmT+HhUAmK24SPPy8uLi4nJzc9V3QJVW6sAAUMGYAZlhfNpO5j6UMQXJ/Jt6AGDGRQo6MDDAKIwZkBnGp+1k7kOkIAAwDBcpWISBAUZhzIDMMD5tJ3MfIgUBgGG4SMEiDAwwCmMGZIbxaTuZ+xApCAAMw0UKFmFggFEYMyAzjE/bydyHMqYgmb9HBQBmXKSgAwMDjMKYAZlhfNpO5j6UMQUBAAAAAAA8OEhBAAAAAABgX5CCAAAAAADAvlSdFBQfH79+/XplzYoVK7755htlDQAAAAAAgIwpqGzfo1q9enXt2rWvXLnCbp4+fdrBwWHbtm33rwUA5aBsFylUeRgYYBTGDMgM49N2MvehjCmobL+pV1hY2LBhw7lz57KbEyZM8Pf3v3v3Li2fP3+eQtGZM2euXr163zZmc3Fx8YEDB/bu3VtQUKCsv3bt2mmF69ev87tu3bqVkpJy8ODBoqIiVkPt5+Tk8BXu3LlDm1y+fJnX5OXlKVujFvhdFg+AGlTu8dy5czdv3mT1N27cYJX0eKkp+pevZrEpFe3Bq9Ch7tu3LykpiXaqrM/OzqbKo0eP0qPjlXoda/FI2IO6ePFiYmIitaZY/b7HS/3Goyxt/ttvv7FlQZv8Ju8odpfFvtKrVyn1nAqOx+JjtNjzrAOV+InWa0d8/Pn5+awd1m90wPe1XoIdgKF2tMp2kUKVh4EBRmHMgMwwPm0ncx9WnRREJk6cyJIPzedcXV3nzZvH6tu0aePl5dWiRYtatWrR8smTJ1l9eno6rR8YGNitWzdaX/nG0YIFC1xcXFqUcHJyWrFiBavfv3+/t7c3NUL1zZo1O3z4sLmk/UceeeTYsWNsnQ0bNlSrVm3IkCG/t2U2R0RE1KtXj7VWvXr13bt3s3q9A6AG16xZwzenHW3cuJHVr1u3jlWOGDGC9rJ9+3Z2U68pJYsHr0IrdOzYMSQkhB71zJkzWeXQoUObNm0aGhrapEmTDh06XLp0idVb7Fi9I6EVBg8eTC1QvbOzM2+c3cUfL63zzjvvsOVZs2aFhYWZhW1a7Ch2l8W+0qtXEZ9TwfFYfIx6Pc87kHF0dOQn2mI77C6Lx095jFr29PSkdtzc3Fi/0RXBWqZG+I7o4I22o1XmixSqNgwMMApjBmSG8Wk7mfuwSqWg0/c+BUehRfnpOD7hu337dq9evSZPnkzLFJZorh8VFcXW2bx5c6NGjfgbC5SgaE223L59e5aCiouLg4KCxo0bx+pHjRrVrl07aofap+QwZswYVt+zZ89OnTopU9Cbb75JK7PlOnXqsBQkOAC9yT1/ID///DOtTMmKzVwFTXF6B69cx1yyGlv46quvPDw82DJ1LFu4c+dOv379xo8fz25qO1ZwJLQyPRD2dsquXbtq1qyZmZnJ2xGkIHGbFjuK3WWxr/TqVQTnVHw82sco6Hm947fYDltH7/ifffbZt956i63D0yPXuXNn5Y7MZW2HK/NFClUbBgYYhTEDMsP4tJ3MfVilUhD585//3KdPH5plRkRE8Eqa8MXGxu7fv3/Tpk0+Pj7sJxOysrKqVatGU8yUeyif7Nu3j20yY8YMPv/jKSg9PZ02uXDhAquniSndNJlM1P7HH3/s6elZUFBw+PBhuhkZGalMQW+88cbbb7/NlnkKEhwAtTBt2rT993h5eSlTEEWRDh06LF++nPbIZq6Cpji9g1euw9Aet2zZQt3IMwBN2Xfs2EHJcPr06X379uU9o+1YwZHQyjExMXwv1KsLFy7k7QhSkLhNix3F7rLYV3r1KoJzKj4e7WMU9LzygZvvT0Hadtiy3vH37t174MCB7MOW2vSil4KMtsPZcpFCFYaBAUZhzIDMMD5tJ3MfypiCbPkeVVJSEk0xH3nkkbS0NF7ZpgTN5zp16tS2bdsjR46YS/6LvXr16mH327NnD9tk9OjRr7/+OlvmKYgad3Bw+L1Rs/nmzZu0r+TkZDaXfeutt2jePGLEiE8//VSVgl544QWarLNlnoIEB0ANtm7dmle6uLgoU9DixYufeuopSiZ85ipoitM7eMUqvxs/fvxzzz3n6+vLPzFFx0/9Fh0dPX/+/EGDBtGUmtVrO1ZwJLTmsmXL+F7Cw8MnTZrE2xGkIHGbFjuK3WWxr/TqVQTnVHw82sco6HnlAzffn4K07bBlveOnrNWzZ0/aEQ0wJyenMOtSkNF2OFsuUqjCMDDAKIwZkBnGp+1k7kMZU5CN/Pz8nn32WWUNm/Cx5ZiYmJCQEHPJ1/1pMnrmzBnlmlzHjh0//PBDtsxTUEZGBm1y9uxZVk9Bi91kc9nU1FR/f38vL68bN26oUhDNbuPj49kyT0GCAxBMjhcsWODq6pqSkkI3+cxV0BSnd/D3r/Vfv/76a82aNfPy8jIzM2nSz3//ICoqSpmCVB0rOBJamX+KjLRq1WrJkiX8LkEKErdpsaPYXRb7Sq9eRXBOxcejfYyCntc7fovtsGXB8U+YMCE0NJQijfY9HIspqAztAAAAAFQNVSoF0ZQ9KSnJ0dFxy5Ytyno+WS8qKho+fHiXLl1YPU31+vfvf+3aNXPJh74SEhLYt2J27txJjfAvw/AUROvQ8siRI2mB1hwwYED37t1Z+2yKOXHixKVLl9ICnzHfvHlz9uzZ9erVy8/PZ63xFGTWPwDB5Njd3X306NGsXjlz1WuK0zt4JTpa/otn3333HaUgmv2fOnWKZu3sDbQTJ040atRIm4KUHat3JLQyHTALD/RwnJyceDAQpyBxmxY7it1lsa/06lUE59QsPB7tYxT0vN7xW2yHb2Lx+H/88cf69euzQatNLxZTUBnaAQAAAKgaqlQK6tat2+OPP07TcVU9TfhcXFwoftStW5cmoIcOHWL1OTk54eHhtWvXbt68Od0VHBxMs/nNmzdXL1Hnnho1ajg7O2/dupU2SU1Nbd26dcOGDWmmSFPbjIwM1r5qislnzNOmTevatavyw2nKFGTxAMyaBpWTY9o1D1TKGbxeU0oWD14pKyvriSeeaNmyZWBgIK3DfxmPHg71QFBQkJ+f39ixY5UpSNuxekdCK0dERPj4+FAjtNXy5ct/36uiHULR69FHH2XL/BNZgjYtdhS7y2Jf6dWrCM6pWXg8Fh+jXs/rHb9eO+wu7fFTdvX19V27di2r1KYXiymoDO0AAAAAVA2VMgXl5eXFxcXl5uaq7ygTmvmlpaXxPwUTHx8/bNiw+1cx0/SXT6/NJZNg1Z/TsYXqAGxhTVPig6fZ/PHjxzMzM1Uh6sKFC8eOHVO9vySgPRI24y8sLKRIwH++zxBtmxVLezzixyjueSVxOwAAAABgIxlTkOB7VMnJya+88oqfn5/qq//laOfOndOnT1dVRkdHJyUlqSrBEO27K1VPeT3G8mrnwRFcpGDPMDDAKIwZkBnGp+1k7kMZU5D2N/Xy8vLmzp3bqlUrd3d3Ly8vmTsU9IwZMyYxMVFdW7WU12Msr3YeHO1FCmDGwADjMGZAZhiftpO5D2VPQezNn8aNG3t4eLi5uTVp0gQRCKDCyfykBhUIAwOMwpgBmWF82k7mPpQ0BfE3f7y9vd3uQQQCkITMT2pQgTAwwCiMGZAZxqftZO5DGVNQREREQEAAxZ527drxCAQA8pD5SQ0qEAYGGIUxAzLD+LSdzH0oYwr66aef8vLyli5d2qNHj86dO7/44ov+/v408XJ3d587d656bQB46PCuLFiEgQFGYcyAzDA+bSdzH8qYgpSSk5MjIiIoBfXp06ddu3YIQgAAAAAAYCPZUxDD3xry9PT08vKiZfUaAAAAAAAA1qkcKYhjbw0FBQU9uL8XBAAAAAAAVVslS0FMXl5eXFxcbm6u+g4AAAAAAIDSyJiCZP4eFQCYcZGCDgwMMApjBmSG8Wk7mftQxhQk82/qAYAZFynowMAAozBmQGYYn7aTuQ+RggDAMFykYBEGBhiFMQMyw/i0ncx9iBQEAIbhIgWLMDDAKIwZkBnGp+1k7kOkIAAwDBcpWISBAUZhzIDMMD5tJ3MfypiCZP4eFQCYcZGCDgwMMApjBmSG8Wk7mftQxhQEAAAAAADw4CAFAQAAAACAfak6KejOnTubNm0aN27ckCFD3n777a+++opq1CsBAAAAAIDdqzopqKCgoGnTppGRkXPmzJkwYQIt9+nT5+7du+r1AAAAAADAvsmYgsr8PSpl5snMzKxWrdrRo0fZzezs7KSkJLqpfIPo/Pnzp+938+ZNftf169cvXryYmJhI2/JNyK1bt1JSUg4ePFhUVKSsp5aPHz9Oe6F2lPUMa5DfPHfuHN+XWefwVLT7vXz5sur4Cd2bl5e3b98+apD2wjdXHYC5pLto/eLiYr4C3Txz5szVq1eVqwFolfkihaoNAwOMwpgBmWF82k7mPpQxBZXLb+pRWqhRo8bpkkAydOjQpk2bhoaGNmnSpEOHDpcuXWLrtGnTxsvLq8U9jo6OGzdu5HcNHjyY1u/WrZuzs/PMmTNZ/f79+729veleWr9Zs2aHDx9m9ceOHQsODvbx8Xn66afd3Nw2bdrE6jnaZM2aNfwmbcv3pXd4Shb3O3HiRHbkdIT8gaSnp9OaHTt2DAkJcXJy4keuOgBCYYmCIusitgJrpFatWrR88uRJ5coASuVykULVg4EBRmHMgMwwPm0ncx9WtRS0ZcuWkSNHvvLKK/7+/itXrmSVfKJ/586dfv36jR8/nt0UJBO6i25evnyZlnft2lWzZs3MzMzi4uKgoKBx48axdUaNGtWuXbu7JSh1DBs2jL2TQ6vl5+ffa/V3gn3pHR6nt1++QufOnZWN87d3vvrqKw8PD7ZsTQpat24dLdy+fbtXr16TJ09WrgygZMtFClUYBgYYhTEDMsP4tJ3MfVjVUtDu3btnzJgRGRnp6+v72muvsVhCgWHHjh3z5s2bPn163759w8LC2MqCZEJ3xcTE8Lvat2+/cOHC9PR0ig0XLlxglexDdyaTKSMjgxZycnL4+lrU4LRp0/bf4+Xlxfeld3ic3n75CqoUZC5574gCYZ8+fcaMGcNq+AFQa4WFhWZLKSg2NpZW2LRpk4+PzzfffMNbA1Cx5SKFKgwDA4zCmAGZYXzaTuY+rGopiLt48eJjjz0WHx9Pyy+88ELbtm2jo6Pnz58/aNAgygxsHXEKWrZsGb8rPDx80qRJSUlJDg4OvPLmzZuUIpKTk3ft2qWst4gabN26ddg9Li4ufF96h8fp7ZfXaFPQ+PHjn3vuOYqC7O0ds+IAOnXqVL9+fYo62hRE2Ap0PEeOHPlvcwD3K5eLFKoeDAwwCmMGZIbxaTuZ+1DGFFRe36OiVDNnzpzMzMzq1avzb/xHRUVZmYJoTX5Xq1atlixZwt7zOXv2LKtMS0tjN7Ozs2lB9SMKKnr7Ehwep7dfvoI2BTG//vprzZo1Ke2Y7z+AmJiY4OBgbQrikYlWCAkJYcsAWuV1kUIVg4EBRmHMgMwwPm0ncx/KmILKJicnZ+nSpexn0IqLixcvXuzg4HDo0KFTp07RXJ+9s3HixIlGjRpZmYI8PT3PnDlDy1Tp5OREqePu3bvt27cfOXIkLdAuBgwY0L17d7Z+r169+vXrd+PGDVqmSKP9dJzevgSHxwn2yyhT0M2bNwsKCtjyd999RymIHRU/gKKiouHDh1MLeimIrdClSxdWDwAAAABQxVSdFHT+/PkWLVpUr169QYMGjz76KC1//fXX7K7IyEhnZ+egoCA/P7+xY8damYIiIiJ8fHxoExcXl+XLl7P61NTU1q1bN2zYsH79+pRMMjIyWL3JZHr66adr164dEBBQr16977//ntVzgn3pHZ6S3n4ZZQrKysp64oknWrZsGRgYSCuvWLGC1dMB0AOpU6dO3bp1KQIdPnxYm4KUK1CAZPUAAAAAAFVMpUxBNH2Pi4vLzc1V32E2X79+/dixY5SIVPUXLlygev7jaaVioaWwsJDix5UrV1T35uTkKP8UD0cHlp6ervqzPNaw8vD09qtSVFR0/PjxzMxM1V80AgAAAAAAc6VLQcnJyW+88Ya/v/+ePXvU95Ur1Vs3AAAAAABQZciYgrTfo8rLy1uyZEm7du3c3d09PT137dqlWqHcjRkzJjExUV0LACW0FymAGQMDjMOYAZlhfNpO5j6UMQUpf1OPvfnj7e3dpEkTNzc3WngIEQgAxGT+4UuoQBgYYBTGDMgM49N2MvehpCmIv/nTrFkzd3d3txKIQACSkPlJDSoQBgYYhTEDMsP4tJ3MfShjCoqIiAgICKDY4+fnx/IPAEhF5ic1qEAYGGAUxgzIDOPTdjL3oYwpiL0XtHTp0u7du7dr147+9fDwoImXu7v7ypUr1WsDwEMn85MaVCAMDDAKYwZkhvFpO5n7UMYUpPweVXJyckREhJ+fX69evfz9/RGEAGQg85cdoQJhYIBRGDMgM4xP28nchzKmIC3+1pCHh4enp+fq1avVawAAAAAAAFincqQgjr01FBgY+KD/XhAAAAAAAFRVlSwFMXl5eXFxcbm5ueo7AAAAAAAASlMpUxAAAAAAAECZyZiCZP4eFQCYcZGCDgwMMApjBmSG8Wk7mftQxhQk82/qAYAZFynowMAAozBmQGYYn7aTuQ+RggDAMFykYBEGBhiFMQMyw/i0ncx9iBQEAIbhIgWLMDDAKIwZkBnGp+1k7kOkIAAwDBcpWISBAUZhzIDMMD5tJ3MfypiCZP4eFQCYcZGCDgwMMApjBmSG8Wk7mftQxhQEAAAAAADw4FS+FHT79u24uLiRI0e+8cYbH330UV5ennoNAAAAAAAAfZUsBeXn53fq1Mnf3z82Nnbu3Lk9evRwd3c/evSoej0AAAAAAAAdlSwFDRs2jCLQ1atX2c27d+++/PLLLVu2pAW6ef78+evXr/OVz507d/PmTX6zuLj4wIEDe/fuLSgo4JWCTeiuGzdusOVr166dOXOGLWdnZyclJVH0unPnDqvRoruOHz9Oq50+fVpZLziGixcvJiYmUuPKetqc9ssfL6/nB1ZYWEjr0L/spsX9WnPAAAAAAAD2Q8YUpPc9Kooijo6On332mbIyPT29WrVqNMun5TZt2qxZs4bf1axZs40bN/LVKD4FBgZ269bN1dV127ZtrF6wCd21bt06Wjh79qyfn19sbCwtDx06tGnTpqGhoU2aNOnQocOlS5f4ttyxY8eCg4N9fHyefvppNze3TZs2sXrBMQwePJgapHpnZ+eZM2fyei8vrxYtWtSqVYuWT548yevZgZERI0bQw9++fbtZZ7/WHDCAUXoXKdg5DAwwCmMGZIbxaTuZ+1DGFKT3m3o///wzzfiPHDmiqn/88cc/+ugjs36kuXv3bkhISFRUFKvfvHlzo0aN2FtAepuwuyhs5OTkBAQETJs2jVXy91ju3LnTr1+/8ePHs5sc7atjx47Dhg1jb7wUFxfn5+ezesEx0H4vX75My7t27apZs2ZmZiarZ2nn9u3bvXr1mjx5MtuW11OHUCP16tWjFKS331IPGKAM9C5SsHMYGGAUxgzIDOPTdjL3YWVKQZQQKAWZTCZVfePGjdkbNXqRJisrizakzVPuqVOnzr59+9gmlHD23+Pl5aVMQXPnzg0MDBw+fDhvk8LGjh075s2bN3369L59+4aFhfG7mIyMDNoXZSdVvfgYYmJi+Jrt27dfuHAhq6fHRUe1adMmHx+fb775hq3AUhClmg4dOixfvtzT05NSkN5+Sz1ggDLQu0jBzmFggFEYMyAzjE/bydyHlSkFHT9+nCb6u3fvVlYWFRXVqFFj5cqVZv0URNmjevXqYffbs2cP26R169a80sXFRZmCHB0d+/TpQzGDvVFDXnjhhbZt20ZHR8+fP3/QoEGdO3e+t7ff0b4cHBxUlaxecAzLli3ja4aHh0+aNInVE1qtU6dOtFP+JhhLQYsXL37qqaco5LAUpLffUg8YoAz0LlKwcxgYYBTGDMgM49N2MvdhZUpBxNfX980331TWrFq1imb/7HNfeikoOzub4hP/eQMlvU3YXaNHj6aFwYMH9+/fnxYyMzMpyfDfKoiKitKGCrYv5Y8cKOv1joF/Uo60atVqyZIlrJ5//ycmJiYkJISvv2DBAldX15SUFLrJUpDF/VpzwABlILhIwZ5hYIBRGDMgM4xP28nchzKmIMH3qOLj4x0dHVevXs1+FG7v3r1ubm6RkZHsXkGkCQ0NpSRz7do1c8mHxBISEoqLi8Wb8BCSn5/v7e1NcevUqVP8i0knTpxo1KiRxVDRq1evfv36sZ9xowTCP6UmOAZKMiwg0d6dnJzOnj3L6tkBFBUVDR8+vEuXLqwdqnd3d2cJzXwvBZkt7dfKAwYwSnCRgj3DwACjMGZAZhiftpO5D2VMQWJr16718vKqV68eJYHatWtPnjyZ/wA0xQMXF5c691SvXp1usk/QUSQIDw+n9Zs3b163bt3g4GCKFmyTUlMQSUxMpK1OnjxJicvZ2TkoKMjPz2/s2LEWQ4XJZHr66adpXwEBAXSc33//PasXHENERISPjw+1SQe8fPlytj5/OLRy9+7dDx06xOsbNmzIfvzArEhBFvdrzQEDAAAAANiVypeCzCVvpGRlZaWnp9+6dUt93/1efPFFCjD8ZkFBQVpaGv+ST9lcuHDh2LFj7G0cgby8PDpC5R8jYrTHwJJYYWFhamrqlStXFOuWhXa/Vh4wQG5ublxcHA0h9R0AAAAAVUulTEHWi4yM/OWXX9S1klG9HwVQgfbs2RMUFPTqq6/u3btXfR8AAABAVVHFU1ClMGbMGOUbVgAVi4JQkyZN3N3dW7RoMWvWLLw1BAAAAFWPjClI5u9RAdgD9o5Qs2bNKAt5eXm9/PLLqreGcJGCRRgYYBTGDMgM49N2MvehjClI5t/UA7ATLAg1b97crQRlIeVbQ7hIwSIMDDAKYwZkhvFpO5n7UMYUxGZdACAhX1/fhIQEmZ/UoAJhYIBRGDMgM4xP28nchzKmIJn7C8BO7Nmzp3nz5j4+Piz8NG3aNDg4eNGiRXgvCAQwMMAojBmQGcan7WTuQ6QgAFBjEahxCW9v79deey05OVm5Ai5SsAgDA4zCmAGZYXzaTuY+lDEFyfw9KoAqjyKQj4+Pu7u78s0fFVykYBEGBhiFMQMyw/i0ncx9KGMKAoCKwn4UYejQoao3fwAAAACqEqQgAPhdbm5uXFycxTd/AAAAAKoSpCAAAAAAALAvSEEAAAAAAGBfZExBMn+PCgDMuEhBBwYGGIUxAzLD+LSdzH0oYwqS+Tf1AMCMixR0YGCAURgzIDOMT9vJ3IdIQQBgGC5SsAgDA4zCmAGZYXzaTuY+RAoCAMNwkYJFGBhgFMYMyAzj03Yy9yFSEAAYhosULMLAAKMwZkBmGJ+2k7kPZUxBMn+PCgDMuEhBBwYGGIUxAzLD+LSdzH0oYwoCgErt9u3bcXFxI0eOfOONNz766CP8GVYAAACQDVIQAJSn/Pz8Tp06+fv7x8bGzp07t0ePHu7u7kePHlWvBwAAAFBxkIIAoDwNGzaMItDVq1fZzbt377788sstW7akhcuXL5/WKCoqortoobi4mG1y6dKlK1eusGWqPHDgwN69ewsKCliNXiPsXqVbt26lpKQcPHjQ4r3k/PnzOTk5/OadO3eoKWqf12j3bi7Z6vr16xcvXkxMTMzOzub1Zp090vqqo7158ya/y2JTVH/jxg22XFhYSJvQv/xeypmsnd9++80s7BC9dvTqAQAA7AdSEACUm2vXrjk6On722WfKyvT09GrVqiUlJU2cOLFFCWdnZy8vL7ZM91LGoBVOnjzJ1v/Tn/40ZcoUtiEFqsDAwG7durm6um7bto0q9Rr57/5K7N+/39vbu02bNnRvs2bNDh8+rFqB0L2PPPLIsWPH2M0NGzbQYQwZMoTdtLh3ttXgwYObNGlC9XQMM2fOZPV6e6QafpyE+mfjxo3ipqh+3bp1bHnEiBF0VNu3b6dlymPUsqenJ7Xj5uYWFhZmFnaIXjt69QAAAPZDxhQk8/eoAMCsf5H+/PPPNKU+cuSIqv7xxx//6KOP+M3OnTuvWbOG37x+/TptlZmZyW6yFHT37t2QkJCoqChWuXnz5kaNGtGafCtVI0rFxcVBQUHjxo1jN0eNGtWuXTtq8P61/hMGOnbsOGbMGHazZ8+enTp1YilIsHfaiqIIe8to165dNWvWpCMX7JHWVx4nbatMQdqmWD1LKdSftN969eqxlPLss8++9dZbbNtZs2axFMRpO0SvHb162+kNDAA9GDMgM4xP28nchzKmIJl/Uw8AzPoXKU3lKc+YTCZVfePGjWNjY/lN7Xy9YcOGn3zyCVtmKSgrK4uaogZT7qlTp86+ffv4JtpGOPbu04ULF9hNihYWj4rCwMcff+zp6VlQUHD48GG6GRkZyVKQYO+0WkxMDG+kffv2CxcuFOxRnIK0TbF6Sil37tzp0KHD8uXL6QhZSundu/fAgQNv3bplNpKCtO3o1dtOb2AA6MGYAZlhfNpO5j5ECgIAw/Qu0uPHj9Psf/fu3crKoqKiGjVqrFy5ktdo5+ubNm3y8vKipFG/fn1HR0dKQZRAqlevHna/PXv28E20jXBJSUkODg785s2bN+mokpOTFav8B8snb731FmWhESNGfPrppzwFCfZOWy1btow3Eh4ePmnSJMEexSlI2xSrp5SyePHip5566u7duzylUNbq2bMn7Yg6ysnJKcy6FKRtR6/ednoDA0APxgzIDOPTdjL3IVIQABgmuEh9fX3ffPNNZc2qVato4n769Gleo52vM8XFxbdv3+7Xrx+loOzsbAoSZ86cUa90j14jJCMjg7Y9e/Ysu5mWlqa8ybF8kpqa6u/vTxnsxo0bPAUJ9k5b8U/KkVatWi1ZskSwR3EK0jbF6hcsWODq6pqSkkI3lSllwoQJoaGhFF2sfC/IYjt69bYTDAwAizBmQGYYn7aTuQ+RggDAMMFFGh8f7+jouHr1avatmL1797q5uVG6UK6jna8r8V9HoOl+//79r127Zi75ok5CQgL/HTmzsBFauX379iNHjqQF2mTAgAHdu3dXr6TIJxMnTly6dCkt8BRk1t87bUWxgQUkyjNOTk6UdgR7FKcgbVOs3t3dffTo0Ww1nlJ+/PHH+vXrszxpZQqy2I5eve0EAwPAIowZkBnGp+1k7kMZU5DM36MCAHNpF+natWu9vLzq1atHU+3atWtPnjz5zp07yhW083UlnoJycnLCw8OphebNm9etWzc4OFj5C9TiRlJTU1u3bt2wYUOKDZRPMjIy1Gto8on5/hSkt3faKiIiwsfHx8/Pz8XFZfny5Wx9vT2KU5DFpqie2snPz2c3WUopKCjw9fWlvmWVVqYgbTuCetuJBwaAFsYMyAzj03Yy96GMKQgAKru7d+9mZWWlp6ezr/Lbgmb/aWlpyj/jYz1KMufOnVPXGqHdO0s1hYWFFHv43zXiDO1R3BQAAIC0cnNz4+Li8vLy1HdUHkhBAAAGaN9BKrNybAoAAOAh27NnT/PmzSMiIrS/P1QpIAUBABgwZsyYxMREdW2ZlGNTAAAAD9/GjRs9PT09PDy6du26dOnSyvXWEFIQAAAAAACUBQUhSkGUhTp06ODr61uJ3hqSMQXJ/D0qADDjIgUdGBhgFMYMyAzj00osCLmVaNmyZatWrfhbQzL3oYwpSObf1AMAwp7pAAAAALRYKAoICIiIiFDPIaSBFAQAhuEiBYswMMAojBmQGcanlb7//nsvLy+Wf5o0aRIYGNi5c2f2XpDMfYgUBACG4SIFizAwwCiMGZAZxqc1eAR68sknKQKNGjVK+b0gmfsQKQgADMNFChZhYIBRGDMgM4zPUlEE8vDwcHd352/+qFaQuQ9lTEEyf48KAMy4SEEHBgYYhTEDMsP4FNuzZ09AQIDqzR8VmftQxhQEAAAAAADSys3NjYuL0775U4kgBQEAAAAAgH1BCgIAAAAAAPuCFAQAAAAAAPZFxhQk8/eoAMCMixR0YGCAURgzIDOMT9vJ3IcypiCZf1MPAMy4SEEHBgYYhTEDMsP4tJ3MfYgUBACG4SIFizAwwCiMGZAZxqftZO5DpCAAMAwXKViEgQFGYcyAzDA+bSdzHyIFAYBhuEjBIgwMMApjBmSG8Wk7mftQxhQk8/eoAMCMixR0YGCAURgzIDOMT9vJ3IcypiAAAAAAAIAHBykIAAAAAADsC1IQQFVQVFS0cOGi2Nj3q2RZtGgxPUD1Y67Mvvjii6lTY7SPFEXCMmPGBxs2bFCfQo1bt6ryNYgiVXnvvQ/i40sfk5XIunX0lDhd+0hRLBYaAF9+WfoAoNdNevXUbm6f5eOPLUwkkIIAKr1bt2799a//+OWXYyZTfpUs9ND+/vd36GGqH3nltGvXD6tXf6l9mCjSFjpfP/zwg/pEKhQW3ho7tipfgyiylVWrvkxM3KUeiJUTPRB6ONrHiCIoK1eu37EjUd2VCvSKSa+beFLihboiMlI9kUAKAqj0Fi1aUuWf6Q4cOL506VL1I6+cpk9/79SpPO1jRJG20PmKiZmhPpEKCxcurvLXIIpUhcbk1Kmx6oFYOdEDwVOi0UI9NnlyjLorFegV89//Pq7d0J4LPUt/8sknyl6yNQWdPHkyPT1dWXPhwoX9+/dfvHhRWQkAD857772vvdqrXpk5c5b6kVdO06fP0D46FMlLTMz76hOpEBtrF9cgilRl6tT31AOxcqIHon10KKWWyZNFMZheMbWboHzwwUxlL9magoYMGdKzZ09+Mzs728fHJzQ09MaNG/9dCQAepPfe+0B7qVe9MmsWUhBKhRWkIBTZClKQnRdxCqJXTO0mKA8wBZ0+fdrX17dHjx7Xr1+/byUAeJCQgioXpKDKWJCCUGQrSEF2XpCCylAeVAo6e/asv79/165dCwoKlCskJCQMUJg0aRKrj4mJWb9+PVsuLCwcOnTo3//+d77V1q1b+/TpExwc3L9//wMHDvB62mrt2rX8ZlJS0ujRo2lh2bJlyr0wU6dO5WsCVGFIQZULUlBlLEhBKLIVpCA7L0hBZSgPJAXl5uY2b968bdu2V69eVa3w6aefNmjQYF2JgQMHdu7cmdU/88wzEydOZMvR0dGPPPJIixYt2M3PPvusdu3a77///o4dO6ZMmeLs7Hzo0CG+1TvvvMOWyYoVK3x8fGhh//79bBfh4eF0GGx5586dfE2AKgwpqHJBCqqMBSkIRbaCFGTnBSmoDKX8U1CrVq0owDz22GMeHh6XL19WrbBo0aJmzZqx5RkzZmhTUFZWVq1atYYOHcpS0O3bt11dXefPn3+vATPdRfGJb2UxBXGRkZF9+vRR1gBUeUhBlQtSUGUsSEEoshWkIDsvSEFlKOWfgqpVq9amTZuzZ88GBQUNHjxYtQKdhpYtW7JliykoPDx81KhRCxYsYCnoyJEj1CDVTJkyZfLkyVFRUc8991zr1q35ViEhIe/c07t3b6QgAKSgygUpqDIWpCAU2QpSkJ0XpKAylPJPQd7e3r/99hstJycn16hRY+PGjcoV/va3v/3hD39gy9oUtGXLlgYNGly6dImnIGqEUtA//vGPGQqLFi3iW/Xs2ZPX//nPf0YKAig1BWVmXoiP/9fcuZ+sXr3h55/TtCtUilLlU9CePYe3bk3UlhMncrUrV/ayaNGKL7/8hhaSkn55//152hVkKzamoFOn8uhU7t17RHsXCkrZSpVPQXb1lFiGUuYUxDr2wIH7/sTZoUNZVLlr1wHt+lWplH8KUv5S9rvvvtuoUSPlHwuie/nPHsy4PwVRYvH19f3000/pJk9BlIiqV6++YcOGew3cB5+IA9ASp6Dly9c1auRWu3bttm07BAY+6eBQs0+flyrjn6ir8inoz38eSM9+LgpOTk7VqlVLTPxZu3JlL5s2bffw8OzXb4C3d5MVK77QriBbsTEFff75RjqVzZoFaO9CQSlbqfIpyK6eEstQypyCqGOpG5955nll5auvvkaVPXs+o12/KpUHm4Ju3brVsmXLV155hZbz8/Mp9jg4OBw8eJDdq0pBdevWpZt37941K1IQee211ygd8V9ESE1N3b59O98KKQhARZCCvvzymxo1agwf/hb/z7Off0576aX+WVkXtStLXuwhBYWEdFXWfPXVt1X4JX/fvqMrV67fvTtFe5eExcYU1Lfvn556qlvJxyW+096LglKGYg8pyK6eEo0WW1KQv39gzZqOKSknWM2xY+dq167dvHkQUpAxqhREfvnlF0o+X3755QcffNCpU6etW7fyu1QpiCI+rcxuKlPQtWvX3njjDWrkiSeeqFWrFv27ZMkSvhVSEICKIAW1bduhRYvWFt/5+cc/Ji1atIItZ2Sc799/0MiRY/i9q1bF/+EPzwcFtejSpUds7ByqmTlzwQsv9FOVv/1tPFufprOhoWEtWrTq0+elf/1rl3IvtFpCQjKvmTJlBtVs2/YDu0mvavSMHBzcvn37zv/7v6N//fUUX1NVkIKofPHFFmX//9///YOvqe1G8SkzWTpr2dmX33rrr9OmzWQrbN2aOGDAX9hyauppWl6z5it2k87sggXLeFOUt4cO/V+Ld7GyYsUXb745lq8gGHvKomwqMXE/HX9W1m/s5rvvTpk3bylb1uuWSZNiZs/+mC3/85/f9u7dlx7sM888v379Vr4L6pBOnZ4KDHySXv6XLFnN61XFlhREp+PRR51Wr95Auxg48HXlXexB8cJ721TatSPoQ8GpEW9o0lz44iFETc2f/2l09Pv0PEMDj3e1xdFoKm1A0uYUFJ98smW/fq/+8MO/lQdscS+qwrpLWZSPWm+EiPdrzdjTe7DKDXnh51d5Fnbu3Pfii3/etm239i7tCVIWpCCT/unT63lTaSPqk0/W0Mjp2/dPbENqp9QGadfffvsjW6azSffyHemdynIZALakIHou6tq1Z1RULKv56KMlNFV4+eVXlClI+wLBivgZRm8rvQ60/kVHr3HxCVWVck5BD87Vq1cPHz6cnZ1dXFysvg8AFPRS0KFDWY888gg9NWjvokLPgGPG/J0t//Wv79KaAQGB7OYHH8x3cKg5enTk2rWb6MmOTV7puWnhwuVUaBJJT5ds+YsvvjaVvA7VqlVr/Pjodes2U1NOTk7fffcT34uLi8ugQUPZTZoi1K1br0aNGvxDUJMnv0dT1c8/37hs2doOHUJoPqo8SGVBCjKVnJonnqjPOp9eOOlJn9Vb7EbBKTPpnzWaSTRo0HD69P+8gn766eePPfY4LRw/nktt0h7pFYttTmeWpxoqc+Ys8vRsbPEuViZOnE4zFb6C3thTFWVTrDf4u5r0ak2TTras1y3PPdd7yJARtLBhwzb2pmhc3D/pXwcHh40bv2frULT4+OPPqJ6OhNbZvHmH6hhYsSUFxcTMbtjQ7eTJS3Q11a5d+9ixc/wu9qDmzl1CRz5s2Just1kRXzuCPhScGvGG2gtfPISoKVfXRr17v0gBjwYSbUtzEZPOaDQJB+TUqe/TCKRzQU09++wf6WwePnxSvBdVodVoQ9Ymlb/85X+Uj1pvhIj3a83Y03uwyg2155efBUq5dLnR4+KbCE6QqiAFCU6fXs+bhCOKnvecnZ3ZLJ+2pRaonVIbdHR8lJpiy+vXb6XV+I70TmW5DAAbU9DcuZ8EBj7JaihJUmcqU5DeC4RJ+Awj2ErQgVa+6Og1Ljih2lJpUhAAWEkvBW3btpuedD777Pe8oSr8qfannw7RZKt//0HsqTYr6zeabCnfMVAVevkPDQ3jN7OyLtav32Dq1P8eAzVFz1xsmfZCN+vUqcv+i5SmwnSTXjMsfhXk4MFMwacdkIKoxMbO8fFpypbffXcKn8wpi7YbVafMVNpZ+/bbH2kMzJu3lL0g0cq0ORX+f+Em4Quh6i5WLKYg1djTFitnonrdwlNQly49evfuy5v94x9f6N79aX6TFUopjRq5LV68UlXPii0pqHXrtux/c+ngqT8/+mgJv4syAD0o1rFLlqxSzdUE146gDwWnRrCh+MLXDiHWlLd3Ez5HGTXq/7RffNKORm1rNMDoYdID5DfpgN9+exy7ac1e2GqCR21xhJS6X2vGnrJoH6ze+WVnITFxP83exo2LUjaid4K0xc5TkPj06fW8STii6FniT396lS3T6VamIEGDdBhUw5YtpiDtqSyXAWBjCqKYUbv2Y9u2/UA7oicWGr08BYlfIPSuNfFWgg40WfGiI2hccEK1BSkIoKrRS0HfffcTPenofciHP9U+88zzf/nL/0ybNpM91X7//R7aiv//jbaoZjDbt++l9amFv/713bFj36EXoR49QoOCWvC90NNlv34DoqJi6UmqcWOff/1rlzIFpaRkRET8rUuX7oGBT9IBPPLII6tWxWt3akIKKin0kt+8eRBbVk73xd2oncKKzxqV118f7uDgMHDg6/Qy+dJL/Wll/oENVujMtmvXkU4uK6GhzylTELuLmp05c8GRI9kmnRSkGnvaYuVMVK9bKAVRy4MHv/Hoo04ffDCfN/v++/OeeKI+vzl//qf0SFu2bDNo0FBl0lOWMqcg1tV0WbGbgwYNUZ5lesl3cKjJlrVzNcG1I+hDwakRbCi+8LVDiDWl/IDf559vpIFHUyvxaNS29sMP/6ZdU0fxmgED/sK/uq23F2WDbDWLMzNWLI6QUvdrzdgTP1i980uN9+nzUsOGbp6eXqohp3eCtMXOU5D49On1vEk4oiiQ0DPD3LlLaEds1s5TkKBB2imNqHXrNm/atD0mZnY1TQrSnspyGQA2piBTyS8ivPHGKHoJeP75cLrJU5D4BULvGUa8laADWRG/6AgaF5xQbZE3BZ04cWLevPn0WkJTBCpz5sxNS0tXrwQAGnopKC3tbI0aNd55Z7L2LtO9p1qaUbFPEfCn2i1bEui5RvkBa1VRzWC+/npntf/8ja//o7kFL+yrRGwv9CxJ6/j4NKUnwfbtO5tKPj/AU1CbNu3oOTQu7p80CUtISKZnSVpNu1MTUlBJGTEiolu3XmxZOd0Xd6N2Cis+azTbdnZ2njJlRs2ajrQaxQN67aGXvZMnL/EW6MzS0fJte/d+UZmC2F1/+9v4Dh1CXF0bHThwTJuCtGNPW6yciep1C6Wgjh1D6IHQkFN+RmLevKVOTk78Jk136PDCw1+mUao38sucgoYNe5MuQ+oHVpo2bUav0Pw3ISZPfs/buwlb1s7VBNeOoA8Fp0awofjC1w4h1hRNofjNjRu/oxYOHcoSj0Zta99++yNt+OOPB3nN0KH/S7lCvBdlg2w1QQqyOEJK3a81Y0/8YPXOLzVODVL7fn7N33rrr3x9dpfFE6Qtdp6CxKdPr+dNwhFFT3H0NEgXbLNmAXTFVVOkIEGDlIRpBk9XN40rOqHV7k9BFk9luQwA21MQPTraC10py5evMylSkPgFQu8ZRryVoANNVrzoCBoXnFBtkTEF5eTkTJkydfHiFampp/mB0vLChcvHj486deq0egMAUNBLQVRoquHp6ZWRcV5ZyW7SEwe9kNOzEvs/cv5Ue+RIdvXq1fm3M7VFNYOhp2laX/COE5tJBAe3b9CgIV3UJsVMjibH9GyVlPQLW5kW6CZSEC/aFEQr8G/K8slcqd2oncIKzlpm5oXAwCcjIyeYSj52/+ijTvQaT/M/X1+/8eOn8tUEk07lXdQane65cz9RpSCLY09brJyJWuwWk+ITcbRr5VTjzTff5u8MKAu1+T//899XU2UpWwrKyvqtfv0GAwb8hfqHFy8vb/7t/OefD+efGNHO1QTXjqAPBadGsKH4wtcOIdYUFX7z/ffn0vGXOhq1raWmnqFkuGzZWl7TuXMX/p+7FveibI2vJnjUFkdIqfstdeyV+mD1zi81TjNOU8nkjy6xDRu28U30TpC22HkKEp8+vZ43lTai3nlnMj3XHTt2TvWJOEGDyqL6RJzeqSyXAWB7CqLStGmz+vVd2c/G8hQkeIEw6V9r4q0EHWjNi46gcfEJVRXpUtDBgwenTJlGXaA9VlNJ17z77uS9e/erNwOAewQpiF6V6ekgNPQ59ktT9Ez3+ecbW7RoTQv0rPH443VoNsB+QU75VPvSS/19fJru2LGPbcJfBljRzof69XuVnrL5Z2loX2vXbmLL/OkyPv5fo0dHsrf++UyOXmkcHGq+996HppL/+OjRI5Re1ZCCeFG+5B89aqLZm4ODA/8xIj6ZK7UbtafMpH/Wxoz5OxshJsUXVU0l/8Hm7OzMf7JM74VQeRc9gdOLFj0EOvuqFKQ39lSl1JmooFtMihQUHf1+nTp12W8KffNNEu2dfb6cWuPvfuzde8TT04t/zUBVypaCPvlkDb1yq/5U8dix73h4eGZnX6ZHRCcuLu6frF47VxNcO4I+FJwa8YaCC9/iEKKmatSowUbavn1HadsRIyJKHY0WW6PpEQ0P9mcc581bSpt8/fVOwV6U2/LVLD5q8QgR71c89kylXXqC89v13qeeTCXTbjpU/r/AghOkKnaegkz6p0/Q8ybhiNq2bTc9y23ZkmC6/3tB4gaVRZWC9E5luQyAcklB9MTCP5Kn/HUEvRcIk/61JthK3IFWvujoNS44odoiVwrKycmJjrb8kqMsNEROnjSpNwaAEoIURIXmNPQcQVOxRx91omcKV9dG7OdoWCXNCNlqyqfa1NQz4eEv0yvKE0/Ur1nTkX/SmhXtDCY9PeeVVwbTPKNu3XouLi7074wZH7G7VE+XrCg/EUf7pV3QUdWqVSsqKpY2RwriRfmSP3781ODg9itXruf3Kidz4m7UnjKTzlljH0vgLzPKFyRTyceK2rRpxz6iIHgh7FryYQ9CL3v0gjRlyn8eryoF6Y09VeFNWUSPS9wtPAXR6+uAAX+hndLDpH8HDnydveIeOpRVu/Zj9eu70sHT0b7wQj8+01WVsqUguna6dOmhqmTvGNBxqh9PCToXbDXxtSPoQ8GpEW8ouPAtDiFq6tVXX2vZsg2tT2126dKdzeTEo9FiaykpJ2jwUyM0/2MfjCl1L6qi96jFI0S8X/W5uR8LQnoPluZn6g1KsPPbVTEJpjzcsWMIzfD4fvVOkKogBVk8feKeN+mPqIyM882bB7F3JEyKFFRqg8qiSkF6p7JcBkC5pCBlUaYgiy8Q7C69a01vK3EHWv+iY7FxdjwWT6jFIlcKmjp12smT930tzGLJzLwwbtykkj+vCgBq4hTEypEj2d9/v+eXX9K1d+kVmiDSExP7bzZrCk2haBd79x5RfnvEmnL0qGn79r2Cpy1WqnwKsrFY2Y2qUuazVhkLDelvv/2R/5YuK/TAf/jh3zt27KMO1G7CS9lSkKDQzKCr4lMcrPz66ymLU6uHWay/8PlkaNeuA8qvZ5jKOhqTk1NpNCp/Sdwk3Et5FYv7FRdK9SwFmXQe7EM4v1U+BVlZVKev1J43OqJKbbCiSplTkPWlbC8Qqq3KtwO1h2TohEqUgo4fP75iRZz2EC2WRYtWHDp0VN0EAFiXgqpAQQpCqcBS7inoyy+/ee653qpKmk+7ublrV5azqP5L+AGVh7MXo2XatJnKP72qLQ/h/CIFWSyl9rzREVVqgxVVHkIKKpfyoDvQ0AmVKAUtWrToxIkc7SFaLKmpp2fNmqtuAgCQgiobpKDKWMo9BVWB0qfPS//4xyRtffmWh7OXyliQgspWqsyIqiwp6EEXQydUohQ0e/bs06evaA9Rr0yZIjrfAHYLKahyQQqqjAUpCEW2ghRk5wUpqAxFohQ0a9Zs7fEJivh8A9gtpKDKBSmoMhakIBTZClKQnRfxrBgpyGKRKAXNnj37zBkD7wVFR4vON4DdQgqqXJCCKmNBCkKRrSAF2XlBCipDkSgFLVq0KDPT2p9kSU09PXv2PHUTAIAUVNkgBVXGghSEIltBCrLzghRUhiJRCjp+/PiqVQZ+I+7IkTR1EwBgNk+bFqu9ZKpeQQpCqcAiTkFTp8ZoN0FBeaAFKcjOi/jb8jNm4IXGQpk5876JREWmIPN/Zm/TTKb//Ok6ccnMvPDuu1HqjQGgxLp1X6xc+aX2wqlKJS5uw8aNG9WPvHKaNetD8Z+mQZGt0PmaM+dD9YlUWLv2C+Xf5URBedCFxuTMmXPUA7FyogeCp0SjhXpsxgzR/wyuX7/+8883aDe057JmzZeqiUQFp6CcnJzp02NK/aW48eMnm0xn1BsDwD0JCUnR0bFTplTNMnXqe7t2/aB+zJXWlStXPvhg9tSpM7SPFEXCMm3ajJkzZ9NZU5/I++3cmaTdFgXlQRR69nj//VmljsnKgh4IPRw8JVpfqK8oAuXn56u78n70ukmvntrN7bNMnRqblKSeSFRwCiIHDx6cNi0mO/s3bfgxlbwLNH78lF9++bd6MwAAAAAAgDKp+BRkLnlHaNq06cuWrUpPP8PzT2rq6UWLPouKij579qx6AwAAAAAAgLKSIgUxJ06cWLhw4QcfzHz99SEzZnwwb958qlGvBAAAAAAAYBuJUhA3e/ZsdRUAAAAAAEA5QQoCAAAAAAD7ghQEAAAAAAD2BSkIAAAAAADsC1IQAAAAAADYF6QgAAAAAACwL0hBAAAAAABgXx5qClq/fv1sK/Tr109dZQm1pt4BAAAAAABAaR5qCrLSbLwXBAAAAAAADwxSEAAAAAAA2BekIAAAAAAAsC9IQQAAAAAAYF+QggAAAAAAwL4gBQEAAAAAgH1BCgIAAAAAAPuCFAQAAAAAAPYFKQgAAAAAAOwLUhAAAAAAANgXpCAAAAAAALAvSEEAAAAAAGBfkIIAAAAAAMC+IAUBAAAAAIB9QQoCAAAAAAD7ghQEAAAAAAD2BSkIAAAAAADsC1IQAAAAAADYF+lS0I0bN1599VX6V30HAAAAAABAeZArBd25cycqKuro0aP0Ly2r7wYAAAAAALCZXClo9uzZx48fpwX6F5+LAwAAAACAB0GiFLRq1aqffvqJ36RlqlHcDwAAAAAAUA5kSUHffvvtV199paqkGqpXVQIAAAAAANhCihR08ODBRYsWqWtLUD3dq64FAAAAAAAoq4pPQadPn54+fbq6VoHupXXUtQAAAAAAAGVSwSnoypUrEyZMKCoqUt+hQPfSOrSm+g4AAAAAAADjKjIFWR9vrAlLAAAAAAAA1qjIFGToo26lfnAOAAAAAADAGhWWgsrwsweCH1EAAAAAAACwUsWkoDL/BLbFH9QGAAAAAACwXgWkIBv/HKrqj6sCAAAAAAAY8rBT0PHjx2fPnq2uNYhaoHbUtQAAAAAAAFZ4qCnowoULUVFRd+7cUd9hELVA7VBr6jsAAAAAAABK81BT0IoVK27cuKGuLRNqh1pT1wIAAAAAAJTmoaYgAAAAAACACocUBAAAAAAA9gUpCAAAAAAA7AtSEAAAAAAA2BekIAAAAAAAsC//Dy8A+LX/1A2rAAAAAElFTkSuQmCC;" vertex="1" parent="WIyWlLk6GJQsqaUBKTNV-1">
          <mxGeometry x="1100" y="1420" width="1111" height="810" as="geometry" />
        </mxCell>
        <mxCell id="Xd-OEKQsW6fIhWHLVpuV-68" value="писал на plantUML так как там легче строить связи" style="text;html=1;align=center;verticalAlign=middle;resizable=0;points=[];autosize=1;strokeColor=none;fillColor=none;fontSize=25;" vertex="1" parent="WIyWlLk6GJQsqaUBKTNV-1">
          <mxGeometry x="1185" y="1350" width="620" height="40" as="geometry" />
        </mxCell>
      </root>
    </mxGraphModel>
  </diagram>
</mxfile>
